{"glyphs":{"0":{"ha":1072,"x_min":97,"x_max":975,"o":"m 324 -14 q 160 49 222 -14 q 97 213 97 111 l 97 760 q 160 924 97 863 q 324 986 222 986 l 747 986 q 913 924 850 986 q 975 760 975 863 l 975 213 q 913 48 975 110 q 747 -14 850 -14 l 324 -14 m 681 178 q 757 254 757 178 l 757 718 q 681 794 757 794 l 392 794 q 315 718 315 794 l 315 254 q 392 178 315 178 l 681 178 z "},"1":{"ha":824,"x_min":93,"x_max":778,"o":"m 778 0 l 93 0 l 93 194 l 326 194 l 326 706 l 100 706 l 100 889 l 326 889 l 326 972 l 544 972 l 544 194 l 778 194 l 778 0 z "},"2":{"ha":961,"x_min":74,"x_max":875,"o":"m 74 0 l 74 185 l 590 558 q 653 656 653 606 l 653 701 q 576 778 653 778 l 153 778 l 88 843 l 88 972 l 643 972 q 811 910 747 972 q 875 746 875 847 l 875 636 q 842 517 875 568 q 722 406 808 465 l 435 204 l 435 194 l 875 194 l 875 0 l 74 0 z "},"3":{"ha":940,"x_min":67,"x_max":872,"o":"m 67 0 l 67 192 l 574 192 q 650 268 650 192 l 650 322 q 574 399 650 399 l 260 399 l 260 560 l 525 771 l 525 781 l 132 781 l 67 844 l 67 972 l 831 972 l 831 801 l 549 579 l 549 569 l 646 569 q 810 508 749 569 q 872 343 872 446 l 872 226 q 810 63 872 125 q 646 0 749 0 l 67 0 z "},"4":{"ha":986,"x_min":38,"x_max":968,"o":"m 819 0 l 601 0 l 601 199 l 38 199 l 38 379 l 400 972 l 583 972 l 583 868 l 294 400 l 294 393 l 604 393 l 604 601 l 819 601 l 819 393 l 968 393 l 968 199 l 819 199 l 819 0 z "},"5":{"ha":958,"x_min":81,"x_max":886,"o":"m 81 0 l 81 192 l 588 192 q 664 268 664 192 l 664 350 q 588 426 664 426 l 94 426 l 94 972 l 858 972 l 858 844 l 794 781 l 313 781 l 313 611 l 660 611 q 824 549 763 611 q 886 385 886 488 l 886 226 q 824 63 886 125 q 660 0 763 0 l 81 0 z "},"6":{"ha":986,"x_min":69,"x_max":917,"o":"m 296 -14 q 132 49 194 -14 q 69 213 69 111 l 69 393 q 95 508 69 457 q 188 625 121 558 l 535 972 l 718 972 l 718 864 l 440 604 l 440 597 l 511 597 l 690 597 q 855 535 793 597 q 917 371 917 474 l 917 213 q 855 49 917 111 q 690 -14 793 -14 l 296 -14 m 622 176 q 699 253 699 176 l 699 340 q 622 417 699 417 l 364 417 q 288 340 288 417 l 288 253 q 364 176 288 176 l 622 176 z "},"7":{"ha":879,"x_min":35,"x_max":838,"o":"m 440 0 l 244 0 l 244 108 l 592 764 l 592 774 l 35 774 l 35 972 l 838 972 l 838 782 l 440 0 z "},"8":{"ha":1025,"x_min":79,"x_max":947,"o":"m 306 -14 q 142 49 204 -14 q 79 213 79 111 l 79 306 q 120 437 79 388 q 213 497 161 486 l 213 508 q 133 565 168 519 q 97 685 97 611 l 97 760 q 160 924 97 863 q 324 986 222 986 l 701 986 q 866 924 804 986 q 928 760 928 863 l 928 685 q 893 565 928 611 q 814 508 858 519 l 814 497 q 906 436 865 486 q 947 306 947 386 l 947 213 q 885 48 947 110 q 719 -14 822 -14 l 306 -14 m 629 588 q 706 664 706 588 l 706 725 q 629 801 706 801 l 396 801 q 319 725 319 801 l 319 664 q 396 588 319 588 l 629 588 m 649 171 q 725 247 725 171 l 725 331 q 649 407 725 407 l 378 407 q 301 331 301 407 l 301 247 q 378 171 301 171 l 649 171 z "},"9":{"ha":986,"x_min":69,"x_max":917,"o":"m 268 0 l 268 108 l 546 368 l 546 375 l 475 375 l 296 375 q 132 438 194 375 q 69 601 69 500 l 69 760 q 132 924 69 863 q 296 986 194 986 l 690 986 q 855 924 793 986 q 917 760 917 863 l 917 579 q 892 465 917 514 q 799 347 867 415 l 451 0 l 268 0 m 622 556 q 699 632 699 556 l 699 719 q 622 796 699 796 l 364 796 q 288 719 288 796 l 288 632 q 364 556 288 556 l 622 556 z "},"\r":{"ha":833,"x_min":0,"x_max":0,"o":""}," ":{"ha":389,"x_min":0,"x_max":0,"o":""}," ":{"ha":389,"x_min":0,"x_max":0,"o":""},"·":{"ha":389,"x_min":88,"x_max":301,"o":"m 301 254 l 88 254 l 88 458 l 301 458 l 301 254 z "},".":{"ha":351,"x_min":69,"x_max":282,"o":"m 282 0 l 69 0 l 69 204 l 282 204 l 282 0 z "},"…":{"ha":1181,"x_min":69,"x_max":1111,"o":"m 282 0 l 69 0 l 69 204 l 282 204 l 282 0 m 696 0 l 483 0 l 483 204 l 696 204 l 696 0 m 1111 0 l 899 0 l 899 204 l 1111 204 l 1111 0 z "},",":{"ha":351,"x_min":69,"x_max":282,"o":"m 185 -153 l 69 -153 l 69 204 l 282 204 l 282 42 l 185 -153 z "},":":{"ha":351,"x_min":69,"x_max":282,"o":"m 282 504 l 69 504 l 69 708 l 282 708 l 282 504 m 282 0 l 69 0 l 69 204 l 282 204 l 282 0 z "},";":{"ha":351,"x_min":69,"x_max":282,"o":"m 282 504 l 69 504 l 69 708 l 282 708 l 282 504 m 185 -153 l 69 -153 l 69 204 l 282 204 l 282 42 l 185 -153 z "},"!":{"ha":458,"x_min":104,"x_max":354,"o":"m 308 315 l 150 315 l 104 653 l 104 972 l 354 972 l 354 653 l 308 315 m 336 0 l 122 0 l 122 204 l 336 204 l 336 0 z "},"¡":{"ha":458,"x_min":104,"x_max":354,"o":"m 336 504 l 122 504 l 122 708 l 336 708 l 336 504 m 354 -236 l 104 -236 l 104 65 l 150 399 l 308 399 l 354 65 l 354 -236 z "},"?":{"ha":868,"x_min":42,"x_max":799,"o":"m 296 385 q 321 481 296 444 q 381 537 346 518 q 472 576 415 556 q 551 612 526 596 q 576 658 576 628 l 576 704 q 500 781 576 781 l 111 781 l 42 850 l 42 972 l 572 972 q 737 910 675 972 q 799 746 799 849 l 799 625 q 772 526 799 564 q 710 469 746 488 q 617 433 674 451 q 535 401 561 417 q 510 354 510 385 l 510 315 l 296 315 l 296 385 m 510 0 l 296 0 l 296 204 l 510 204 l 510 0 z "},"¿":{"ha":868,"x_min":69,"x_max":826,"o":"m 572 504 l 358 504 l 358 708 l 572 708 l 572 504 m 296 -236 q 132 -174 194 -236 q 69 -10 69 -112 l 69 93 q 96 192 69 154 q 159 247 122 229 q 251 282 196 265 q 333 315 307 299 q 358 361 358 331 l 358 399 l 572 399 l 572 329 q 547 233 572 269 q 485 177 521 196 q 396 140 450 158 q 316 106 340 121 q 292 60 292 90 l 292 18 q 312 -31 292 -18 q 372 -44 332 -44 l 757 -44 l 826 -114 l 826 -236 l 296 -236 z "},"*":{"ha":628,"x_min":56,"x_max":572,"o":"m 547 847 l 572 710 l 535 704 l 435 694 l 508 601 l 529 571 l 415 490 l 394 522 l 314 656 l 233 522 l 213 490 l 99 571 l 119 601 l 193 694 l 93 704 l 56 710 l 81 847 l 117 842 l 253 807 l 244 935 l 244 972 l 383 972 l 383 935 l 375 807 l 511 842 l 547 847 z "},"'":{"ha":329,"x_min":74,"x_max":254,"o":"m 218 615 l 111 615 l 74 792 l 74 972 l 254 972 l 254 792 l 218 615 z "},"\"":{"ha":597,"x_min":74,"x_max":522,"o":"m 218 615 l 111 615 l 74 792 l 74 972 l 254 972 l 254 792 l 218 615 m 486 615 l 379 615 l 342 792 l 342 972 l 522 972 l 522 792 l 486 615 z "},"‚":{"ha":351,"x_min":69,"x_max":282,"o":"m 185 -153 l 69 -153 l 69 204 l 282 204 l 282 42 l 185 -153 z "},"„":{"ha":650,"x_min":69,"x_max":581,"o":"m 185 -153 l 69 -153 l 69 204 l 282 204 l 282 42 l 185 -153 m 483 -153 l 368 -153 l 368 204 l 581 204 l 581 42 l 483 -153 z "},"‘":{"ha":351,"x_min":69,"x_max":282,"o":"m 282 657 l 69 657 l 69 819 l 167 1014 l 282 1014 l 282 657 z "},"’":{"ha":351,"x_min":69,"x_max":282,"o":"m 185 615 l 69 615 l 69 972 l 282 972 l 282 810 l 185 615 z "},"“":{"ha":650,"x_min":69,"x_max":581,"o":"m 282 657 l 69 657 l 69 819 l 167 1014 l 282 1014 l 282 657 m 581 657 l 368 657 l 368 819 l 465 1014 l 581 1014 l 581 657 z "},"”":{"ha":650,"x_min":69,"x_max":581,"o":"m 185 615 l 69 615 l 69 972 l 282 972 l 282 810 l 185 615 m 483 615 l 368 615 l 368 972 l 581 972 l 581 810 l 483 615 z "},"‹":{"ha":542,"x_min":56,"x_max":463,"o":"m 463 56 l 306 56 l 56 361 l 306 667 l 463 667 l 463 572 l 282 361 l 463 150 l 463 56 z "},"›":{"ha":542,"x_min":79,"x_max":486,"o":"m 236 56 l 79 56 l 79 150 l 260 361 l 79 572 l 79 667 l 236 667 l 486 361 l 236 56 z "},"«":{"ha":792,"x_min":56,"x_max":722,"o":"m 389 125 l 233 125 l 56 375 l 233 625 l 389 625 l 389 553 l 254 375 l 389 197 l 389 125 m 722 125 l 567 125 l 389 375 l 567 625 l 722 625 l 722 553 l 588 375 l 722 197 l 722 125 z "},"»":{"ha":792,"x_min":69,"x_max":736,"o":"m 225 125 l 69 125 l 69 197 l 204 375 l 69 553 l 69 625 l 225 625 l 403 375 l 225 125 m 558 125 l 403 125 l 403 197 l 538 375 l 403 553 l 403 625 l 558 625 l 736 375 l 558 125 z "},"•":{"ha":604,"x_min":167,"x_max":438,"o":"m 246 233 q 189 256 211 233 q 167 313 167 278 l 167 406 q 189 462 167 440 q 246 483 211 483 l 358 483 q 415 462 393 483 q 438 406 438 440 l 438 313 q 415 256 438 278 q 358 233 393 233 l 246 233 z "},"-":{"ha":649,"x_min":60,"x_max":588,"o":"m 588 344 l 60 344 l 60 531 l 588 531 l 588 344 z "},"­":{"ha":0,"x_min":0,"x_max":0,"o":""},"–":{"ha":899,"x_min":60,"x_max":838,"o":"m 838 347 l 60 347 l 60 524 l 838 524 l 838 347 z "},"—":{"ha":1288,"x_min":60,"x_max":1226,"o":"m 1226 347 l 60 347 l 60 524 l 1226 524 l 1226 347 z "},"_":{"ha":671,"x_min":-32,"x_max":704,"o":"m 704 -254 l -32 -254 l -32 -74 l 704 -74 l 704 -254 z "},"(":{"ha":539,"x_min":107,"x_max":507,"o":"m 333 -264 q 169 -202 232 -264 q 107 -37 107 -140 l 107 857 q 169 1022 107 960 q 333 1083 232 1083 l 507 1083 l 507 886 l 396 886 q 341 869 358 886 q 324 815 324 853 l 324 4 q 341 -50 324 -33 q 396 -67 358 -67 l 507 -67 l 507 -264 l 333 -264 z "},")":{"ha":539,"x_min":32,"x_max":433,"o":"m 32 -264 l 32 -67 l 143 -67 q 198 -50 181 -67 q 215 4 215 -33 l 215 815 q 198 869 215 853 q 143 886 181 886 l 32 886 l 32 1083 l 206 1083 q 371 1022 308 1083 q 433 857 433 960 l 433 -37 q 371 -202 433 -140 q 206 -264 308 -264 l 32 -264 z "},"[":{"ha":572,"x_min":121,"x_max":524,"o":"m 524 -264 l 121 -264 l 121 1083 l 524 1083 l 524 893 l 333 893 l 333 -74 l 524 -74 l 524 -264 z "},"]":{"ha":572,"x_min":49,"x_max":451,"o":"m 451 -264 l 49 -264 l 49 -74 l 239 -74 l 239 893 l 49 893 l 49 1083 l 451 1083 l 451 -264 z "},"{":{"ha":611,"x_min":46,"x_max":563,"o":"m 378 -264 q 223 -205 282 -264 q 164 -51 164 -146 l 164 239 q 140 301 164 286 q 46 315 115 315 l 46 504 q 140 519 115 504 q 164 581 164 533 l 164 871 q 223 1024 164 965 q 378 1083 282 1083 l 563 1083 l 563 893 l 440 893 q 378 826 378 893 l 378 579 q 340 465 378 507 q 254 417 301 422 l 254 403 q 340 355 301 397 q 378 240 378 313 l 378 -7 q 440 -74 378 -74 l 563 -74 l 563 -264 l 378 -264 z "},"}":{"ha":611,"x_min":49,"x_max":565,"o":"m 49 -264 l 49 -74 l 171 -74 q 233 -7 233 -74 l 233 240 q 272 355 233 313 q 357 403 310 397 l 357 417 q 272 465 310 422 q 233 579 233 507 l 233 826 q 171 893 233 893 l 49 893 l 49 1083 l 233 1083 q 388 1024 329 1083 q 447 871 447 965 l 447 581 q 472 519 447 533 q 565 504 496 504 l 565 315 q 472 301 496 315 q 447 239 447 286 l 447 -51 q 388 -205 447 -146 q 233 -264 329 -264 l 49 -264 z "},"|":{"ha":542,"x_min":167,"x_max":375,"o":"m 375 -236 l 167 -236 l 167 1111 l 375 1111 l 375 -236 z "},"¦":{"ha":542,"x_min":167,"x_max":375,"o":"m 375 556 l 167 556 l 167 1111 l 375 1111 l 375 556 m 375 -236 l 167 -236 l 167 319 l 375 319 l 375 -236 z "},"†":{"ha":899,"x_min":65,"x_max":833,"o":"m 556 -236 l 343 -236 l 343 504 l 65 504 l 65 708 l 343 708 l 375 1000 l 524 1000 l 556 708 l 833 708 l 833 504 l 556 504 l 556 -236 z "},"‡":{"ha":899,"x_min":65,"x_max":833,"o":"m 525 -264 l 372 -264 l 343 -24 l 65 -24 l 65 181 l 343 181 l 343 556 l 65 556 l 65 760 l 343 760 l 372 1000 l 525 1000 l 556 760 l 833 760 l 833 556 l 556 556 l 556 181 l 833 181 l 833 -24 l 556 -24 l 525 -264 z "},"/":{"ha":746,"x_min":14,"x_max":732,"o":"m 204 -69 l 14 -69 l 14 39 l 542 1042 l 732 1042 l 732 933 l 204 -69 z "},"\\":{"ha":746,"x_min":14,"x_max":732,"o":"m 732 -69 l 542 -69 l 14 933 l 14 1042 l 204 1042 l 732 39 l 732 -69 z "},"#":{"ha":1086,"x_min":39,"x_max":1046,"o":"m 1046 778 l 1046 601 l 867 601 l 817 371 l 975 371 l 975 194 l 778 194 l 736 0 l 551 0 l 593 194 l 365 194 l 324 0 l 139 0 l 181 194 l 39 194 l 39 371 l 219 371 l 269 601 l 111 601 l 111 778 l 308 778 l 350 972 l 535 972 l 493 778 l 719 778 l 761 972 l 947 972 l 906 778 l 1046 778 m 404 371 l 632 371 l 681 601 l 454 601 l 404 371 z "},"№":{"ha":1761,"x_min":115,"x_max":1683,"o":"m 333 0 l 115 0 l 115 972 l 347 972 l 865 315 l 875 315 l 858 500 l 858 972 l 1076 972 l 1076 0 l 844 0 l 326 657 l 317 657 l 333 472 l 333 0 m 1343 389 q 1233 433 1276 389 q 1190 542 1190 476 l 1190 667 q 1233 776 1190 732 q 1343 819 1276 819 l 1531 819 q 1640 776 1596 819 q 1683 667 1683 732 l 1683 542 q 1640 433 1683 476 q 1531 389 1596 389 l 1343 389 m 1476 524 q 1513 537 1500 524 q 1525 572 1525 550 l 1525 636 q 1513 672 1525 660 q 1476 685 1500 685 l 1396 685 q 1360 672 1374 685 q 1347 636 1347 658 l 1347 572 q 1360 537 1347 550 q 1396 524 1374 524 l 1476 524 m 1683 176 l 1190 176 l 1190 306 l 1683 306 l 1683 176 z "},"&":{"ha":1018,"x_min":56,"x_max":1018,"o":"m 282 -14 q 118 49 181 -14 q 56 213 56 111 l 56 285 q 110 434 56 375 q 250 504 165 493 l 250 514 q 190 582 217 535 q 163 688 163 629 l 163 746 q 225 910 163 849 q 389 972 288 972 l 871 972 l 871 847 l 801 778 l 454 778 q 403 760 421 778 q 385 710 385 743 l 385 697 q 401 656 385 676 q 456 601 418 635 l 1018 108 l 1018 0 l 815 0 l 722 83 l 713 83 q 636 16 686 46 q 529 -14 586 -14 l 282 -14 m 467 171 q 528 190 507 171 q 554 236 550 210 l 414 364 l 344 364 q 292 345 311 364 q 274 292 274 326 l 274 243 q 292 190 274 208 q 344 171 311 171 l 467 171 z "},"§":{"ha":875,"x_min":101,"x_max":788,"o":"m 104 -236 l 104 -65 l 531 -65 q 566 -53 553 -65 q 579 -25 579 -42 l 579 26 q 567 57 579 43 q 532 75 554 71 l 260 128 q 144 186 186 142 q 101 294 101 231 l 101 375 q 133 474 101 433 q 199 525 164 514 l 199 538 q 132 590 163 551 q 101 683 101 629 l 101 796 q 152 922 101 871 q 278 972 203 972 l 757 972 l 757 861 l 699 801 l 358 801 q 323 790 336 801 q 310 761 310 778 l 310 710 q 322 679 310 693 q 357 661 335 665 l 629 608 q 745 550 703 594 q 788 442 788 506 l 788 361 q 756 263 788 303 q 690 211 725 222 l 690 199 q 757 146 726 185 q 788 53 788 107 l 788 -60 q 737 -185 788 -135 q 611 -236 686 -236 l 104 -236 m 535 236 q 570 266 554 243 q 586 319 586 289 l 586 415 q 574 447 586 435 q 539 464 561 460 l 354 500 q 319 470 335 493 q 303 417 303 447 l 303 321 q 315 289 303 301 q 350 272 328 276 l 535 236 z "},"¶":{"ha":1032,"x_min":56,"x_max":1010,"o":"m 333 -236 l 333 463 l 246 463 q 149 488 193 463 q 81 556 106 513 q 56 653 56 600 l 56 782 q 81 878 56 835 q 149 947 106 922 q 246 972 193 972 l 1010 972 l 1010 792 l 847 792 l 847 -236 l 657 -236 l 657 792 l 524 792 l 524 -236 l 333 -236 z "},"©":{"ha":1438,"x_min":115,"x_max":1322,"o":"m 310 -42 q 171 14 226 -42 q 115 153 115 69 l 115 819 q 171 958 115 903 q 310 1014 226 1014 l 1128 1014 q 1267 958 1211 1014 q 1322 819 1322 903 l 1322 153 q 1267 14 1322 69 q 1128 -42 1211 -42 l 310 -42 m 1083 107 q 1142 128 1121 107 q 1164 189 1164 150 l 1164 785 q 1142 844 1164 822 q 1083 865 1121 865 l 354 865 q 295 844 317 865 q 274 785 274 822 l 274 188 q 295 128 274 150 q 354 107 317 107 l 1083 107 m 604 236 q 501 276 542 236 q 461 379 461 317 l 461 593 q 501 696 461 656 q 604 736 542 736 l 961 736 l 961 649 l 910 597 l 671 597 q 635 585 647 597 q 622 549 622 572 l 622 424 q 635 388 622 400 q 671 375 647 375 l 961 375 l 961 236 l 604 236 z "},"®":{"ha":1438,"x_min":115,"x_max":1322,"o":"m 310 -42 q 171 14 226 -42 q 115 153 115 69 l 115 819 q 171 958 115 903 q 310 1014 226 1014 l 1128 1014 q 1267 958 1211 1014 q 1322 819 1322 903 l 1322 153 q 1267 14 1322 69 q 1128 -42 1211 -42 l 310 -42 m 1083 107 q 1142 128 1121 107 q 1164 189 1164 150 l 1164 785 q 1142 844 1164 822 q 1083 865 1121 865 l 354 865 q 295 844 317 865 q 274 785 274 822 l 274 188 q 295 128 274 150 q 354 107 317 107 l 1083 107 m 465 236 l 465 736 l 851 736 q 952 698 914 736 q 990 597 990 660 l 990 558 q 960 466 990 500 q 893 426 929 432 l 990 315 l 990 236 l 844 236 l 725 403 l 632 403 l 632 236 l 465 236 m 781 518 q 812 527 800 518 q 824 553 824 536 l 824 576 q 812 602 824 593 q 781 611 800 611 l 632 611 l 632 518 l 781 518 z "},"™":{"ha":1246,"x_min":14,"x_max":1183,"o":"m 333 486 l 176 486 l 176 840 l 14 840 l 14 972 l 496 972 l 496 886 l 449 840 l 333 840 l 333 486 m 676 486 l 528 486 l 528 563 l 583 972 l 736 972 l 851 732 l 858 732 l 975 972 l 1128 972 l 1183 563 l 1183 486 l 1035 486 l 1011 764 l 1004 764 l 906 556 l 806 556 l 706 764 l 699 764 l 676 486 z "},"@":{"ha":1372,"x_min":101,"x_max":1271,"o":"m 301 -167 q 157 -112 213 -167 q 101 32 101 -57 l 101 690 q 157 834 101 779 q 301 889 213 889 l 1072 889 q 1216 834 1161 889 q 1271 690 1271 779 l 1271 143 l 1122 143 l 1093 219 l 1086 219 q 1026 157 1068 185 q 928 129 983 129 l 747 129 q 615 182 668 129 q 563 315 563 235 l 563 393 q 613 524 563 474 q 747 574 664 574 l 1067 574 l 1067 650 q 990 726 1067 726 l 382 726 q 306 650 306 726 l 306 72 q 382 -4 306 -4 l 1257 -4 l 1257 -167 l 301 -167 m 968 296 q 1041 322 1015 296 q 1067 396 1067 349 l 1067 431 l 824 431 q 780 417 793 431 q 767 372 767 403 l 767 354 q 780 310 767 324 q 824 296 793 296 l 968 296 z "},"A":{"ha":1083,"x_min":24,"x_max":1060,"o":"m 400 972 l 683 972 l 1060 108 l 1060 0 l 854 0 l 781 188 l 303 188 l 229 0 l 24 0 l 24 108 l 400 972 m 536 778 l 376 372 l 707 372 l 547 778 l 536 778 z "},"B":{"ha":1118,"x_min":115,"x_max":1042,"o":"m 115 0 l 115 972 l 788 972 q 952 910 890 972 q 1014 746 1014 849 l 1014 704 q 976 572 1014 621 q 889 514 938 524 l 889 504 q 994 444 947 494 q 1042 306 1042 393 l 1042 226 q 980 63 1042 125 q 815 0 918 0 l 115 0 m 715 590 q 792 667 792 590 l 792 711 q 715 788 792 788 l 333 788 l 333 590 l 715 590 m 743 185 q 819 261 819 185 l 819 329 q 743 406 819 406 l 333 406 l 333 185 l 743 185 z "},"C":{"ha":1025,"x_min":97,"x_max":963,"o":"m 324 0 q 160 63 222 0 q 97 226 97 125 l 97 746 q 160 910 97 849 q 324 972 222 972 l 963 972 l 963 847 l 893 778 l 392 778 q 315 701 315 778 l 315 271 q 392 194 315 194 l 963 194 l 963 0 l 324 0 z "},"D":{"ha":1153,"x_min":115,"x_max":1056,"o":"m 115 0 l 115 972 l 829 972 q 994 910 932 972 q 1056 746 1056 849 l 1056 226 q 994 63 1056 125 q 829 0 932 0 l 115 0 m 761 192 q 838 268 838 192 l 838 704 q 761 781 838 781 l 333 781 l 333 192 l 761 192 z "},"E":{"ha":1007,"x_min":115,"x_max":944,"o":"m 944 0 l 115 0 l 115 972 l 944 972 l 944 851 l 875 782 l 333 782 l 333 583 l 796 583 l 796 399 l 333 399 l 333 190 l 944 190 l 944 0 z "},"F":{"ha":963,"x_min":115,"x_max":935,"o":"m 333 0 l 115 0 l 115 972 l 935 972 l 935 847 l 865 778 l 333 778 l 333 542 l 778 542 l 778 347 l 333 347 l 333 0 z "},"G":{"ha":1125,"x_min":97,"x_max":1028,"o":"m 324 0 q 160 63 222 0 q 97 226 97 125 l 97 746 q 160 910 97 849 q 324 972 222 972 l 968 972 l 968 847 l 899 778 l 392 778 q 315 701 315 778 l 315 268 q 392 192 315 192 l 810 192 l 810 542 l 1028 542 l 1028 0 l 324 0 z "},"H":{"ha":1176,"x_min":115,"x_max":1060,"o":"m 333 0 l 115 0 l 115 972 l 333 972 l 333 593 l 843 593 l 843 972 l 1060 972 l 1060 0 l 843 0 l 843 393 l 333 393 l 333 0 z "},"I":{"ha":449,"x_min":115,"x_max":333,"o":"m 333 0 l 115 0 l 115 972 l 333 972 l 333 0 z "},"J":{"ha":799,"x_min":35,"x_max":690,"o":"m 35 -14 l 35 181 l 396 181 q 472 257 472 181 l 472 972 l 690 972 l 690 213 q 628 48 690 110 q 463 -14 565 -14 l 35 -14 z "},"K":{"ha":1111,"x_min":115,"x_max":1063,"o":"m 333 0 l 115 0 l 115 972 l 333 972 l 333 593 l 588 593 l 854 972 l 1046 972 l 1046 864 l 775 510 l 1063 108 l 1063 0 l 868 0 l 590 393 l 333 393 l 333 0 z "},"L":{"ha":956,"x_min":115,"x_max":935,"o":"m 935 0 l 115 0 l 115 972 l 333 972 l 333 199 l 935 199 l 935 0 z "},"M":{"ha":1393,"x_min":65,"x_max":1329,"o":"m 282 0 l 65 0 l 65 108 l 171 972 l 414 972 l 692 403 l 701 403 l 979 972 l 1222 972 l 1329 108 l 1329 0 l 1111 0 l 1049 656 l 1040 656 l 788 139 l 607 139 l 354 656 l 344 656 l 282 0 z "},"N":{"ha":1192,"x_min":115,"x_max":1076,"o":"m 333 0 l 115 0 l 115 972 l 347 972 l 865 315 l 875 315 l 858 500 l 858 972 l 1076 972 l 1076 0 l 844 0 l 326 657 l 317 657 l 333 472 l 333 0 z "},"O":{"ha":1157,"x_min":97,"x_max":1060,"o":"m 324 -14 q 160 49 222 -14 q 97 213 97 111 l 97 760 q 160 924 97 863 q 324 986 222 986 l 833 986 q 998 924 936 986 q 1060 760 1060 863 l 1060 213 q 998 49 1060 111 q 833 -14 936 -14 l 324 -14 m 767 178 q 843 254 843 178 l 843 718 q 767 794 843 794 l 392 794 q 315 718 315 794 l 315 254 q 392 178 315 178 l 767 178 z "},"P":{"ha":1111,"x_min":115,"x_max":1028,"o":"m 115 0 l 115 972 l 801 972 q 966 910 904 972 q 1028 746 1028 849 l 1028 518 q 966 354 1028 417 q 801 292 904 292 l 333 292 l 333 0 l 115 0 m 733 482 q 810 558 810 482 l 810 706 q 733 782 810 782 l 333 782 l 333 482 l 733 482 z "},"Q":{"ha":1157,"x_min":97,"x_max":1060,"o":"m 833 986 q 998 924 936 986 q 1060 760 1060 863 l 1060 213 q 998 49 1060 111 q 833 -14 936 -14 l 697 -14 l 785 -128 l 785 -222 l 569 -222 l 482 -14 l 324 -14 q 160 49 222 -14 q 97 213 97 111 l 97 760 q 160 924 97 863 q 324 986 222 986 l 833 986 m 843 718 q 767 794 843 794 l 392 794 q 315 718 315 794 l 315 254 q 392 178 315 178 l 767 178 q 843 254 843 178 l 843 718 z "},"R":{"ha":1135,"x_min":115,"x_max":1053,"o":"m 1053 108 l 1053 0 l 854 0 l 581 347 l 333 347 l 333 0 l 115 0 l 115 972 l 806 972 q 970 910 908 972 q 1032 746 1032 849 l 1032 574 q 976 424 1032 479 q 842 353 921 369 l 1053 108 m 333 538 l 739 538 q 815 614 815 538 l 815 706 q 739 782 815 782 l 333 782 l 333 538 z "},"S":{"ha":1049,"x_min":76,"x_max":983,"o":"m 76 0 l 76 192 l 685 192 q 761 268 761 192 l 761 288 q 743 339 761 319 q 690 364 725 358 l 294 424 q 133 497 189 439 q 76 649 76 556 l 76 746 q 139 910 76 849 q 303 972 201 972 l 956 972 l 956 850 l 886 781 l 375 781 q 299 704 299 781 l 299 689 q 317 638 299 658 q 369 613 336 618 l 767 553 q 928 481 872 538 q 983 329 983 424 l 983 226 q 922 63 983 125 q 757 0 860 0 l 76 0 z "},"T":{"ha":1000,"x_min":28,"x_max":972,"o":"m 608 0 l 392 0 l 392 778 l 28 778 l 28 972 l 972 972 l 972 847 l 903 778 l 608 778 l 608 0 z "},"U":{"ha":1171,"x_min":108,"x_max":1063,"o":"m 336 -14 q 171 48 233 -14 q 108 213 108 110 l 108 972 l 326 972 l 326 254 q 403 178 326 178 l 768 178 q 844 254 844 178 l 844 972 l 1063 972 l 1063 213 q 1001 49 1063 111 q 836 -14 939 -14 l 336 -14 z "},"V":{"ha":1097,"x_min":39,"x_max":1058,"o":"m 696 0 l 401 0 l 39 864 l 39 972 l 246 972 l 542 213 l 556 213 l 851 972 l 1058 972 l 1058 864 l 696 0 z "},"W":{"ha":1504,"x_min":39,"x_max":1465,"o":"m 535 0 l 275 0 l 39 864 l 39 972 l 274 972 l 410 282 l 419 282 l 629 972 l 875 972 l 1086 282 l 1094 282 l 1232 972 l 1465 972 l 1465 864 l 1229 0 l 969 0 l 757 688 l 747 688 l 535 0 z "},"X":{"ha":1069,"x_min":46,"x_max":1024,"o":"m 250 0 l 46 0 l 46 108 l 365 483 l 72 864 l 72 972 l 275 972 l 528 628 l 542 628 l 794 972 l 997 972 l 997 864 l 704 493 l 1024 108 l 1024 0 l 819 0 l 542 350 l 528 350 l 250 0 z "},"Y":{"ha":1024,"x_min":32,"x_max":990,"o":"m 621 0 l 403 0 l 403 306 l 32 864 l 32 972 l 233 972 l 507 528 l 521 528 l 789 972 l 990 972 l 990 864 l 621 306 l 621 0 z "},"Z":{"ha":1010,"x_min":56,"x_max":954,"o":"m 954 0 l 56 0 l 56 185 l 635 768 l 635 778 l 139 778 l 69 847 l 69 972 l 954 972 l 954 788 l 375 204 l 375 194 l 954 194 l 954 0 z "},"a":{"ha":864,"x_min":63,"x_max":771,"o":"m 257 -14 q 118 42 174 -14 q 63 181 63 97 l 63 236 q 118 375 63 319 q 257 431 174 431 l 567 431 l 567 475 q 500 542 567 542 l 122 542 l 122 708 l 576 708 q 715 653 660 708 q 771 514 771 597 l 771 0 l 622 0 l 590 81 l 583 81 q 522 15 567 44 q 419 -14 478 -14 l 257 -14 m 468 153 q 541 179 515 153 q 567 253 567 206 l 567 288 l 324 288 q 280 274 293 288 q 267 229 267 260 l 267 211 q 280 167 267 181 q 324 153 293 153 l 468 153 z "},"b":{"ha":924,"x_min":100,"x_max":844,"o":"m 100 0 l 100 958 l 303 958 l 303 636 l 310 636 q 367 696 325 669 q 469 722 410 722 l 650 722 q 789 667 733 722 q 844 528 844 611 l 844 194 q 789 56 844 111 q 650 0 733 0 l 100 0 m 574 181 q 642 247 642 181 l 642 475 q 574 542 642 542 l 403 542 q 329 515 356 542 q 303 442 303 489 l 303 181 l 574 181 z "},"c":{"ha":788,"x_min":79,"x_max":732,"o":"m 274 0 q 135 56 190 0 q 79 194 79 111 l 79 514 q 135 653 79 597 q 274 708 190 708 l 732 708 l 732 590 l 671 528 l 350 528 q 282 461 282 528 l 282 247 q 350 181 282 181 l 732 181 l 732 0 l 274 0 z "},"d":{"ha":924,"x_min":79,"x_max":824,"o":"m 274 -14 q 135 42 190 -14 q 79 181 79 97 l 79 514 q 135 653 79 597 q 274 708 190 708 l 621 708 l 621 958 l 824 958 l 824 0 l 676 0 l 643 81 l 636 81 q 575 15 619 44 q 472 -14 531 -14 l 274 -14 m 521 167 q 594 193 568 167 q 621 265 621 219 l 621 528 l 350 528 q 282 461 282 528 l 282 233 q 350 167 282 167 l 521 167 z "},"e":{"ha":893,"x_min":79,"x_max":815,"o":"m 274 0 q 135 56 190 0 q 79 194 79 111 l 79 528 q 135 667 79 611 q 274 722 190 722 l 621 722 q 760 667 704 722 q 815 528 815 611 l 815 278 l 282 278 l 282 233 q 350 167 282 167 l 785 167 l 785 0 l 274 0 m 282 426 l 611 426 l 611 489 q 544 556 611 556 l 350 556 q 282 489 282 556 l 282 426 z "},"f":{"ha":621,"x_min":100,"x_max":635,"o":"m 100 778 q 156 917 100 861 q 294 972 211 972 l 635 972 l 635 796 l 371 796 q 303 729 303 796 l 303 639 l 558 639 l 558 532 l 518 463 l 303 463 l 303 0 l 100 0 l 100 778 z "},"g":{"ha":871,"x_min":42,"x_max":829,"o":"m 218 -250 q 92 -199 143 -250 q 42 -74 42 -149 l 42 0 q 76 99 42 58 q 168 149 110 139 l 168 157 q 130 186 144 165 q 115 233 115 207 q 130 279 115 260 q 168 306 144 299 l 168 315 q 106 365 129 326 q 83 454 83 403 l 83 546 q 134 672 83 621 q 260 722 185 722 l 518 722 l 579 838 l 753 838 l 753 740 l 685 694 l 685 685 q 758 626 729 669 q 788 528 788 583 l 788 435 q 737 310 788 361 q 611 260 686 260 l 322 260 q 298 250 308 260 q 288 225 288 240 q 298 200 288 210 q 322 190 308 190 l 653 190 q 778 140 728 190 q 829 14 829 89 l 829 -74 q 778 -199 829 -149 q 653 -250 728 -250 l 218 -250 m 531 424 q 583 476 583 424 l 583 504 q 531 558 583 558 l 340 558 q 288 504 288 558 l 288 476 q 340 424 288 424 l 531 424 m 572 -90 q 612 -77 599 -90 q 625 -42 625 -64 l 625 -18 q 612 17 625 4 q 572 31 599 31 l 299 31 q 259 17 272 31 q 246 -18 246 4 l 246 -42 q 259 -77 246 -64 q 299 -90 272 -90 l 572 -90 z "},"h":{"ha":919,"x_min":100,"x_max":826,"o":"m 100 0 l 100 958 l 303 958 l 303 636 l 310 636 q 367 696 325 669 q 469 722 410 722 l 632 722 q 771 667 715 722 q 826 528 826 611 l 826 0 l 622 0 l 622 472 q 606 523 622 507 q 556 539 590 539 l 403 539 q 329 513 356 539 q 303 440 303 488 l 303 0 l 100 0 z "},"i":{"ha":403,"x_min":100,"x_max":304,"o":"m 303 0 l 100 0 l 100 708 l 303 708 l 303 0 m 304 829 l 100 829 l 100 1024 l 304 1024 l 304 829 z "},"j":{"ha":403,"x_min":-76,"x_max":311,"o":"m -76 -236 l -76 -56 l 39 -56 q 107 11 107 -56 l 107 708 l 310 708 l 310 -42 q 254 -181 310 -125 q 115 -236 199 -236 l -76 -236 m 311 829 l 107 829 l 107 1024 l 311 1024 l 311 829 z "},"k":{"ha":872,"x_min":100,"x_max":831,"o":"m 303 0 l 100 0 l 100 958 l 303 958 l 303 447 l 461 447 l 636 708 l 817 708 l 817 611 l 636 364 l 831 97 l 831 0 l 643 0 l 461 271 l 303 271 l 303 0 z "},"l":{"ha":403,"x_min":100,"x_max":303,"o":"m 303 0 l 100 0 l 100 958 l 303 958 l 303 0 z "},"m":{"ha":1338,"x_min":93,"x_max":1246,"o":"m 93 0 l 93 708 l 240 708 l 274 628 l 281 628 q 342 693 297 664 q 444 722 386 722 l 556 722 q 658 693 614 722 q 719 628 703 664 l 726 628 q 789 693 744 664 q 892 722 833 722 l 1051 722 q 1190 667 1135 722 q 1246 528 1246 611 l 1246 0 l 1042 0 l 1042 472 q 975 539 1042 539 l 843 539 q 771 468 771 539 l 771 0 l 567 0 l 567 472 q 551 523 567 507 q 500 539 535 539 l 396 539 q 322 513 349 539 q 296 440 296 488 l 296 0 l 93 0 z "},"n":{"ha":913,"x_min":93,"x_max":819,"o":"m 93 0 l 93 708 l 240 708 l 274 628 l 281 628 q 342 693 297 664 q 444 722 386 722 l 625 722 q 764 667 708 722 q 819 528 819 611 l 819 0 l 615 0 l 615 472 q 599 523 615 507 q 549 539 583 539 l 396 539 q 322 513 349 539 q 296 440 296 488 l 296 0 l 93 0 z "},"o":{"ha":913,"x_min":79,"x_max":833,"o":"m 274 -14 q 135 42 190 -14 q 79 181 79 97 l 79 528 q 135 667 79 611 q 274 722 190 722 l 639 722 q 778 667 722 722 q 833 528 833 611 l 833 181 q 778 42 833 97 q 639 -14 722 -14 l 274 -14 m 563 164 q 629 232 629 164 l 629 476 q 563 544 629 544 l 350 544 q 282 476 282 544 l 282 232 q 350 164 282 164 l 563 164 z "},"p":{"ha":917,"x_min":93,"x_max":838,"o":"m 93 -236 l 93 708 l 240 708 l 274 628 l 281 628 q 342 693 297 664 q 444 722 386 722 l 643 722 q 782 667 726 722 q 838 528 838 611 l 838 194 q 782 56 838 111 q 643 0 726 0 l 296 0 l 296 -236 l 93 -236 m 567 181 q 635 247 635 181 l 635 475 q 567 542 635 542 l 396 542 q 322 515 349 542 q 296 443 296 489 l 296 181 l 567 181 z "},"q":{"ha":917,"x_min":79,"x_max":824,"o":"m 621 -236 l 621 86 l 614 86 q 556 26 599 53 q 454 0 514 0 l 274 0 q 135 56 190 0 q 79 194 79 111 l 79 514 q 135 653 79 597 q 274 708 190 708 l 824 708 l 824 -236 l 621 -236 m 521 181 q 594 207 568 181 q 621 281 621 233 l 621 528 l 350 528 q 282 461 282 528 l 282 247 q 350 181 282 181 l 521 181 z "},"r":{"ha":653,"x_min":93,"x_max":622,"o":"m 93 0 l 93 708 l 240 708 l 274 628 l 281 628 q 342 693 297 664 q 444 722 386 722 l 622 722 l 622 531 l 386 531 q 319 508 343 531 q 296 440 296 485 l 296 0 l 93 0 z "},"s":{"ha":801,"x_min":65,"x_max":747,"o":"m 65 0 l 65 171 l 490 171 q 526 181 514 171 q 539 207 539 190 l 539 218 q 526 240 539 229 q 492 256 514 251 l 222 308 q 108 367 150 322 q 65 475 65 411 l 65 532 q 116 658 65 607 q 240 708 167 708 l 719 708 l 719 594 l 664 538 l 322 538 q 286 528 299 538 q 274 504 274 519 l 274 492 q 285 469 274 481 q 321 453 297 457 l 590 400 q 705 341 663 386 q 747 233 747 296 l 747 176 q 697 51 747 101 q 572 0 646 0 l 65 0 z "},"t":{"ha":664,"x_min":35,"x_max":601,"o":"m 347 0 q 208 56 264 0 q 153 194 153 111 l 153 532 l 35 532 l 35 708 l 163 708 l 232 903 l 357 903 l 357 708 l 583 708 l 583 590 l 528 532 l 357 532 l 357 247 q 424 181 357 181 l 601 181 l 601 0 l 347 0 z "},"u":{"ha":913,"x_min":93,"x_max":819,"o":"m 288 -14 q 149 42 204 -14 q 93 181 93 97 l 93 708 l 296 708 l 296 233 q 364 167 296 167 l 517 167 q 590 193 564 167 q 615 267 615 219 l 615 708 l 819 708 l 819 0 l 671 0 l 639 81 l 632 81 q 565 13 610 39 q 468 -14 521 -14 l 288 -14 z "},"v":{"ha":824,"x_min":32,"x_max":792,"o":"m 528 0 l 296 0 l 32 611 l 32 708 l 225 708 l 407 218 l 417 218 l 600 708 l 792 708 l 792 611 l 528 0 z "},"w":{"ha":1190,"x_min":39,"x_max":1150,"o":"m 449 0 l 225 0 l 39 611 l 39 708 l 250 708 l 350 253 l 358 253 l 503 708 l 688 708 l 831 253 l 840 253 l 940 708 l 1150 708 l 1150 611 l 965 0 l 740 0 l 600 444 l 590 444 l 449 0 z "},"x":{"ha":833,"x_min":42,"x_max":792,"o":"m 232 0 l 42 0 l 42 97 l 261 354 l 56 611 l 56 708 l 250 708 l 413 469 l 421 469 l 583 708 l 778 708 l 778 611 l 572 368 l 792 97 l 792 0 l 601 0 l 421 239 l 413 239 l 232 0 z "},"y":{"ha":815,"x_min":32,"x_max":782,"o":"m 592 708 l 782 708 l 782 613 l 536 -24 q 435 -182 496 -128 q 275 -236 374 -236 l 100 -236 l 100 -53 l 225 -53 q 274 -37 253 -53 q 304 13 296 -21 l 306 17 l 32 613 l 32 708 l 226 708 l 424 236 l 433 236 l 592 708 z "},"z":{"ha":778,"x_min":51,"x_max":722,"o":"m 722 0 l 51 0 l 51 163 l 426 524 l 426 532 l 111 532 l 56 590 l 56 708 l 722 708 l 722 546 l 347 185 l 347 176 l 722 176 l 722 0 z "},"Á":{"ha":1083,"x_min":24,"x_max":1060,"o":"m 400 972 l 683 972 l 1060 108 l 1060 0 l 854 0 l 781 188 l 303 188 l 229 0 l 24 0 l 24 108 l 400 972 m 536 778 l 376 372 l 707 372 l 547 778 l 536 778 m 611 1069 l 417 1069 l 528 1288 l 778 1288 l 611 1069 z "},"Ă":{"ha":1083,"x_min":24,"x_max":1060,"o":"m 400 972 l 683 972 l 1060 108 l 1060 0 l 854 0 l 781 188 l 303 188 l 229 0 l 24 0 l 24 108 l 400 972 m 536 778 l 376 372 l 707 372 l 547 778 l 536 778 m 392 1069 q 306 1104 340 1069 q 271 1190 271 1139 l 271 1288 l 444 1288 l 444 1243 q 483 1204 444 1204 l 600 1204 q 639 1243 639 1204 l 639 1288 l 813 1288 l 813 1190 q 778 1104 813 1139 q 692 1069 743 1069 l 392 1069 z "},"Â":{"ha":1083,"x_min":24,"x_max":1060,"o":"m 400 972 l 683 972 l 1060 108 l 1060 0 l 854 0 l 781 188 l 303 188 l 229 0 l 24 0 l 24 108 l 400 972 m 536 778 l 376 372 l 707 372 l 547 778 l 536 778 m 454 1069 l 257 1069 l 431 1288 l 653 1288 l 826 1069 l 629 1069 l 544 1176 l 539 1176 l 454 1069 z "},"Ä":{"ha":1083,"x_min":24,"x_max":1060,"o":"m 400 972 l 683 972 l 1060 108 l 1060 0 l 854 0 l 781 188 l 303 188 l 229 0 l 24 0 l 24 108 l 400 972 m 536 778 l 376 372 l 707 372 l 547 778 l 536 778 m 476 1079 l 278 1079 l 278 1274 l 476 1274 l 476 1079 m 806 1079 l 607 1079 l 607 1274 l 806 1274 l 806 1079 z "},"À":{"ha":1083,"x_min":24,"x_max":1060,"o":"m 400 972 l 683 972 l 1060 108 l 1060 0 l 854 0 l 781 188 l 303 188 l 229 0 l 24 0 l 24 108 l 400 972 m 536 778 l 376 372 l 707 372 l 547 778 l 536 778 m 667 1069 l 472 1069 l 306 1288 l 556 1288 l 667 1069 z "},"Ā":{"ha":1083,"x_min":24,"x_max":1060,"o":"m 400 972 l 683 972 l 1060 108 l 1060 0 l 854 0 l 781 188 l 303 188 l 229 0 l 24 0 l 24 108 l 400 972 m 536 778 l 376 372 l 707 372 l 547 778 l 536 778 m 799 1101 l 285 1101 l 285 1254 l 799 1254 l 799 1101 z "},"Ą":{"ha":1083,"x_min":24,"x_max":1060,"o":"m 1060 0 q 948 -84 989 -44 q 907 -157 907 -124 q 947 -197 907 -197 l 1060 -197 l 1060 -319 l 903 -319 q 795 -285 833 -319 q 757 -192 757 -250 q 803 -87 757 -137 q 911 0 849 -36 l 854 0 l 781 188 l 303 188 l 229 0 l 24 0 l 24 108 l 400 972 l 683 972 l 1060 108 l 1060 0 m 536 778 l 376 372 l 707 372 l 547 778 l 536 778 z "},"Ã":{"ha":1083,"x_min":24,"x_max":1060,"o":"m 400 972 l 683 972 l 1060 108 l 1060 0 l 854 0 l 781 188 l 303 188 l 229 0 l 24 0 l 24 108 l 400 972 m 536 778 l 376 372 l 707 372 l 547 778 l 536 778 m 686 1063 q 603 1076 640 1063 q 525 1113 567 1089 q 483 1134 499 1128 q 454 1140 468 1140 q 436 1121 436 1140 l 436 1069 l 294 1069 l 294 1192 q 322 1263 294 1238 q 399 1289 349 1289 q 482 1275 444 1289 q 560 1238 519 1261 q 601 1216 586 1222 q 631 1210 617 1210 q 649 1229 649 1210 l 649 1282 l 790 1282 l 790 1161 q 763 1089 790 1115 q 686 1063 736 1063 z "},"Ǎ":{"ha":1083,"x_min":24,"x_max":1060,"o":"m 400 972 l 683 972 l 1060 108 l 1060 0 l 854 0 l 781 188 l 303 188 l 229 0 l 24 0 l 24 108 l 400 972 m 536 778 l 376 372 l 707 372 l 547 778 l 536 778 m 653 1069 l 431 1069 l 257 1288 l 454 1288 l 539 1181 l 544 1181 l 629 1288 l 826 1288 l 653 1069 z "},"Å":{"ha":1083,"x_min":24,"x_max":1060,"o":"m 400 972 l 683 972 l 1060 108 l 1060 0 l 854 0 l 781 188 l 303 188 l 229 0 l 24 0 l 24 108 l 400 972 m 536 778 l 376 372 l 707 372 l 547 778 l 536 778 m 485 1028 q 394 1066 432 1028 q 357 1156 357 1104 l 357 1201 q 394 1292 357 1254 q 485 1329 432 1329 l 600 1329 q 690 1292 651 1329 q 728 1201 728 1254 l 728 1156 q 690 1066 728 1104 q 600 1028 651 1028 l 485 1028 m 568 1136 q 589 1144 581 1136 q 597 1167 597 1153 l 597 1190 q 589 1211 597 1203 q 568 1219 581 1219 l 517 1219 q 494 1211 503 1219 q 486 1190 486 1203 l 486 1167 q 494 1144 486 1153 q 517 1136 503 1136 l 568 1136 z "},"Ǻ":{"ha":1083,"x_min":24,"x_max":1060,"o":"m 400 972 l 683 972 l 1060 108 l 1060 0 l 854 0 l 781 188 l 303 188 l 229 0 l 24 0 l 24 108 l 400 972 m 536 778 l 376 372 l 707 372 l 547 778 l 536 778 m 635 1324 q 701 1278 675 1313 q 728 1201 728 1243 l 728 1156 q 690 1066 728 1104 q 600 1028 651 1028 l 485 1028 q 394 1066 432 1028 q 357 1156 357 1104 l 357 1201 q 385 1281 357 1246 q 457 1326 414 1317 l 535 1469 l 761 1469 l 635 1324 m 597 1190 q 589 1211 597 1203 q 568 1219 581 1219 l 517 1219 q 494 1211 503 1219 q 486 1190 486 1203 l 486 1167 q 494 1144 486 1153 q 517 1136 503 1136 l 568 1136 q 589 1144 581 1136 q 597 1167 597 1153 l 597 1190 z "},"Æ":{"ha":1569,"x_min":24,"x_max":1507,"o":"m 1507 851 l 1438 782 l 924 782 l 924 583 l 1358 583 l 1358 399 l 924 399 l 924 190 l 1507 190 l 1507 0 l 706 0 l 706 192 l 299 192 l 232 0 l 24 0 l 24 108 l 357 972 l 1507 972 l 1507 851 m 503 782 l 363 378 l 706 378 l 706 782 l 503 782 z "},"Ǽ":{"ha":1569,"x_min":24,"x_max":1507,"o":"m 1507 851 l 1438 782 l 924 782 l 924 583 l 1358 583 l 1358 399 l 924 399 l 924 190 l 1507 190 l 1507 0 l 706 0 l 706 192 l 299 192 l 232 0 l 24 0 l 24 108 l 357 972 l 1507 972 l 1507 851 m 503 782 l 363 378 l 706 378 l 706 782 l 503 782 m 910 1069 l 715 1069 l 826 1288 l 1076 1288 l 910 1069 z "},"Ć":{"ha":1025,"x_min":97,"x_max":963,"o":"m 324 0 q 160 63 222 0 q 97 226 97 125 l 97 746 q 160 910 97 849 q 324 972 222 972 l 963 972 l 963 847 l 893 778 l 392 778 q 315 701 315 778 l 315 271 q 392 194 315 194 l 963 194 l 963 0 l 324 0 m 642 1069 l 447 1069 l 558 1288 l 808 1288 l 642 1069 z "},"Č":{"ha":1025,"x_min":97,"x_max":963,"o":"m 324 0 q 160 63 222 0 q 97 226 97 125 l 97 746 q 160 910 97 849 q 324 972 222 972 l 963 972 l 963 847 l 893 778 l 392 778 q 315 701 315 778 l 315 271 q 392 194 315 194 l 963 194 l 963 0 l 324 0 m 683 1069 l 461 1069 l 288 1288 l 485 1288 l 569 1181 l 575 1181 l 660 1288 l 857 1288 l 683 1069 z "},"Ç":{"ha":1025,"x_min":97,"x_max":963,"o":"m 392 778 q 315 701 315 778 l 315 271 q 392 194 315 194 l 963 194 l 963 0 l 624 0 l 610 -56 l 660 -56 q 747 -87 715 -56 q 778 -174 778 -119 l 778 -215 q 747 -301 778 -269 q 660 -333 715 -333 l 440 -333 l 440 -225 l 611 -225 q 633 -218 625 -225 q 642 -200 642 -211 l 642 -189 q 633 -171 642 -178 q 611 -164 625 -164 l 499 -164 l 454 -122 l 483 0 l 324 0 q 160 63 222 0 q 97 226 97 125 l 97 746 q 160 910 97 849 q 324 972 222 972 l 963 972 l 963 847 l 893 778 l 392 778 z "},"Ĉ":{"ha":1025,"x_min":97,"x_max":963,"o":"m 324 0 q 160 63 222 0 q 97 226 97 125 l 97 746 q 160 910 97 849 q 324 972 222 972 l 963 972 l 963 847 l 893 778 l 392 778 q 315 701 315 778 l 315 271 q 392 194 315 194 l 963 194 l 963 0 l 324 0 m 485 1069 l 288 1069 l 461 1288 l 683 1288 l 857 1069 l 660 1069 l 575 1176 l 569 1176 l 485 1069 z "},"Ċ":{"ha":1025,"x_min":97,"x_max":963,"o":"m 324 0 q 160 63 222 0 q 97 226 97 125 l 97 746 q 160 910 97 849 q 324 972 222 972 l 963 972 l 963 847 l 893 778 l 392 778 q 315 701 315 778 l 315 271 q 392 194 315 194 l 963 194 l 963 0 l 324 0 m 675 1079 l 471 1079 l 471 1274 l 675 1274 l 675 1079 z "},"Ð":{"ha":1167,"x_min":11,"x_max":1069,"o":"m 843 972 q 1008 910 946 972 q 1069 746 1069 849 l 1069 226 q 1008 63 1069 125 q 843 0 946 0 l 129 0 l 129 401 l 11 401 l 11 572 l 129 572 l 129 972 l 843 972 m 851 704 q 775 781 851 781 l 347 781 l 347 572 l 574 572 l 574 401 l 347 401 l 347 192 l 775 192 q 851 268 851 192 l 851 704 z "},"Ď":{"ha":1153,"x_min":115,"x_max":1056,"o":"m 115 0 l 115 972 l 829 972 q 994 910 932 972 q 1056 746 1056 849 l 1056 226 q 994 63 1056 125 q 829 0 932 0 l 115 0 m 761 192 q 838 268 838 192 l 838 704 q 761 781 838 781 l 333 781 l 333 192 l 761 192 m 688 1069 l 465 1069 l 292 1288 l 489 1288 l 574 1181 l 579 1181 l 664 1288 l 861 1288 l 688 1069 z "},"Đ":{"ha":1167,"x_min":11,"x_max":1069,"o":"m 843 972 q 1008 910 946 972 q 1069 746 1069 849 l 1069 226 q 1008 63 1069 125 q 843 0 946 0 l 129 0 l 129 401 l 11 401 l 11 572 l 129 572 l 129 972 l 843 972 m 851 704 q 775 781 851 781 l 347 781 l 347 572 l 574 572 l 574 401 l 347 401 l 347 192 l 775 192 q 851 268 851 192 l 851 704 z "},"Ǳ":{"ha":2142,"x_min":115,"x_max":2086,"o":"m 115 0 l 115 972 l 829 972 q 994 910 932 972 q 1056 746 1056 849 l 1056 226 q 994 63 1056 125 q 829 0 932 0 l 115 0 m 761 192 q 838 268 838 192 l 838 704 q 761 781 838 781 l 333 781 l 333 192 l 761 192 m 2086 0 l 1188 0 l 1188 185 l 1767 768 l 1767 778 l 1271 778 l 1201 847 l 1201 972 l 2086 972 l 2086 788 l 1507 204 l 1507 194 l 2086 194 l 2086 0 z "},"Ǆ":{"ha":2142,"x_min":115,"x_max":2086,"o":"m 115 0 l 115 972 l 829 972 q 994 910 932 972 q 1056 746 1056 849 l 1056 226 q 994 63 1056 125 q 829 0 932 0 l 115 0 m 761 192 q 838 268 838 192 l 838 704 q 761 781 838 781 l 333 781 l 333 192 l 761 192 z "},"ǲ":{"ha":1931,"x_min":115,"x_max":1875,"o":"m 115 0 l 115 972 l 829 972 q 994 910 932 972 q 1056 746 1056 849 l 1056 226 q 994 63 1056 125 q 829 0 932 0 l 115 0 m 761 192 q 838 268 838 192 l 838 704 q 761 781 838 781 l 333 781 l 333 192 l 761 192 m 1875 0 l 1204 0 l 1204 163 l 1579 524 l 1579 532 l 1264 532 l 1208 590 l 1208 708 l 1875 708 l 1875 546 l 1500 185 l 1500 176 l 1875 176 l 1875 0 z "},"ǅ":{"ha":1931,"x_min":115,"x_max":1875,"o":"m 115 0 l 115 972 l 829 972 q 994 910 932 972 q 1056 746 1056 849 l 1056 226 q 994 63 1056 125 q 829 0 932 0 l 115 0 m 761 192 q 838 268 838 192 l 838 704 q 761 781 838 781 l 333 781 l 333 192 l 761 192 z "},"É":{"ha":1007,"x_min":115,"x_max":944,"o":"m 944 0 l 115 0 l 115 972 l 944 972 l 944 851 l 875 782 l 333 782 l 333 583 l 796 583 l 796 399 l 333 399 l 333 190 l 944 190 l 944 0 m 603 1069 l 408 1069 l 519 1288 l 769 1288 l 603 1069 z "},"Ĕ":{"ha":1007,"x_min":115,"x_max":944,"o":"m 944 0 l 115 0 l 115 972 l 944 972 l 944 851 l 875 782 l 333 782 l 333 583 l 796 583 l 796 399 l 333 399 l 333 190 l 944 190 l 944 0 m 383 1069 q 297 1104 332 1069 q 263 1190 263 1139 l 263 1288 l 436 1288 l 436 1243 q 475 1204 436 1204 l 592 1204 q 631 1243 631 1204 l 631 1288 l 804 1288 l 804 1190 q 769 1104 804 1139 q 683 1069 735 1069 l 383 1069 z "},"Ě":{"ha":1007,"x_min":115,"x_max":944,"o":"m 944 0 l 115 0 l 115 972 l 944 972 l 944 851 l 875 782 l 333 782 l 333 583 l 796 583 l 796 399 l 333 399 l 333 190 l 944 190 l 944 0 m 644 1069 l 422 1069 l 249 1288 l 446 1288 l 531 1181 l 536 1181 l 621 1288 l 818 1288 l 644 1069 z "},"Ê":{"ha":1007,"x_min":115,"x_max":944,"o":"m 944 0 l 115 0 l 115 972 l 944 972 l 944 851 l 875 782 l 333 782 l 333 583 l 796 583 l 796 399 l 333 399 l 333 190 l 944 190 l 944 0 m 446 1069 l 249 1069 l 422 1288 l 644 1288 l 818 1069 l 621 1069 l 536 1176 l 531 1176 l 446 1069 z "},"Ë":{"ha":1007,"x_min":115,"x_max":944,"o":"m 944 0 l 115 0 l 115 972 l 944 972 l 944 851 l 875 782 l 333 782 l 333 583 l 796 583 l 796 399 l 333 399 l 333 190 l 944 190 l 944 0 m 468 1079 l 269 1079 l 269 1274 l 468 1274 l 468 1079 m 797 1079 l 599 1079 l 599 1274 l 797 1274 l 797 1079 z "},"Ė":{"ha":1007,"x_min":115,"x_max":944,"o":"m 944 0 l 115 0 l 115 972 l 944 972 l 944 851 l 875 782 l 333 782 l 333 583 l 796 583 l 796 399 l 333 399 l 333 190 l 944 190 l 944 0 m 635 1079 l 431 1079 l 431 1274 l 635 1274 l 635 1079 z "},"È":{"ha":1007,"x_min":115,"x_max":944,"o":"m 944 0 l 115 0 l 115 972 l 944 972 l 944 851 l 875 782 l 333 782 l 333 583 l 796 583 l 796 399 l 333 399 l 333 190 l 944 190 l 944 0 m 658 1069 l 464 1069 l 297 1288 l 547 1288 l 658 1069 z "},"Ē":{"ha":1007,"x_min":115,"x_max":944,"o":"m 944 0 l 115 0 l 115 972 l 944 972 l 944 851 l 875 782 l 333 782 l 333 583 l 796 583 l 796 399 l 333 399 l 333 190 l 944 190 l 944 0 m 790 1101 l 276 1101 l 276 1254 l 790 1254 l 790 1101 z "},"Ę":{"ha":1007,"x_min":115,"x_max":944,"o":"m 875 782 l 333 782 l 333 583 l 796 583 l 796 399 l 333 399 l 333 190 l 944 190 l 944 0 q 833 -84 874 -44 q 792 -157 792 -124 q 832 -197 792 -197 l 944 -197 l 944 -319 l 788 -319 q 680 -285 718 -319 q 642 -192 642 -250 q 688 -87 642 -137 q 796 0 733 -36 l 115 0 l 115 972 l 944 972 l 944 851 l 875 782 z "},"Ẽ":{"ha":1007,"x_min":115,"x_max":944,"o":"m 944 0 l 115 0 l 115 972 l 944 972 l 944 851 l 875 782 l 333 782 l 333 583 l 796 583 l 796 399 l 333 399 l 333 190 l 944 190 l 944 0 m 676 1063 q 594 1076 631 1063 q 515 1113 557 1089 q 474 1134 489 1128 q 444 1140 458 1140 q 426 1121 426 1140 l 426 1069 l 285 1069 l 285 1192 q 312 1263 285 1238 q 389 1289 339 1289 q 472 1275 435 1289 q 550 1238 510 1261 q 592 1216 576 1222 q 621 1210 607 1210 q 639 1229 639 1210 l 639 1282 l 781 1282 l 781 1161 q 753 1089 781 1115 q 676 1063 726 1063 z "},"Ə":{"ha":1157,"x_min":97,"x_max":1060,"o":"m 324 -14 q 160 49 222 -14 q 97 213 97 111 l 97 572 l 843 572 l 843 706 q 767 782 843 782 l 260 782 l 190 851 l 190 972 l 833 972 q 998 910 936 972 q 1060 746 1060 849 l 1060 213 q 998 49 1060 111 q 833 -14 936 -14 l 324 -14 m 767 178 q 843 254 843 178 l 843 399 l 315 399 l 315 254 q 392 178 315 178 l 767 178 z "},"Ǵ":{"ha":1125,"x_min":97,"x_max":1028,"o":"m 324 0 q 160 63 222 0 q 97 226 97 125 l 97 746 q 160 910 97 849 q 324 972 222 972 l 968 972 l 968 847 l 899 778 l 392 778 q 315 701 315 778 l 315 268 q 392 192 315 192 l 810 192 l 810 542 l 1028 542 l 1028 0 l 324 0 m 650 1069 l 456 1069 l 567 1288 l 817 1288 l 650 1069 z "},"Ğ":{"ha":1125,"x_min":97,"x_max":1028,"o":"m 324 0 q 160 63 222 0 q 97 226 97 125 l 97 746 q 160 910 97 849 q 324 972 222 972 l 968 972 l 968 847 l 899 778 l 392 778 q 315 701 315 778 l 315 268 q 392 192 315 192 l 810 192 l 810 542 l 1028 542 l 1028 0 l 324 0 m 431 1069 q 344 1104 379 1069 q 310 1190 310 1139 l 310 1288 l 483 1288 l 483 1243 q 522 1204 483 1204 l 639 1204 q 678 1243 678 1204 l 678 1288 l 851 1288 l 851 1190 q 817 1104 851 1139 q 731 1069 782 1069 l 431 1069 z "},"Ĝ":{"ha":1125,"x_min":97,"x_max":1028,"o":"m 324 0 q 160 63 222 0 q 97 226 97 125 l 97 746 q 160 910 97 849 q 324 972 222 972 l 968 972 l 968 847 l 899 778 l 392 778 q 315 701 315 778 l 315 268 q 392 192 315 192 l 810 192 l 810 542 l 1028 542 l 1028 0 l 324 0 m 493 1069 l 296 1069 l 469 1288 l 692 1288 l 865 1069 l 668 1069 l 583 1176 l 578 1176 l 493 1069 z "},"Ģ":{"ha":1125,"x_min":97,"x_max":1028,"o":"m 324 0 q 160 63 222 0 q 97 226 97 125 l 97 746 q 160 910 97 849 q 324 972 222 972 l 968 972 l 968 847 l 899 778 l 392 778 q 315 701 315 778 l 315 268 q 392 192 315 192 l 810 192 l 810 542 l 1028 542 l 1028 0 l 324 0 m 586 -393 l 476 -393 l 476 -87 l 671 -87 l 671 -236 l 586 -393 z "},"Ġ":{"ha":1125,"x_min":97,"x_max":1028,"o":"m 324 0 q 160 63 222 0 q 97 226 97 125 l 97 746 q 160 910 97 849 q 324 972 222 972 l 968 972 l 968 847 l 899 778 l 392 778 q 315 701 315 778 l 315 268 q 392 192 315 192 l 810 192 l 810 542 l 1028 542 l 1028 0 l 324 0 m 682 1079 l 478 1079 l 478 1274 l 682 1274 l 682 1079 z "},"Ǧ":{"ha":1125,"x_min":97,"x_max":1028,"o":"m 324 0 q 160 63 222 0 q 97 226 97 125 l 97 746 q 160 910 97 849 q 324 972 222 972 l 968 972 l 968 847 l 899 778 l 392 778 q 315 701 315 778 l 315 268 q 392 192 315 192 l 810 192 l 810 542 l 1028 542 l 1028 0 l 324 0 m 692 1069 l 469 1069 l 296 1288 l 493 1288 l 578 1181 l 583 1181 l 668 1288 l 865 1288 l 692 1069 z "},"Ħ":{"ha":1204,"x_min":11,"x_max":1192,"o":"m 1074 846 l 1192 846 l 1192 682 l 1074 682 l 1074 0 l 857 0 l 857 393 l 347 393 l 347 0 l 129 0 l 129 682 l 11 682 l 11 846 l 129 846 l 129 972 l 347 972 l 347 846 l 857 846 l 857 972 l 1074 972 l 1074 846 m 347 593 l 857 593 l 857 682 l 347 682 l 347 593 z "},"Ĥ":{"ha":1176,"x_min":115,"x_max":1060,"o":"m 333 0 l 115 0 l 115 972 l 333 972 l 333 593 l 843 593 l 843 972 l 1060 972 l 1060 0 l 843 0 l 843 393 l 333 393 l 333 0 m 500 1069 l 303 1069 l 476 1288 l 699 1288 l 872 1069 l 675 1069 l 590 1176 l 585 1176 l 500 1069 z "},"Ȟ":{"ha":1176,"x_min":115,"x_max":1060,"o":"m 333 0 l 115 0 l 115 972 l 333 972 l 333 593 l 843 593 l 843 972 l 1060 972 l 1060 0 l 843 0 l 843 393 l 333 393 l 333 0 m 699 1069 l 476 1069 l 303 1288 l 500 1288 l 585 1181 l 590 1181 l 675 1288 l 872 1288 l 699 1069 z "},"Ḧ":{"ha":1176,"x_min":115,"x_max":1060,"o":"m 333 0 l 115 0 l 115 972 l 333 972 l 333 593 l 843 593 l 843 972 l 1060 972 l 1060 0 l 843 0 l 843 393 l 333 393 l 333 0 m 522 1079 l 324 1079 l 324 1274 l 522 1274 l 522 1079 m 851 1079 l 653 1079 l 653 1274 l 851 1274 l 851 1079 z "},"Ḥ":{"ha":1176,"x_min":115,"x_max":1060,"o":"m 333 0 l 115 0 l 115 972 l 333 972 l 333 593 l 843 593 l 843 972 l 1060 972 l 1060 0 l 843 0 l 843 393 l 333 393 l 333 0 m 694 -308 l 481 -308 l 481 -104 l 694 -104 l 694 -308 z "},"Í":{"ha":449,"x_min":100,"x_max":461,"o":"m 333 0 l 115 0 l 115 972 l 333 972 l 333 0 m 294 1069 l 100 1069 l 211 1288 l 461 1288 l 294 1069 z "},"Ĭ":{"ha":449,"x_min":-46,"x_max":496,"o":"m 333 0 l 115 0 l 115 972 l 333 972 l 333 0 m 75 1069 q -11 1104 24 1069 q -46 1190 -46 1139 l -46 1288 l 128 1288 l 128 1243 q 167 1204 128 1204 l 283 1204 q 322 1243 322 1204 l 322 1288 l 496 1288 l 496 1190 q 461 1104 496 1139 q 375 1069 426 1069 l 75 1069 z "},"Î":{"ha":449,"x_min":-60,"x_max":510,"o":"m 333 0 l 115 0 l 115 972 l 333 972 l 333 0 m 138 1069 l -60 1069 l 114 1288 l 336 1288 l 510 1069 l 313 1069 l 228 1176 l 222 1176 l 138 1069 z "},"Ï":{"ha":449,"x_min":-39,"x_max":489,"o":"m 333 0 l 115 0 l 115 972 l 333 972 l 333 0 m 160 1079 l -39 1079 l -39 1274 l 160 1274 l 160 1079 m 489 1079 l 290 1079 l 290 1274 l 489 1274 l 489 1079 z "},"İ":{"ha":449,"x_min":115,"x_max":333,"o":"m 333 0 l 115 0 l 115 972 l 333 972 l 333 0 m 326 1079 l 122 1079 l 122 1274 l 326 1274 l 326 1079 z "},"Ì":{"ha":449,"x_min":-11,"x_max":350,"o":"m 333 0 l 115 0 l 115 972 l 333 972 l 333 0 m 350 1069 l 156 1069 l -11 1288 l 239 1288 l 350 1069 z "},"Ī":{"ha":449,"x_min":-32,"x_max":482,"o":"m 333 0 l 115 0 l 115 972 l 333 972 l 333 0 m 482 1101 l -32 1101 l -32 1254 l 482 1254 l 482 1101 z "},"Į":{"ha":449,"x_min":31,"x_max":333,"o":"m 333 0 q 219 -86 258 -49 q 181 -157 181 -124 q 221 -197 181 -197 l 333 -197 l 333 -319 l 176 -319 q 69 -285 107 -319 q 31 -192 31 -250 q 76 -87 31 -137 q 185 0 122 -36 l 115 0 l 115 972 l 333 972 l 333 0 z "},"Ĩ":{"ha":449,"x_min":-22,"x_max":474,"o":"m 333 0 l 115 0 l 115 972 l 333 972 l 333 0 m 369 1063 q 287 1076 324 1063 q 208 1113 250 1089 q 167 1134 182 1128 q 138 1140 151 1140 q 119 1121 119 1140 l 119 1069 l -22 1069 l -22 1192 q 5 1263 -22 1238 q 82 1289 32 1289 q 165 1275 128 1289 q 243 1238 203 1261 q 285 1216 269 1222 q 314 1210 300 1210 q 332 1229 332 1210 l 332 1282 l 474 1282 l 474 1161 q 447 1089 474 1115 q 369 1063 419 1063 z "},"Ĳ":{"ha":1247,"x_min":115,"x_max":1139,"o":"m 333 0 l 115 0 l 115 972 l 333 972 l 333 0 m 483 -14 l 483 181 l 844 181 q 921 257 921 181 l 921 972 l 1139 972 l 1139 213 q 1076 48 1139 110 q 911 -14 1014 -14 l 483 -14 z "},"":{"ha":1247,"x_min":100,"x_max":1267,"o":"m 333 0 l 115 0 l 115 972 l 333 972 l 333 0 m 294 1069 l 100 1069 l 211 1288 l 461 1288 l 294 1069 m 483 -14 l 483 181 l 844 181 q 921 257 921 181 l 921 972 l 1139 972 l 1139 213 q 1076 48 1139 110 q 911 -14 1014 -14 l 483 -14 m 1100 1069 l 906 1069 l 1017 1288 l 1267 1288 l 1100 1069 z "},"Ĵ":{"ha":799,"x_min":35,"x_max":867,"o":"m 35 -14 l 35 181 l 396 181 q 472 257 472 181 l 472 972 l 690 972 l 690 213 q 628 48 690 110 q 463 -14 565 -14 l 35 -14 m 494 1069 l 297 1069 l 471 1288 l 693 1288 l 867 1069 l 669 1069 l 585 1176 l 579 1176 l 494 1069 z "},"Ķ":{"ha":1111,"x_min":115,"x_max":1063,"o":"m 333 0 l 115 0 l 115 972 l 333 972 l 333 593 l 588 593 l 854 972 l 1046 972 l 1046 864 l 775 510 l 1063 108 l 1063 0 l 868 0 l 590 393 l 333 393 l 333 0 m 586 -393 l 476 -393 l 476 -87 l 671 -87 l 671 -236 l 586 -393 z "},"Ḱ":{"ha":1111,"x_min":115,"x_max":1063,"o":"m 333 0 l 115 0 l 115 972 l 333 972 l 333 593 l 588 593 l 854 972 l 1046 972 l 1046 864 l 775 510 l 1063 108 l 1063 0 l 868 0 l 590 393 l 333 393 l 333 0 m 649 1069 l 454 1069 l 565 1288 l 815 1288 l 649 1069 z "},"Ĺ":{"ha":956,"x_min":100,"x_max":935,"o":"m 935 0 l 115 0 l 115 972 l 333 972 l 333 199 l 935 199 l 935 0 m 294 1069 l 100 1069 l 211 1288 l 461 1288 l 294 1069 z "},"Ľ":{"ha":956,"x_min":115,"x_max":935,"o":"m 935 0 l 115 0 l 115 972 l 333 972 l 333 199 l 935 199 l 935 0 m 550 694 l 440 694 l 440 972 l 635 972 l 635 861 l 550 694 z "},"Ļ":{"ha":956,"x_min":115,"x_max":935,"o":"m 935 0 l 115 0 l 115 972 l 333 972 l 333 199 l 935 199 l 935 0 m 538 -393 l 428 -393 l 428 -87 l 622 -87 l 622 -236 l 538 -393 z "},"Ŀ":{"ha":956,"x_min":115,"x_max":935,"o":"m 935 0 l 115 0 l 115 972 l 333 972 l 333 199 l 935 199 l 935 0 m 808 424 l 594 424 l 594 628 l 808 628 l 808 424 z "},"Ł":{"ha":969,"x_min":39,"x_max":949,"o":"m 347 469 l 347 199 l 949 199 l 949 0 l 129 0 l 129 335 l 39 279 l 39 467 l 129 522 l 129 972 l 347 972 l 347 657 l 592 808 l 592 619 l 347 469 z "},"Ǉ":{"ha":1754,"x_min":115,"x_max":1646,"o":"m 935 0 l 115 0 l 115 972 l 333 972 l 333 199 l 935 199 l 935 0 m 990 -14 l 990 181 l 1351 181 q 1428 257 1428 181 l 1428 972 l 1646 972 l 1646 213 q 1583 48 1646 110 q 1418 -14 1521 -14 l 990 -14 z "},"Ḷ":{"ha":956,"x_min":115,"x_max":935,"o":"m 935 0 l 115 0 l 115 972 l 333 972 l 333 199 l 935 199 l 935 0 m 632 -308 l 418 -308 l 418 -104 l 632 -104 l 632 -308 z "},"ǈ":{"ha":1358,"x_min":115,"x_max":1267,"o":"m 935 0 l 115 0 l 115 972 l 333 972 l 333 199 l 935 199 l 935 0 m 879 -236 l 879 -56 l 994 -56 q 1063 11 1063 -56 l 1063 708 l 1265 708 l 1265 -42 q 1210 -181 1265 -125 q 1071 -236 1154 -236 l 879 -236 m 1267 829 l 1063 829 l 1063 1024 l 1267 1024 l 1267 829 z "},"Ḿ":{"ha":1393,"x_min":65,"x_max":1329,"o":"m 282 0 l 65 0 l 65 108 l 171 972 l 414 972 l 692 403 l 701 403 l 979 972 l 1222 972 l 1329 108 l 1329 0 l 1111 0 l 1049 656 l 1040 656 l 788 139 l 607 139 l 354 656 l 344 656 l 282 0 m 793 1069 l 599 1069 l 710 1288 l 960 1288 l 793 1069 z "},"Ń":{"ha":1192,"x_min":115,"x_max":1076,"o":"m 333 0 l 115 0 l 115 972 l 347 972 l 865 315 l 875 315 l 858 500 l 858 972 l 1076 972 l 1076 0 l 844 0 l 326 657 l 317 657 l 333 472 l 333 0 m 667 1069 l 472 1069 l 583 1288 l 833 1288 l 667 1069 z "},"Ň":{"ha":1192,"x_min":115,"x_max":1076,"o":"m 333 0 l 115 0 l 115 972 l 347 972 l 865 315 l 875 315 l 858 500 l 858 972 l 1076 972 l 1076 0 l 844 0 l 326 657 l 317 657 l 333 472 l 333 0 m 708 1069 l 486 1069 l 313 1288 l 510 1288 l 594 1181 l 600 1181 l 685 1288 l 882 1288 l 708 1069 z "},"Ņ":{"ha":1192,"x_min":115,"x_max":1076,"o":"m 333 0 l 115 0 l 115 972 l 347 972 l 865 315 l 875 315 l 858 500 l 858 972 l 1076 972 l 1076 0 l 844 0 l 326 657 l 317 657 l 333 472 l 333 0 m 608 -393 l 499 -393 l 499 -87 l 693 -87 l 693 -236 l 608 -393 z "},"Ŋ":{"ha":1192,"x_min":115,"x_max":1076,"o":"m 426 -246 l 426 -67 l 782 -67 q 839 -50 819 -67 q 858 -10 858 -33 l 858 0 l 326 657 l 317 657 l 333 472 l 333 0 l 115 0 l 115 972 l 347 972 l 865 325 l 875 325 l 858 511 l 858 972 l 1076 972 l 1076 -18 q 1015 -183 1076 -121 q 850 -246 953 -246 l 426 -246 z "},"Ñ":{"ha":1192,"x_min":115,"x_max":1076,"o":"m 333 0 l 115 0 l 115 972 l 347 972 l 865 315 l 875 315 l 858 500 l 858 972 l 1076 972 l 1076 0 l 844 0 l 326 657 l 317 657 l 333 472 l 333 0 m 740 1063 q 658 1076 694 1063 q 579 1113 621 1089 q 538 1134 553 1128 q 508 1140 522 1140 q 490 1121 490 1140 l 490 1069 l 349 1069 l 349 1192 q 376 1263 349 1238 q 453 1289 403 1289 q 536 1275 499 1289 q 614 1238 574 1261 q 656 1216 640 1222 q 685 1210 671 1210 q 703 1229 703 1210 l 703 1282 l 844 1282 l 844 1161 q 817 1089 844 1115 q 740 1063 790 1063 z "},"Ǌ":{"ha":1990,"x_min":115,"x_max":1882,"o":"m 333 0 l 115 0 l 115 972 l 347 972 l 865 315 l 875 315 l 858 500 l 858 972 l 1076 972 l 1076 0 l 844 0 l 326 657 l 317 657 l 333 472 l 333 0 m 1226 -14 l 1226 181 l 1588 181 q 1664 257 1664 181 l 1664 972 l 1882 972 l 1882 213 q 1819 48 1882 110 q 1654 -14 1757 -14 l 1226 -14 z "},"ǋ":{"ha":1594,"x_min":115,"x_max":1503,"o":"m 333 0 l 115 0 l 115 972 l 347 972 l 865 315 l 875 315 l 858 500 l 858 972 l 1076 972 l 1076 0 l 844 0 l 326 657 l 317 657 l 333 472 l 333 0 m 1115 -236 l 1115 -56 l 1231 -56 q 1299 11 1299 -56 l 1299 708 l 1501 708 l 1501 -42 q 1446 -181 1501 -125 q 1307 -236 1390 -236 l 1115 -236 m 1503 829 l 1299 829 l 1299 1024 l 1503 1024 l 1503 829 z "},"Ó":{"ha":1157,"x_min":97,"x_max":1060,"o":"m 324 -14 q 160 49 222 -14 q 97 213 97 111 l 97 760 q 160 924 97 863 q 324 986 222 986 l 833 986 q 998 924 936 986 q 1060 760 1060 863 l 1060 213 q 998 49 1060 111 q 833 -14 936 -14 l 324 -14 m 767 178 q 843 254 843 178 l 843 718 q 767 794 843 794 l 392 794 q 315 718 315 794 l 315 254 q 392 178 315 178 l 767 178 m 649 1069 l 454 1069 l 565 1288 l 815 1288 l 649 1069 z "},"Ŏ":{"ha":1157,"x_min":97,"x_max":1060,"o":"m 324 -14 q 160 49 222 -14 q 97 213 97 111 l 97 760 q 160 924 97 863 q 324 986 222 986 l 833 986 q 998 924 936 986 q 1060 760 1060 863 l 1060 213 q 998 49 1060 111 q 833 -14 936 -14 l 324 -14 m 767 178 q 843 254 843 178 l 843 718 q 767 794 843 794 l 392 794 q 315 718 315 794 l 315 254 q 392 178 315 178 l 767 178 m 429 1069 q 343 1104 378 1069 q 308 1190 308 1139 l 308 1288 l 482 1288 l 482 1243 q 521 1204 482 1204 l 638 1204 q 676 1243 676 1204 l 676 1288 l 850 1288 l 850 1190 q 815 1104 850 1139 q 729 1069 781 1069 l 429 1069 z "},"Ô":{"ha":1157,"x_min":97,"x_max":1060,"o":"m 324 -14 q 160 49 222 -14 q 97 213 97 111 l 97 760 q 160 924 97 863 q 324 986 222 986 l 833 986 q 998 924 936 986 q 1060 760 1060 863 l 1060 213 q 998 49 1060 111 q 833 -14 936 -14 l 324 -14 m 767 178 q 843 254 843 178 l 843 718 q 767 794 843 794 l 392 794 q 315 718 315 794 l 315 254 q 392 178 315 178 l 767 178 m 492 1069 l 294 1069 l 468 1288 l 690 1288 l 864 1069 l 667 1069 l 582 1176 l 576 1176 l 492 1069 z "},"Ö":{"ha":1157,"x_min":97,"x_max":1060,"o":"m 324 -14 q 160 49 222 -14 q 97 213 97 111 l 97 760 q 160 924 97 863 q 324 986 222 986 l 833 986 q 998 924 936 986 q 1060 760 1060 863 l 1060 213 q 998 49 1060 111 q 833 -14 936 -14 l 324 -14 m 767 178 q 843 254 843 178 l 843 718 q 767 794 843 794 l 392 794 q 315 718 315 794 l 315 254 q 392 178 315 178 l 767 178 m 514 1079 l 315 1079 l 315 1274 l 514 1274 l 514 1079 m 843 1079 l 644 1079 l 644 1274 l 843 1274 l 843 1079 z "},"Ò":{"ha":1157,"x_min":97,"x_max":1060,"o":"m 324 -14 q 160 49 222 -14 q 97 213 97 111 l 97 760 q 160 924 97 863 q 324 986 222 986 l 833 986 q 998 924 936 986 q 1060 760 1060 863 l 1060 213 q 998 49 1060 111 q 833 -14 936 -14 l 324 -14 m 767 178 q 843 254 843 178 l 843 718 q 767 794 843 794 l 392 794 q 315 718 315 794 l 315 254 q 392 178 315 178 l 767 178 m 704 1069 l 510 1069 l 343 1288 l 593 1288 l 704 1069 z "},"Ő":{"ha":1157,"x_min":97,"x_max":1060,"o":"m 324 -14 q 160 49 222 -14 q 97 213 97 111 l 97 760 q 160 924 97 863 q 324 986 222 986 l 833 986 q 998 924 936 986 q 1060 760 1060 863 l 1060 213 q 998 49 1060 111 q 833 -14 936 -14 l 324 -14 m 767 178 q 843 254 843 178 l 843 718 q 767 794 843 794 l 392 794 q 315 718 315 794 l 315 254 q 392 178 315 178 l 767 178 m 497 1069 l 331 1069 l 442 1288 l 646 1288 l 497 1069 m 792 1069 l 625 1069 l 736 1288 l 939 1288 l 792 1069 z "},"Ō":{"ha":1157,"x_min":97,"x_max":1060,"o":"m 324 -14 q 160 49 222 -14 q 97 213 97 111 l 97 760 q 160 924 97 863 q 324 986 222 986 l 833 986 q 998 924 936 986 q 1060 760 1060 863 l 1060 213 q 998 49 1060 111 q 833 -14 936 -14 l 324 -14 m 767 178 q 843 254 843 178 l 843 718 q 767 794 843 794 l 392 794 q 315 718 315 794 l 315 254 q 392 178 315 178 l 767 178 m 836 1101 l 322 1101 l 322 1254 l 836 1254 l 836 1101 z "},"Ø":{"ha":1157,"x_min":97,"x_max":1060,"o":"m 833 986 q 998 924 936 986 q 1060 760 1060 863 l 1060 213 q 998 49 1060 111 q 833 -14 936 -14 l 324 -14 q 160 49 222 -14 q 97 213 97 111 l 97 760 q 160 924 97 863 q 324 986 222 986 l 833 986 m 315 254 q 318 231 315 244 l 756 794 l 392 794 q 315 718 315 794 l 315 254 m 843 718 q 840 742 843 728 l 401 178 l 767 178 q 843 254 843 178 l 843 718 z "},"Ǿ":{"ha":1157,"x_min":97,"x_max":1060,"o":"m 833 986 q 998 924 936 986 q 1060 760 1060 863 l 1060 213 q 998 49 1060 111 q 833 -14 936 -14 l 324 -14 q 160 49 222 -14 q 97 213 97 111 l 97 760 q 160 924 97 863 q 324 986 222 986 l 833 986 m 315 254 q 318 231 315 244 l 756 794 l 392 794 q 315 718 315 794 l 315 254 m 843 718 q 840 742 843 728 l 401 178 l 767 178 q 843 254 843 178 l 843 718 m 649 1069 l 454 1069 l 565 1288 l 815 1288 l 649 1069 z "},"Õ":{"ha":1157,"x_min":97,"x_max":1060,"o":"m 324 -14 q 160 49 222 -14 q 97 213 97 111 l 97 760 q 160 924 97 863 q 324 986 222 986 l 833 986 q 998 924 936 986 q 1060 760 1060 863 l 1060 213 q 998 49 1060 111 q 833 -14 936 -14 l 324 -14 m 767 178 q 843 254 843 178 l 843 718 q 767 794 843 794 l 392 794 q 315 718 315 794 l 315 254 q 392 178 315 178 l 767 178 m 722 1063 q 640 1076 676 1063 q 561 1113 603 1089 q 519 1134 535 1128 q 490 1140 504 1140 q 472 1121 472 1140 l 472 1069 l 331 1069 l 331 1192 q 358 1263 331 1238 q 435 1289 385 1289 q 518 1275 481 1289 q 596 1238 556 1261 q 638 1216 622 1222 q 667 1210 653 1210 q 685 1229 685 1210 l 685 1282 l 826 1282 l 826 1161 q 799 1089 826 1115 q 722 1063 772 1063 z "},"Œ":{"ha":1615,"x_min":97,"x_max":1553,"o":"m 324 0 q 160 63 222 0 q 97 226 97 125 l 97 746 q 160 910 97 849 q 324 972 222 972 l 1553 972 l 1553 851 l 1483 782 l 969 782 l 969 583 l 1406 583 l 1406 399 l 969 399 l 969 190 l 1553 190 l 1553 0 l 324 0 m 753 190 l 753 782 l 392 782 q 315 706 315 782 l 315 267 q 392 190 315 190 l 753 190 z "},"Ṕ":{"ha":1111,"x_min":115,"x_max":1028,"o":"m 115 0 l 115 972 l 801 972 q 966 910 904 972 q 1028 746 1028 849 l 1028 518 q 966 354 1028 417 q 801 292 904 292 l 333 292 l 333 0 l 115 0 m 733 482 q 810 558 810 482 l 810 706 q 733 782 810 782 l 333 782 l 333 482 l 733 482 m 640 1069 l 446 1069 l 557 1288 l 807 1288 l 640 1069 z "},"Þ":{"ha":1185,"x_min":115,"x_max":1101,"o":"m 115 0 l 115 972 l 333 972 l 333 782 l 875 782 q 1040 720 978 782 q 1101 556 1101 658 l 1101 413 q 1040 247 1101 310 q 875 185 978 185 l 333 185 l 333 0 l 115 0 m 808 371 q 885 447 885 371 l 885 521 q 808 597 885 597 l 333 597 l 333 371 l 808 371 z "},"Ŕ":{"ha":1135,"x_min":115,"x_max":1053,"o":"m 1053 108 l 1053 0 l 854 0 l 581 347 l 333 347 l 333 0 l 115 0 l 115 972 l 806 972 q 970 910 908 972 q 1032 746 1032 849 l 1032 574 q 976 424 1032 479 q 842 353 921 369 l 1053 108 m 333 538 l 739 538 q 815 614 815 538 l 815 706 q 739 782 815 782 l 333 782 l 333 538 m 636 1069 l 442 1069 l 553 1288 l 803 1288 l 636 1069 z "},"Ř":{"ha":1135,"x_min":115,"x_max":1053,"o":"m 1053 108 l 1053 0 l 854 0 l 581 347 l 333 347 l 333 0 l 115 0 l 115 972 l 806 972 q 970 910 908 972 q 1032 746 1032 849 l 1032 574 q 976 424 1032 479 q 842 353 921 369 l 1053 108 m 333 538 l 739 538 q 815 614 815 538 l 815 706 q 739 782 815 782 l 333 782 l 333 538 m 678 1069 l 456 1069 l 282 1288 l 479 1288 l 564 1181 l 569 1181 l 654 1288 l 851 1288 l 678 1069 z "},"Ŗ":{"ha":1135,"x_min":115,"x_max":1053,"o":"m 1053 108 l 1053 0 l 854 0 l 581 347 l 333 347 l 333 0 l 115 0 l 115 972 l 806 972 q 970 910 908 972 q 1032 746 1032 849 l 1032 574 q 976 424 1032 479 q 842 353 921 369 l 1053 108 m 333 538 l 739 538 q 815 614 815 538 l 815 706 q 739 782 815 782 l 333 782 l 333 538 m 579 -393 l 469 -393 l 469 -87 l 664 -87 l 664 -236 l 579 -393 z "},"Ś":{"ha":1049,"x_min":76,"x_max":983,"o":"m 76 0 l 76 192 l 685 192 q 761 268 761 192 l 761 288 q 743 339 761 319 q 690 364 725 358 l 294 424 q 133 497 189 439 q 76 649 76 556 l 76 746 q 139 910 76 849 q 303 972 201 972 l 956 972 l 956 850 l 886 781 l 375 781 q 299 704 299 781 l 299 689 q 317 638 299 658 q 369 613 336 618 l 767 553 q 928 481 872 538 q 983 329 983 424 l 983 226 q 922 63 983 125 q 757 0 860 0 l 76 0 m 600 1069 l 406 1069 l 517 1288 l 767 1288 l 600 1069 z "},"Š":{"ha":1049,"x_min":76,"x_max":983,"o":"m 76 0 l 76 192 l 685 192 q 761 268 761 192 l 761 288 q 743 339 761 319 q 690 364 725 358 l 294 424 q 133 497 189 439 q 76 649 76 556 l 76 746 q 139 910 76 849 q 303 972 201 972 l 956 972 l 956 850 l 886 781 l 375 781 q 299 704 299 781 l 299 689 q 317 638 299 658 q 369 613 336 618 l 767 553 q 928 481 872 538 q 983 329 983 424 l 983 226 q 922 63 983 125 q 757 0 860 0 l 76 0 m 642 1069 l 419 1069 l 246 1288 l 443 1288 l 528 1181 l 533 1181 l 618 1288 l 815 1288 l 642 1069 z "},"Ş":{"ha":1049,"x_min":76,"x_max":983,"o":"m 767 553 q 928 481 872 538 q 983 329 983 424 l 983 226 q 922 63 983 125 q 757 0 860 0 l 554 0 l 540 -56 l 590 -56 q 677 -87 646 -56 q 708 -174 708 -119 l 708 -215 q 677 -301 708 -269 q 590 -333 646 -333 l 371 -333 l 371 -225 l 542 -225 q 564 -218 556 -225 q 572 -200 572 -211 l 572 -189 q 564 -171 572 -178 q 542 -164 556 -164 l 429 -164 l 385 -122 l 414 0 l 76 0 l 76 192 l 685 192 q 761 268 761 192 l 761 288 q 743 339 761 319 q 690 364 725 358 l 294 424 q 133 497 189 439 q 76 649 76 556 l 76 746 q 139 910 76 849 q 303 972 201 972 l 956 972 l 956 850 l 886 781 l 375 781 q 299 704 299 781 l 299 689 q 317 638 299 658 q 369 613 336 618 l 767 553 z "},"Ŝ":{"ha":1049,"x_min":76,"x_max":983,"o":"m 76 0 l 76 192 l 685 192 q 761 268 761 192 l 761 288 q 743 339 761 319 q 690 364 725 358 l 294 424 q 133 497 189 439 q 76 649 76 556 l 76 746 q 139 910 76 849 q 303 972 201 972 l 956 972 l 956 850 l 886 781 l 375 781 q 299 704 299 781 l 299 689 q 317 638 299 658 q 369 613 336 618 l 767 553 q 928 481 872 538 q 983 329 983 424 l 983 226 q 922 63 983 125 q 757 0 860 0 l 76 0 m 443 1069 l 246 1069 l 419 1288 l 642 1288 l 815 1069 l 618 1069 l 533 1176 l 528 1176 l 443 1069 z "},"Ș":{"ha":1049,"x_min":76,"x_max":983,"o":"m 76 0 l 76 192 l 685 192 q 761 268 761 192 l 761 288 q 743 339 761 319 q 690 364 725 358 l 294 424 q 133 497 189 439 q 76 649 76 556 l 76 746 q 139 910 76 849 q 303 972 201 972 l 956 972 l 956 850 l 886 781 l 375 781 q 299 704 299 781 l 299 689 q 317 638 299 658 q 369 613 336 618 l 767 553 q 928 481 872 538 q 983 329 983 424 l 983 226 q 922 63 983 125 q 757 0 860 0 l 76 0 m 517 -393 l 407 -393 l 407 -87 l 601 -87 l 601 -236 l 517 -393 z "},"ẞ":{"ha":1160,"x_min":108,"x_max":1076,"o":"m 857 569 q 1016 510 956 569 q 1076 351 1076 450 l 1076 218 q 1017 60 1076 121 q 858 0 957 0 l 558 0 l 558 190 l 782 190 q 858 267 858 190 l 858 326 q 782 403 858 403 l 535 403 l 535 556 l 767 774 l 767 782 l 404 782 q 326 706 326 782 l 326 0 l 108 0 l 108 754 q 169 913 108 853 q 328 972 229 972 l 1035 972 l 1035 792 l 808 579 l 808 569 l 857 569 z "},"Ŧ":{"ha":1000,"x_min":28,"x_max":972,"o":"m 28 778 l 28 972 l 972 972 l 972 847 l 903 778 l 608 778 l 608 549 l 867 549 l 867 382 l 608 382 l 608 0 l 392 0 l 392 382 l 135 382 l 135 549 l 392 549 l 392 778 l 28 778 z "},"Ť":{"ha":1000,"x_min":28,"x_max":972,"o":"m 608 0 l 392 0 l 392 778 l 28 778 l 28 972 l 972 972 l 972 847 l 903 778 l 608 778 l 608 0 m 611 1069 l 389 1069 l 215 1288 l 413 1288 l 497 1181 l 503 1181 l 588 1288 l 785 1288 l 611 1069 z "},"Ţ":{"ha":1000,"x_min":28,"x_max":972,"o":"m 28 972 l 972 972 l 972 847 l 903 778 l 608 778 l 608 0 l 550 0 l 536 -56 l 586 -56 q 673 -87 642 -56 q 704 -174 704 -119 l 704 -215 q 673 -301 704 -269 q 586 -333 642 -333 l 367 -333 l 367 -225 l 538 -225 q 560 -218 551 -225 q 568 -200 568 -211 l 568 -189 q 560 -171 568 -178 q 538 -164 551 -164 l 425 -164 l 381 -122 l 410 0 l 392 0 l 392 778 l 28 778 l 28 972 z "},"Ț":{"ha":1000,"x_min":28,"x_max":972,"o":"m 608 0 l 392 0 l 392 778 l 28 778 l 28 972 l 972 972 l 972 847 l 903 778 l 608 778 l 608 0 m 513 -393 l 403 -393 l 403 -87 l 597 -87 l 597 -236 l 513 -393 z "},"Ú":{"ha":1171,"x_min":108,"x_max":1063,"o":"m 336 -14 q 171 48 233 -14 q 108 213 108 110 l 108 972 l 326 972 l 326 254 q 403 178 326 178 l 768 178 q 844 254 844 178 l 844 972 l 1063 972 l 1063 213 q 1001 49 1063 111 q 836 -14 939 -14 l 336 -14 m 656 1069 l 461 1069 l 572 1288 l 822 1288 l 656 1069 z "},"Ʉ":{"ha":1199,"x_min":4,"x_max":1194,"o":"m 1194 639 l 1194 472 l 1076 472 l 1076 213 q 1015 49 1076 111 q 850 -14 953 -14 l 350 -14 q 185 48 247 -14 q 122 213 122 110 l 122 472 l 4 472 l 4 639 l 122 639 l 122 972 l 340 972 l 340 639 l 858 639 l 858 972 l 1076 972 l 1076 639 l 1194 639 m 858 472 l 340 472 l 340 254 q 417 178 340 178 l 782 178 q 858 254 858 178 l 858 472 z "},"Ŭ":{"ha":1171,"x_min":108,"x_max":1063,"o":"m 336 -14 q 171 48 233 -14 q 108 213 108 110 l 108 972 l 326 972 l 326 254 q 403 178 326 178 l 768 178 q 844 254 844 178 l 844 972 l 1063 972 l 1063 213 q 1001 49 1063 111 q 836 -14 939 -14 l 336 -14 m 436 1069 q 350 1104 385 1069 q 315 1190 315 1139 l 315 1288 l 489 1288 l 489 1243 q 528 1204 489 1204 l 644 1204 q 683 1243 683 1204 l 683 1288 l 857 1288 l 857 1190 q 822 1104 857 1139 q 736 1069 788 1069 l 436 1069 z "},"Û":{"ha":1171,"x_min":108,"x_max":1063,"o":"m 336 -14 q 171 48 233 -14 q 108 213 108 110 l 108 972 l 326 972 l 326 254 q 403 178 326 178 l 768 178 q 844 254 844 178 l 844 972 l 1063 972 l 1063 213 q 1001 49 1063 111 q 836 -14 939 -14 l 336 -14 m 499 1069 l 301 1069 l 475 1288 l 697 1288 l 871 1069 l 674 1069 l 589 1176 l 583 1176 l 499 1069 z "},"Ü":{"ha":1171,"x_min":108,"x_max":1063,"o":"m 336 -14 q 171 48 233 -14 q 108 213 108 110 l 108 972 l 326 972 l 326 254 q 403 178 326 178 l 768 178 q 844 254 844 178 l 844 972 l 1063 972 l 1063 213 q 1001 49 1063 111 q 836 -14 939 -14 l 336 -14 m 521 1079 l 322 1079 l 322 1274 l 521 1274 l 521 1079 m 850 1079 l 651 1079 l 651 1274 l 850 1274 l 850 1079 z "},"Ù":{"ha":1171,"x_min":108,"x_max":1063,"o":"m 336 -14 q 171 48 233 -14 q 108 213 108 110 l 108 972 l 326 972 l 326 254 q 403 178 326 178 l 768 178 q 844 254 844 178 l 844 972 l 1063 972 l 1063 213 q 1001 49 1063 111 q 836 -14 939 -14 l 336 -14 m 711 1069 l 517 1069 l 350 1288 l 600 1288 l 711 1069 z "},"Ű":{"ha":1171,"x_min":108,"x_max":1063,"o":"m 336 -14 q 171 48 233 -14 q 108 213 108 110 l 108 972 l 326 972 l 326 254 q 403 178 326 178 l 768 178 q 844 254 844 178 l 844 972 l 1063 972 l 1063 213 q 1001 49 1063 111 q 836 -14 939 -14 l 336 -14 m 504 1069 l 338 1069 l 449 1288 l 653 1288 l 504 1069 m 799 1069 l 632 1069 l 743 1288 l 946 1288 l 799 1069 z "},"Ū":{"ha":1171,"x_min":108,"x_max":1063,"o":"m 336 -14 q 171 48 233 -14 q 108 213 108 110 l 108 972 l 326 972 l 326 254 q 403 178 326 178 l 768 178 q 844 254 844 178 l 844 972 l 1063 972 l 1063 213 q 1001 49 1063 111 q 836 -14 939 -14 l 336 -14 m 843 1101 l 329 1101 l 329 1254 l 843 1254 l 843 1101 z "},"Ų":{"ha":1171,"x_min":108,"x_max":1063,"o":"m 844 972 l 1063 972 l 1063 213 q 1023 83 1063 131 q 901 -7 983 35 q 788 -82 832 -42 q 744 -157 744 -122 q 783 -197 744 -197 l 897 -197 l 897 -319 l 739 -319 q 631 -285 669 -319 q 593 -192 593 -250 q 719 -14 593 -99 l 336 -14 q 171 48 233 -14 q 108 213 108 110 l 108 972 l 326 972 l 326 254 q 403 178 326 178 l 768 178 q 844 254 844 178 l 844 972 z "},"Ů":{"ha":1171,"x_min":108,"x_max":1063,"o":"m 336 -14 q 171 48 233 -14 q 108 213 108 110 l 108 972 l 326 972 l 326 254 q 403 178 326 178 l 768 178 q 844 254 844 178 l 844 972 l 1063 972 l 1063 213 q 1001 49 1063 111 q 836 -14 939 -14 l 336 -14 m 528 1028 q 438 1066 475 1028 q 400 1156 400 1104 l 400 1201 q 438 1292 400 1254 q 528 1329 475 1329 l 643 1329 q 733 1292 694 1329 q 771 1201 771 1254 l 771 1156 q 733 1066 771 1104 q 643 1028 694 1028 l 528 1028 m 611 1136 q 632 1144 624 1136 q 640 1167 640 1153 l 640 1190 q 632 1211 640 1203 q 611 1219 624 1219 l 560 1219 q 538 1211 546 1219 q 529 1190 529 1203 l 529 1167 q 538 1144 529 1153 q 560 1136 546 1136 l 611 1136 z "},"Ũ":{"ha":1171,"x_min":108,"x_max":1063,"o":"m 336 -14 q 171 48 233 -14 q 108 213 108 110 l 108 972 l 326 972 l 326 254 q 403 178 326 178 l 768 178 q 844 254 844 178 l 844 972 l 1063 972 l 1063 213 q 1001 49 1063 111 q 836 -14 939 -14 l 336 -14 m 729 1063 q 647 1076 683 1063 q 568 1113 610 1089 q 526 1134 542 1128 q 497 1140 511 1140 q 479 1121 479 1140 l 479 1069 l 338 1069 l 338 1192 q 365 1263 338 1238 q 442 1289 392 1289 q 525 1275 488 1289 q 603 1238 563 1261 q 644 1216 629 1222 q 674 1210 660 1210 q 692 1229 692 1210 l 692 1282 l 833 1282 l 833 1161 q 806 1089 833 1115 q 729 1063 779 1063 z "},"Ǔ":{"ha":1171,"x_min":108,"x_max":1063,"o":"m 336 -14 q 171 48 233 -14 q 108 213 108 110 l 108 972 l 326 972 l 326 254 q 403 178 326 178 l 768 178 q 844 254 844 178 l 844 972 l 1063 972 l 1063 213 q 1001 49 1063 111 q 836 -14 939 -14 l 336 -14 m 697 1069 l 475 1069 l 301 1288 l 499 1288 l 583 1181 l 589 1181 l 674 1288 l 871 1288 l 697 1069 z "},"Ẃ":{"ha":1504,"x_min":39,"x_max":1465,"o":"m 535 0 l 275 0 l 39 864 l 39 972 l 274 972 l 410 282 l 419 282 l 629 972 l 875 972 l 1086 282 l 1094 282 l 1232 972 l 1465 972 l 1465 864 l 1229 0 l 969 0 l 757 688 l 747 688 l 535 0 m 822 1069 l 628 1069 l 739 1288 l 989 1288 l 822 1069 z "},"Ŵ":{"ha":1504,"x_min":39,"x_max":1465,"o":"m 535 0 l 275 0 l 39 864 l 39 972 l 274 972 l 410 282 l 419 282 l 629 972 l 875 972 l 1086 282 l 1094 282 l 1232 972 l 1465 972 l 1465 864 l 1229 0 l 969 0 l 757 688 l 747 688 l 535 0 m 665 1069 l 468 1069 l 642 1288 l 864 1288 l 1038 1069 l 840 1069 l 756 1176 l 750 1176 l 665 1069 z "},"Ẅ":{"ha":1504,"x_min":39,"x_max":1465,"o":"m 535 0 l 275 0 l 39 864 l 39 972 l 274 972 l 410 282 l 419 282 l 629 972 l 875 972 l 1086 282 l 1094 282 l 1232 972 l 1465 972 l 1465 864 l 1229 0 l 969 0 l 757 688 l 747 688 l 535 0 m 688 1079 l 489 1079 l 489 1274 l 688 1274 l 688 1079 m 1017 1079 l 818 1079 l 818 1274 l 1017 1274 l 1017 1079 z "},"Ẁ":{"ha":1504,"x_min":39,"x_max":1465,"o":"m 535 0 l 275 0 l 39 864 l 39 972 l 274 972 l 410 282 l 419 282 l 629 972 l 875 972 l 1086 282 l 1094 282 l 1232 972 l 1465 972 l 1465 864 l 1229 0 l 969 0 l 757 688 l 747 688 l 535 0 m 878 1069 l 683 1069 l 517 1288 l 767 1288 l 878 1069 z "},"Ẍ":{"ha":1069,"x_min":46,"x_max":1024,"o":"m 250 0 l 46 0 l 46 108 l 365 483 l 72 864 l 72 972 l 275 972 l 528 628 l 542 628 l 794 972 l 997 972 l 997 864 l 704 493 l 1024 108 l 1024 0 l 819 0 l 542 350 l 528 350 l 250 0 m 469 1079 l 271 1079 l 271 1274 l 469 1274 l 469 1079 m 799 1079 l 600 1079 l 600 1274 l 799 1274 l 799 1079 z "},"Ý":{"ha":1024,"x_min":32,"x_max":990,"o":"m 621 0 l 403 0 l 403 306 l 32 864 l 32 972 l 233 972 l 507 528 l 521 528 l 789 972 l 990 972 l 990 864 l 621 306 l 621 0 m 582 1069 l 388 1069 l 499 1288 l 749 1288 l 582 1069 z "},"Ŷ":{"ha":1024,"x_min":32,"x_max":990,"o":"m 621 0 l 403 0 l 403 306 l 32 864 l 32 972 l 233 972 l 507 528 l 521 528 l 789 972 l 990 972 l 990 864 l 621 306 l 621 0 m 425 1069 l 228 1069 l 401 1288 l 624 1288 l 797 1069 l 600 1069 l 515 1176 l 510 1176 l 425 1069 z "},"Ÿ":{"ha":1024,"x_min":32,"x_max":990,"o":"m 621 0 l 403 0 l 403 306 l 32 864 l 32 972 l 233 972 l 507 528 l 521 528 l 789 972 l 990 972 l 990 864 l 621 306 l 621 0 m 447 1079 l 249 1079 l 249 1274 l 447 1274 l 447 1079 m 776 1079 l 578 1079 l 578 1274 l 776 1274 l 776 1079 z "},"Ỳ":{"ha":1024,"x_min":32,"x_max":990,"o":"m 621 0 l 403 0 l 403 306 l 32 864 l 32 972 l 233 972 l 507 528 l 521 528 l 789 972 l 990 972 l 990 864 l 621 306 l 621 0 m 638 1069 l 443 1069 l 276 1288 l 526 1288 l 638 1069 z "},"Ȳ":{"ha":1024,"x_min":32,"x_max":990,"o":"m 621 0 l 403 0 l 403 306 l 32 864 l 32 972 l 233 972 l 507 528 l 521 528 l 789 972 l 990 972 l 990 864 l 621 306 l 621 0 m 769 1101 l 256 1101 l 256 1254 l 769 1254 l 769 1101 z "},"Ỹ":{"ha":1024,"x_min":32,"x_max":990,"o":"m 621 0 l 403 0 l 403 306 l 32 864 l 32 972 l 233 972 l 507 528 l 521 528 l 789 972 l 990 972 l 990 864 l 621 306 l 621 0 m 656 1063 q 573 1076 610 1063 q 494 1113 536 1089 q 453 1134 468 1128 q 424 1140 438 1140 q 406 1121 406 1140 l 406 1069 l 264 1069 l 264 1192 q 291 1263 264 1238 q 368 1289 318 1289 q 451 1275 414 1289 q 529 1238 489 1261 q 571 1216 556 1222 q 600 1210 586 1210 q 618 1229 618 1210 l 618 1282 l 760 1282 l 760 1161 q 733 1089 760 1115 q 656 1063 706 1063 z "},"Ź":{"ha":1010,"x_min":56,"x_max":954,"o":"m 954 0 l 56 0 l 56 185 l 635 768 l 635 778 l 139 778 l 69 847 l 69 972 l 954 972 l 954 788 l 375 204 l 375 194 l 954 194 l 954 0 m 582 1069 l 388 1069 l 499 1288 l 749 1288 l 582 1069 z "},"Ž":{"ha":1010,"x_min":56,"x_max":954,"o":"m 954 0 l 56 0 l 56 185 l 635 768 l 635 778 l 139 778 l 69 847 l 69 972 l 954 972 l 954 788 l 375 204 l 375 194 l 954 194 l 954 0 m 624 1069 l 401 1069 l 228 1288 l 425 1288 l 510 1181 l 515 1181 l 600 1288 l 797 1288 l 624 1069 z "},"Ż":{"ha":1010,"x_min":56,"x_max":954,"o":"m 954 0 l 56 0 l 56 185 l 635 768 l 635 778 l 139 778 l 69 847 l 69 972 l 954 972 l 954 788 l 375 204 l 375 194 l 954 194 l 954 0 m 614 1079 l 410 1079 l 410 1274 l 614 1274 l 614 1079 z "},"á":{"ha":864,"x_min":63,"x_max":771,"o":"m 257 -14 q 118 42 174 -14 q 63 181 63 97 l 63 236 q 118 375 63 319 q 257 431 174 431 l 567 431 l 567 475 q 500 542 567 542 l 122 542 l 122 708 l 576 708 q 715 653 660 708 q 771 514 771 597 l 771 0 l 622 0 l 590 81 l 583 81 q 522 15 567 44 q 419 -14 478 -14 l 257 -14 m 468 153 q 541 179 515 153 q 567 253 567 206 l 567 288 l 324 288 q 280 274 293 288 q 267 229 267 260 l 267 211 q 280 167 267 181 q 324 153 293 153 l 468 153 m 513 819 l 318 819 l 429 1038 l 679 1038 l 513 819 z "},"ă":{"ha":864,"x_min":63,"x_max":771,"o":"m 257 -14 q 118 42 174 -14 q 63 181 63 97 l 63 236 q 118 375 63 319 q 257 431 174 431 l 567 431 l 567 475 q 500 542 567 542 l 122 542 l 122 708 l 576 708 q 715 653 660 708 q 771 514 771 597 l 771 0 l 622 0 l 590 81 l 583 81 q 522 15 567 44 q 419 -14 478 -14 l 257 -14 m 468 153 q 541 179 515 153 q 567 253 567 206 l 567 288 l 324 288 q 280 274 293 288 q 267 229 267 260 l 267 211 q 280 167 267 181 q 324 153 293 153 l 468 153 m 285 819 q 199 854 233 819 q 164 940 164 889 l 164 1038 l 338 1038 l 338 993 q 376 954 338 954 l 493 954 q 532 993 532 954 l 532 1038 l 706 1038 l 706 940 q 671 854 706 889 q 585 819 636 819 l 285 819 z "},"â":{"ha":864,"x_min":63,"x_max":771,"o":"m 257 -14 q 118 42 174 -14 q 63 181 63 97 l 63 236 q 118 375 63 319 q 257 431 174 431 l 567 431 l 567 475 q 500 542 567 542 l 122 542 l 122 708 l 576 708 q 715 653 660 708 q 771 514 771 597 l 771 0 l 622 0 l 590 81 l 583 81 q 522 15 567 44 q 419 -14 478 -14 l 257 -14 m 468 153 q 541 179 515 153 q 567 253 567 206 l 567 288 l 324 288 q 280 274 293 288 q 267 229 267 260 l 267 211 q 280 167 267 181 q 324 153 293 153 l 468 153 m 347 819 l 150 819 l 324 1038 l 546 1038 l 719 819 l 522 819 l 438 926 l 432 926 l 347 819 z "},"ä":{"ha":864,"x_min":63,"x_max":771,"o":"m 257 -14 q 118 42 174 -14 q 63 181 63 97 l 63 236 q 118 375 63 319 q 257 431 174 431 l 567 431 l 567 475 q 500 542 567 542 l 122 542 l 122 708 l 576 708 q 715 653 660 708 q 771 514 771 597 l 771 0 l 622 0 l 590 81 l 583 81 q 522 15 567 44 q 419 -14 478 -14 l 257 -14 m 468 153 q 541 179 515 153 q 567 253 567 206 l 567 288 l 324 288 q 280 274 293 288 q 267 229 267 260 l 267 211 q 280 167 267 181 q 324 153 293 153 l 468 153 m 369 829 l 171 829 l 171 1024 l 369 1024 l 369 829 m 699 829 l 500 829 l 500 1024 l 699 1024 l 699 829 z "},"à":{"ha":864,"x_min":63,"x_max":771,"o":"m 257 -14 q 118 42 174 -14 q 63 181 63 97 l 63 236 q 118 375 63 319 q 257 431 174 431 l 567 431 l 567 475 q 500 542 567 542 l 122 542 l 122 708 l 576 708 q 715 653 660 708 q 771 514 771 597 l 771 0 l 622 0 l 590 81 l 583 81 q 522 15 567 44 q 419 -14 478 -14 l 257 -14 m 468 153 q 541 179 515 153 q 567 253 567 206 l 567 288 l 324 288 q 280 274 293 288 q 267 229 267 260 l 267 211 q 280 167 267 181 q 324 153 293 153 l 468 153 m 553 819 l 358 819 l 192 1038 l 442 1038 l 553 819 z "},"ā":{"ha":864,"x_min":63,"x_max":771,"o":"m 257 -14 q 118 42 174 -14 q 63 181 63 97 l 63 236 q 118 375 63 319 q 257 431 174 431 l 567 431 l 567 475 q 500 542 567 542 l 122 542 l 122 708 l 576 708 q 715 653 660 708 q 771 514 771 597 l 771 0 l 622 0 l 590 81 l 583 81 q 522 15 567 44 q 419 -14 478 -14 l 257 -14 m 468 153 q 541 179 515 153 q 567 253 567 206 l 567 288 l 324 288 q 280 274 293 288 q 267 229 267 260 l 267 211 q 280 167 267 181 q 324 153 293 153 l 468 153 m 692 851 l 178 851 l 178 1004 l 692 1004 l 692 851 z "},"ą":{"ha":864,"x_min":63,"x_max":771,"o":"m 771 0 q 659 -84 700 -44 q 618 -157 618 -124 q 658 -197 618 -197 l 771 -197 l 771 -319 l 614 -319 q 506 -285 544 -319 q 468 -192 468 -250 q 514 -87 468 -137 q 622 0 560 -36 l 590 81 l 583 81 q 522 15 567 44 q 419 -14 478 -14 l 257 -14 q 118 42 174 -14 q 63 181 63 97 l 63 236 q 118 375 63 319 q 257 431 174 431 l 567 431 l 567 475 q 500 542 567 542 l 122 542 l 122 708 l 576 708 q 715 653 660 708 q 771 514 771 597 l 771 0 m 567 288 l 324 288 q 280 274 293 288 q 267 229 267 260 l 267 211 q 280 167 267 181 q 324 153 293 153 l 468 153 q 541 179 515 153 q 567 253 567 206 l 567 288 z "},"ǎ":{"ha":864,"x_min":63,"x_max":771,"o":"m 257 -14 q 118 42 174 -14 q 63 181 63 97 l 63 236 q 118 375 63 319 q 257 431 174 431 l 567 431 l 567 475 q 500 542 567 542 l 122 542 l 122 708 l 576 708 q 715 653 660 708 q 771 514 771 597 l 771 0 l 622 0 l 590 81 l 583 81 q 522 15 567 44 q 419 -14 478 -14 l 257 -14 m 468 153 q 541 179 515 153 q 567 253 567 206 l 567 288 l 324 288 q 280 274 293 288 q 267 229 267 260 l 267 211 q 280 167 267 181 q 324 153 293 153 l 468 153 m 546 819 l 324 819 l 150 1038 l 347 1038 l 432 931 l 438 931 l 522 1038 l 719 1038 l 546 819 z "},"ã":{"ha":864,"x_min":63,"x_max":771,"o":"m 257 -14 q 118 42 174 -14 q 63 181 63 97 l 63 236 q 118 375 63 319 q 257 431 174 431 l 567 431 l 567 475 q 500 542 567 542 l 122 542 l 122 708 l 576 708 q 715 653 660 708 q 771 514 771 597 l 771 0 l 622 0 l 590 81 l 583 81 q 522 15 567 44 q 419 -14 478 -14 l 257 -14 m 468 153 q 541 179 515 153 q 567 253 567 206 l 567 288 l 324 288 q 280 274 293 288 q 267 229 267 260 l 267 211 q 280 167 267 181 q 324 153 293 153 l 468 153 m 579 813 q 497 826 533 813 q 418 863 460 839 q 376 884 392 878 q 347 890 361 890 q 329 871 329 890 l 329 819 l 188 819 l 188 942 q 215 1013 188 988 q 292 1039 242 1039 q 375 1025 338 1039 q 453 988 413 1011 q 494 966 479 972 q 524 960 510 960 q 542 979 542 960 l 542 1032 l 683 1032 l 683 911 q 656 839 683 865 q 579 813 629 813 z "},"å":{"ha":864,"x_min":63,"x_max":771,"o":"m 257 -14 q 118 42 174 -14 q 63 181 63 97 l 63 236 q 118 375 63 319 q 257 431 174 431 l 567 431 l 567 475 q 500 542 567 542 l 122 542 l 122 708 l 576 708 q 715 653 660 708 q 771 514 771 597 l 771 0 l 622 0 l 590 81 l 583 81 q 522 15 567 44 q 419 -14 478 -14 l 257 -14 m 468 153 q 541 179 515 153 q 567 253 567 206 l 567 288 l 324 288 q 280 274 293 288 q 267 229 267 260 l 267 211 q 280 167 267 181 q 324 153 293 153 l 468 153 m 378 778 q 288 816 325 778 q 250 906 250 854 l 250 951 q 288 1042 250 1004 q 378 1079 325 1079 l 493 1079 q 583 1042 544 1079 q 621 951 621 1004 l 621 906 q 583 816 621 854 q 493 778 544 778 l 378 778 m 461 886 q 482 894 474 886 q 490 917 490 903 l 490 940 q 482 961 490 953 q 461 969 474 969 l 410 969 q 388 961 396 969 q 379 940 379 953 l 379 917 q 388 894 379 903 q 410 886 396 886 l 461 886 z "},"ǻ":{"ha":864,"x_min":63,"x_max":771,"o":"m 257 -14 q 118 42 174 -14 q 63 181 63 97 l 63 236 q 118 375 63 319 q 257 431 174 431 l 567 431 l 567 475 q 500 542 567 542 l 122 542 l 122 708 l 576 708 q 715 653 660 708 q 771 514 771 597 l 771 0 l 622 0 l 590 81 l 583 81 q 522 15 567 44 q 419 -14 478 -14 l 257 -14 m 468 153 q 541 179 515 153 q 567 253 567 206 l 567 288 l 324 288 q 280 274 293 288 q 267 229 267 260 l 267 211 q 280 167 267 181 q 324 153 293 153 l 468 153 m 531 1074 q 597 1028 571 1063 q 622 951 622 994 l 622 906 q 584 816 622 854 q 494 778 546 778 l 379 778 q 289 816 326 778 q 251 906 251 854 l 251 951 q 278 1029 251 994 q 347 1075 306 1064 l 413 1208 l 646 1208 l 531 1074 m 492 940 q 483 961 492 953 q 463 969 475 969 l 411 969 q 389 961 397 969 q 381 940 381 953 l 381 917 q 389 894 381 903 q 411 886 397 886 l 463 886 q 483 894 475 886 q 492 917 492 903 l 492 940 z "},"æ":{"ha":1331,"x_min":63,"x_max":1253,"o":"m 257 -14 q 118 42 174 -14 q 63 181 63 97 l 63 236 q 88 337 63 292 q 158 408 114 382 q 257 435 203 435 l 539 435 l 539 475 q 472 542 539 542 l 122 542 l 122 708 l 507 708 q 585 689 550 708 q 638 646 619 669 l 649 646 q 706 699 668 675 q 794 722 744 722 l 1058 722 q 1197 667 1142 722 q 1253 528 1253 611 l 1253 288 l 743 288 l 743 233 q 810 167 743 167 l 1222 167 l 1222 0 l 782 0 q 703 20 739 0 q 649 67 667 40 l 638 67 q 581 11 619 36 q 490 -14 543 -14 l 257 -14 m 743 435 l 1049 435 l 1049 489 q 982 556 1049 556 l 810 556 q 743 489 743 556 l 743 435 m 440 153 q 513 179 488 153 q 539 253 539 206 l 539 288 l 324 288 q 280 274 293 288 q 267 229 267 260 l 267 211 q 280 167 267 181 q 324 153 293 153 l 440 153 z "},"ǽ":{"ha":1331,"x_min":63,"x_max":1253,"o":"m 257 -14 q 118 42 174 -14 q 63 181 63 97 l 63 236 q 88 337 63 292 q 158 408 114 382 q 257 435 203 435 l 539 435 l 539 475 q 472 542 539 542 l 122 542 l 122 708 l 507 708 q 585 689 550 708 q 638 646 619 669 l 649 646 q 706 699 668 675 q 794 722 744 722 l 1058 722 q 1197 667 1142 722 q 1253 528 1253 611 l 1253 288 l 743 288 l 743 233 q 810 167 743 167 l 1222 167 l 1222 0 l 782 0 q 703 20 739 0 q 649 67 667 40 l 638 67 q 581 11 619 36 q 490 -14 543 -14 l 257 -14 m 743 435 l 1049 435 l 1049 489 q 982 556 1049 556 l 810 556 q 743 489 743 556 l 743 435 m 440 153 q 513 179 488 153 q 539 253 539 206 l 539 288 l 324 288 q 280 274 293 288 q 267 229 267 260 l 267 211 q 280 167 267 181 q 324 153 293 153 l 440 153 m 740 819 l 546 819 l 657 1038 l 907 1038 l 740 819 z "},"ć":{"ha":788,"x_min":79,"x_max":732,"o":"m 274 0 q 135 56 190 0 q 79 194 79 111 l 79 514 q 135 653 79 597 q 274 708 190 708 l 732 708 l 732 590 l 671 528 l 350 528 q 282 461 282 528 l 282 247 q 350 181 282 181 l 732 181 l 732 0 l 274 0 m 506 819 l 311 819 l 422 1038 l 672 1038 l 506 819 z "},"č":{"ha":788,"x_min":79,"x_max":732,"o":"m 274 0 q 135 56 190 0 q 79 194 79 111 l 79 514 q 135 653 79 597 q 274 708 190 708 l 732 708 l 732 590 l 671 528 l 350 528 q 282 461 282 528 l 282 247 q 350 181 282 181 l 732 181 l 732 0 l 274 0 m 539 819 l 317 819 l 143 1038 l 340 1038 l 425 931 l 431 931 l 515 1038 l 713 1038 l 539 819 z "},"ç":{"ha":788,"x_min":79,"x_max":732,"o":"m 350 528 q 282 461 282 528 l 282 247 q 350 181 282 181 l 732 181 l 732 0 l 492 0 l 478 -56 l 528 -56 q 615 -87 583 -56 q 646 -174 646 -119 l 646 -215 q 615 -301 646 -269 q 528 -333 583 -333 l 308 -333 l 308 -225 l 479 -225 q 501 -218 493 -225 q 510 -200 510 -211 l 510 -189 q 501 -171 510 -178 q 479 -164 493 -164 l 367 -164 l 322 -122 l 351 0 l 274 0 q 135 56 190 0 q 79 194 79 111 l 79 514 q 135 653 79 597 q 274 708 190 708 l 732 708 l 732 590 l 671 528 l 350 528 z "},"ĉ":{"ha":788,"x_min":79,"x_max":732,"o":"m 274 0 q 135 56 190 0 q 79 194 79 111 l 79 514 q 135 653 79 597 q 274 708 190 708 l 732 708 l 732 590 l 671 528 l 350 528 q 282 461 282 528 l 282 247 q 350 181 282 181 l 732 181 l 732 0 l 274 0 m 340 819 l 143 819 l 317 1038 l 539 1038 l 713 819 l 515 819 l 431 926 l 425 926 l 340 819 z "},"ċ":{"ha":788,"x_min":79,"x_max":732,"o":"m 274 0 q 135 56 190 0 q 79 194 79 111 l 79 514 q 135 653 79 597 q 274 708 190 708 l 732 708 l 732 590 l 671 528 l 350 528 q 282 461 282 528 l 282 247 q 350 181 282 181 l 732 181 l 732 0 l 274 0 m 531 829 l 326 829 l 326 1024 l 531 1024 l 531 829 z "},"ð":{"ha":907,"x_min":79,"x_max":815,"o":"m 607 921 q 760 847 704 907 q 815 678 815 786 l 815 181 q 760 42 815 97 q 621 -14 704 -14 l 274 -14 q 135 42 190 -14 q 79 181 79 97 l 79 421 q 135 560 79 504 q 274 615 190 615 l 444 615 q 545 590 503 615 q 604 532 588 564 l 611 532 l 611 663 q 594 717 611 699 q 539 742 578 736 l 411 763 l 396 672 l 254 694 l 269 785 l 111 810 l 143 993 l 301 968 l 317 1060 l 458 1038 l 443 946 l 607 921 m 611 344 q 585 418 611 392 q 511 444 558 444 l 350 444 q 282 378 282 444 l 282 229 q 350 163 282 163 l 544 163 q 611 229 611 163 l 611 344 z "},"ď":{"ha":924,"x_min":79,"x_max":1125,"o":"m 274 -14 q 135 42 190 -14 q 79 181 79 97 l 79 514 q 135 653 79 597 q 274 708 190 708 l 621 708 l 621 958 l 824 958 l 824 0 l 676 0 l 643 81 l 636 81 q 575 15 619 44 q 472 -14 531 -14 l 274 -14 m 521 167 q 594 193 568 167 q 621 265 621 219 l 621 528 l 350 528 q 282 461 282 528 l 282 233 q 350 167 282 167 l 521 167 m 1040 746 l 931 746 l 931 1024 l 1125 1024 l 1125 913 l 1040 746 z "},"đ":{"ha":924,"x_min":72,"x_max":942,"o":"m 942 836 l 942 665 l 817 665 l 817 0 l 669 0 l 636 81 l 629 81 q 568 15 613 44 q 465 -14 524 -14 l 267 -14 q 128 42 183 -14 q 72 181 72 97 l 72 389 q 128 528 72 472 q 267 583 183 583 l 614 583 l 614 665 l 379 665 l 379 836 l 614 836 l 614 958 l 817 958 l 817 836 l 942 836 m 614 403 l 343 403 q 275 336 275 403 l 275 233 q 343 167 275 167 l 514 167 q 588 193 561 167 q 614 265 614 219 l 614 403 z "},"ǳ":{"ha":1701,"x_min":79,"x_max":1646,"o":"m 274 -14 q 135 42 190 -14 q 79 181 79 97 l 79 514 q 135 653 79 597 q 274 708 190 708 l 621 708 l 621 958 l 824 958 l 824 0 l 676 0 l 643 81 l 636 81 q 575 15 619 44 q 472 -14 531 -14 l 274 -14 m 521 167 q 594 193 568 167 q 621 265 621 219 l 621 528 l 350 528 q 282 461 282 528 l 282 233 q 350 167 282 167 l 521 167 m 1646 0 l 975 0 l 975 163 l 1350 524 l 1350 532 l 1035 532 l 979 590 l 979 708 l 1646 708 l 1646 546 l 1271 185 l 1271 176 l 1646 176 l 1646 0 z "},"ǆ":{"ha":1701,"x_min":79,"x_max":1646,"o":"m 274 -14 q 135 42 190 -14 q 79 181 79 97 l 79 514 q 135 653 79 597 q 274 708 190 708 l 621 708 l 621 958 l 824 958 l 824 0 l 676 0 l 643 81 l 636 81 q 575 15 619 44 q 472 -14 531 -14 l 274 -14 m 521 167 q 594 193 568 167 q 621 265 621 219 l 621 528 l 350 528 q 282 461 282 528 l 282 233 q 350 167 282 167 l 521 167 z "},"é":{"ha":893,"x_min":79,"x_max":815,"o":"m 274 0 q 135 56 190 0 q 79 194 79 111 l 79 528 q 135 667 79 611 q 274 722 190 722 l 621 722 q 760 667 704 722 q 815 528 815 611 l 815 278 l 282 278 l 282 233 q 350 167 282 167 l 785 167 l 785 0 l 274 0 m 282 426 l 611 426 l 611 489 q 544 556 611 556 l 350 556 q 282 489 282 556 l 282 426 m 526 819 l 332 819 l 443 1038 l 693 1038 l 526 819 z "},"ĕ":{"ha":893,"x_min":79,"x_max":815,"o":"m 274 0 q 135 56 190 0 q 79 194 79 111 l 79 528 q 135 667 79 611 q 274 722 190 722 l 621 722 q 760 667 704 722 q 815 528 815 611 l 815 278 l 282 278 l 282 233 q 350 167 282 167 l 785 167 l 785 0 l 274 0 m 282 426 l 611 426 l 611 489 q 544 556 611 556 l 350 556 q 282 489 282 556 l 282 426 m 299 819 q 213 854 247 819 q 178 940 178 889 l 178 1038 l 351 1038 l 351 993 q 390 954 351 954 l 507 954 q 546 993 546 954 l 546 1038 l 719 1038 l 719 940 q 685 854 719 889 q 599 819 650 819 l 299 819 z "},"ě":{"ha":893,"x_min":79,"x_max":815,"o":"m 274 0 q 135 56 190 0 q 79 194 79 111 l 79 528 q 135 667 79 611 q 274 722 190 722 l 621 722 q 760 667 704 722 q 815 528 815 611 l 815 278 l 282 278 l 282 233 q 350 167 282 167 l 785 167 l 785 0 l 274 0 m 282 426 l 611 426 l 611 489 q 544 556 611 556 l 350 556 q 282 489 282 556 l 282 426 m 560 819 l 338 819 l 164 1038 l 361 1038 l 446 931 l 451 931 l 536 1038 l 733 1038 l 560 819 z "},"ê":{"ha":893,"x_min":79,"x_max":815,"o":"m 274 0 q 135 56 190 0 q 79 194 79 111 l 79 528 q 135 667 79 611 q 274 722 190 722 l 621 722 q 760 667 704 722 q 815 528 815 611 l 815 278 l 282 278 l 282 233 q 350 167 282 167 l 785 167 l 785 0 l 274 0 m 282 426 l 611 426 l 611 489 q 544 556 611 556 l 350 556 q 282 489 282 556 l 282 426 m 361 819 l 164 819 l 338 1038 l 560 1038 l 733 819 l 536 819 l 451 926 l 446 926 l 361 819 z "},"ë":{"ha":893,"x_min":79,"x_max":815,"o":"m 274 0 q 135 56 190 0 q 79 194 79 111 l 79 528 q 135 667 79 611 q 274 722 190 722 l 621 722 q 760 667 704 722 q 815 528 815 611 l 815 278 l 282 278 l 282 233 q 350 167 282 167 l 785 167 l 785 0 l 274 0 m 282 426 l 611 426 l 611 489 q 544 556 611 556 l 350 556 q 282 489 282 556 l 282 426 m 383 829 l 185 829 l 185 1024 l 383 1024 l 383 829 m 713 829 l 514 829 l 514 1024 l 713 1024 l 713 829 z "},"ė":{"ha":893,"x_min":79,"x_max":815,"o":"m 274 0 q 135 56 190 0 q 79 194 79 111 l 79 528 q 135 667 79 611 q 274 722 190 722 l 621 722 q 760 667 704 722 q 815 528 815 611 l 815 278 l 282 278 l 282 233 q 350 167 282 167 l 785 167 l 785 0 l 274 0 m 282 426 l 611 426 l 611 489 q 544 556 611 556 l 350 556 q 282 489 282 556 l 282 426 m 551 829 l 347 829 l 347 1024 l 551 1024 l 551 829 z "},"è":{"ha":893,"x_min":79,"x_max":815,"o":"m 274 0 q 135 56 190 0 q 79 194 79 111 l 79 528 q 135 667 79 611 q 274 722 190 722 l 621 722 q 760 667 704 722 q 815 528 815 611 l 815 278 l 282 278 l 282 233 q 350 167 282 167 l 785 167 l 785 0 l 274 0 m 282 426 l 611 426 l 611 489 q 544 556 611 556 l 350 556 q 282 489 282 556 l 282 426 m 567 819 l 372 819 l 206 1038 l 456 1038 l 567 819 z "},"ē":{"ha":893,"x_min":79,"x_max":815,"o":"m 274 0 q 135 56 190 0 q 79 194 79 111 l 79 528 q 135 667 79 611 q 274 722 190 722 l 621 722 q 760 667 704 722 q 815 528 815 611 l 815 278 l 282 278 l 282 233 q 350 167 282 167 l 785 167 l 785 0 l 274 0 m 282 426 l 611 426 l 611 489 q 544 556 611 556 l 350 556 q 282 489 282 556 l 282 426 m 706 851 l 192 851 l 192 1004 l 706 1004 l 706 851 z "},"ę":{"ha":893,"x_min":79,"x_max":815,"o":"m 815 278 l 282 278 l 282 233 q 350 167 282 167 l 785 167 l 785 0 q 673 -84 714 -44 q 632 -157 632 -124 q 672 -197 632 -197 l 785 -197 l 785 -319 l 628 -319 q 520 -285 558 -319 q 482 -192 482 -250 q 528 -87 482 -137 q 636 0 574 -36 l 274 0 q 135 56 190 0 q 79 194 79 111 l 79 528 q 135 667 79 611 q 274 722 190 722 l 621 722 q 760 667 704 722 q 815 528 815 611 l 815 278 m 282 426 l 611 426 l 611 489 q 544 556 611 556 l 350 556 q 282 489 282 556 l 282 426 z "},"ẽ":{"ha":893,"x_min":79,"x_max":815,"o":"m 274 0 q 135 56 190 0 q 79 194 79 111 l 79 528 q 135 667 79 611 q 274 722 190 722 l 621 722 q 760 667 704 722 q 815 528 815 611 l 815 278 l 282 278 l 282 233 q 350 167 282 167 l 785 167 l 785 0 l 274 0 m 282 426 l 611 426 l 611 489 q 544 556 611 556 l 350 556 q 282 489 282 556 l 282 426 m 593 813 q 510 826 547 813 q 432 863 474 839 q 390 884 406 878 q 361 890 375 890 q 343 871 343 890 l 343 819 l 201 819 l 201 942 q 228 1013 201 988 q 306 1039 256 1039 q 389 1025 351 1039 q 467 988 426 1011 q 508 966 493 972 q 538 960 524 960 q 556 979 556 960 l 556 1032 l 697 1032 l 697 911 q 670 839 697 865 q 593 813 643 813 z "},"ə":{"ha":886,"x_min":72,"x_max":808,"o":"m 267 -14 q 128 42 183 -14 q 72 181 72 97 l 72 424 l 604 424 l 604 475 q 538 542 604 542 l 163 542 l 101 604 l 101 708 l 614 708 q 753 653 697 708 q 808 514 808 597 l 808 181 q 753 42 808 97 q 614 -14 697 -14 l 267 -14 m 538 150 q 604 218 604 150 l 604 275 l 275 275 l 275 218 q 343 150 275 150 l 538 150 z "},"ǵ":{"ha":871,"x_min":42,"x_max":829,"o":"m 218 -250 q 92 -199 143 -250 q 42 -74 42 -149 l 42 0 q 81 105 42 67 q 168 149 119 143 l 168 157 q 131 185 147 164 q 115 233 115 206 q 131 281 115 261 q 168 306 147 300 l 168 315 q 109 360 135 324 q 83 454 83 396 l 83 546 q 134 672 83 621 q 260 722 185 722 l 518 722 l 579 806 l 753 806 l 753 740 l 685 694 l 685 685 q 756 631 724 672 q 788 528 788 590 l 788 435 q 737 310 788 361 q 611 260 686 260 l 322 260 q 298 250 308 260 q 288 225 288 240 q 298 200 288 210 q 322 190 308 190 l 653 190 q 778 140 728 190 q 829 14 829 89 l 829 -74 q 778 -199 829 -149 q 653 -250 728 -250 l 218 -250 m 531 424 q 583 476 583 424 l 583 504 q 531 558 583 558 l 340 558 q 288 504 288 558 l 288 476 q 340 424 288 424 l 531 424 m 572 -90 q 612 -77 599 -90 q 625 -42 625 -64 l 625 -18 q 612 17 625 4 q 572 31 599 31 l 299 31 q 259 17 272 31 q 246 -18 246 4 l 246 -42 q 259 -77 246 -64 q 299 -90 272 -90 l 572 -90 m 513 819 l 318 819 l 429 1038 l 679 1038 l 513 819 z "},"ğ":{"ha":871,"x_min":42,"x_max":829,"o":"m 218 -250 q 92 -199 143 -250 q 42 -74 42 -149 l 42 0 q 81 105 42 67 q 168 149 119 143 l 168 157 q 131 185 147 164 q 115 233 115 206 q 131 281 115 261 q 168 306 147 300 l 168 315 q 109 360 135 324 q 83 454 83 396 l 83 546 q 134 672 83 621 q 260 722 185 722 l 518 722 l 579 806 l 753 806 l 753 740 l 685 694 l 685 685 q 756 631 724 672 q 788 528 788 590 l 788 435 q 737 310 788 361 q 611 260 686 260 l 322 260 q 298 250 308 260 q 288 225 288 240 q 298 200 288 210 q 322 190 308 190 l 653 190 q 778 140 728 190 q 829 14 829 89 l 829 -74 q 778 -199 829 -149 q 653 -250 728 -250 l 218 -250 m 531 424 q 583 476 583 424 l 583 504 q 531 558 583 558 l 340 558 q 288 504 288 558 l 288 476 q 340 424 288 424 l 531 424 m 572 -90 q 612 -77 599 -90 q 625 -42 625 -64 l 625 -18 q 612 17 625 4 q 572 31 599 31 l 299 31 q 259 17 272 31 q 246 -18 246 4 l 246 -42 q 259 -77 246 -64 q 299 -90 272 -90 l 572 -90 m 285 819 q 199 854 233 819 q 164 940 164 889 l 164 1038 l 338 1038 l 338 993 q 376 954 338 954 l 493 954 q 532 993 532 954 l 532 1038 l 706 1038 l 706 940 q 671 854 706 889 q 585 819 636 819 l 285 819 z "},"ĝ":{"ha":871,"x_min":42,"x_max":829,"o":"m 218 -250 q 92 -199 143 -250 q 42 -74 42 -149 l 42 0 q 81 105 42 67 q 168 149 119 143 l 168 157 q 131 185 147 164 q 115 233 115 206 q 131 281 115 261 q 168 306 147 300 l 168 315 q 109 360 135 324 q 83 454 83 396 l 83 546 q 134 672 83 621 q 260 722 185 722 l 518 722 l 579 806 l 753 806 l 753 740 l 685 694 l 685 685 q 756 631 724 672 q 788 528 788 590 l 788 435 q 737 310 788 361 q 611 260 686 260 l 322 260 q 298 250 308 260 q 288 225 288 240 q 298 200 288 210 q 322 190 308 190 l 653 190 q 778 140 728 190 q 829 14 829 89 l 829 -74 q 778 -199 829 -149 q 653 -250 728 -250 l 218 -250 m 531 424 q 583 476 583 424 l 583 504 q 531 558 583 558 l 340 558 q 288 504 288 558 l 288 476 q 340 424 288 424 l 531 424 m 572 -90 q 612 -77 599 -90 q 625 -42 625 -64 l 625 -18 q 612 17 625 4 q 572 31 599 31 l 299 31 q 259 17 272 31 q 246 -18 246 4 l 246 -42 q 259 -77 246 -64 q 299 -90 272 -90 l 572 -90 m 347 819 l 150 819 l 324 1038 l 546 1038 l 719 819 l 522 819 l 438 926 l 432 926 l 347 819 z "},"ģ":{"ha":871,"x_min":42,"x_max":829,"o":"m 218 -250 q 92 -199 143 -250 q 42 -74 42 -149 l 42 0 q 81 105 42 67 q 168 149 119 143 l 168 157 q 131 185 147 164 q 115 233 115 206 q 131 281 115 261 q 168 306 147 300 l 168 315 q 109 360 135 324 q 83 454 83 396 l 83 546 q 134 672 83 621 q 260 722 185 722 l 518 722 l 579 806 l 753 806 l 753 740 l 685 694 l 685 685 q 756 631 724 672 q 788 528 788 590 l 788 435 q 737 310 788 361 q 611 260 686 260 l 322 260 q 298 250 308 260 q 288 225 288 240 q 298 200 288 210 q 322 190 308 190 l 653 190 q 778 140 728 190 q 829 14 829 89 l 829 -74 q 778 -199 829 -149 q 653 -250 728 -250 l 218 -250 m 531 424 q 583 476 583 424 l 583 504 q 531 558 583 558 l 340 558 q 288 504 288 558 l 288 476 q 340 424 288 424 l 531 424 m 572 -90 q 612 -77 599 -90 q 625 -42 625 -64 l 625 -18 q 612 17 625 4 q 572 31 599 31 l 299 31 q 259 17 272 31 q 246 -18 246 4 l 246 -42 q 259 -77 246 -64 q 299 -90 272 -90 l 572 -90 m 538 819 l 333 819 l 333 968 l 418 1135 l 538 1135 l 538 819 z "},"ġ":{"ha":871,"x_min":42,"x_max":829,"o":"m 218 -250 q 92 -199 143 -250 q 42 -74 42 -149 l 42 0 q 81 105 42 67 q 168 149 119 143 l 168 157 q 131 185 147 164 q 115 233 115 206 q 131 281 115 261 q 168 306 147 300 l 168 315 q 109 360 135 324 q 83 454 83 396 l 83 546 q 134 672 83 621 q 260 722 185 722 l 518 722 l 579 806 l 753 806 l 753 740 l 685 694 l 685 685 q 756 631 724 672 q 788 528 788 590 l 788 435 q 737 310 788 361 q 611 260 686 260 l 322 260 q 298 250 308 260 q 288 225 288 240 q 298 200 288 210 q 322 190 308 190 l 653 190 q 778 140 728 190 q 829 14 829 89 l 829 -74 q 778 -199 829 -149 q 653 -250 728 -250 l 218 -250 m 531 424 q 583 476 583 424 l 583 504 q 531 558 583 558 l 340 558 q 288 504 288 558 l 288 476 q 340 424 288 424 l 531 424 m 572 -90 q 612 -77 599 -90 q 625 -42 625 -64 l 625 -18 q 612 17 625 4 q 572 31 599 31 l 299 31 q 259 17 272 31 q 246 -18 246 4 l 246 -42 q 259 -77 246 -64 q 299 -90 272 -90 l 572 -90 m 538 829 l 333 829 l 333 1024 l 538 1024 l 538 829 z "},"ǧ":{"ha":871,"x_min":42,"x_max":829,"o":"m 546 819 l 324 819 l 150 1038 l 347 1038 l 432 931 l 438 931 l 522 1038 l 719 1038 l 546 819 m 218 -250 q 92 -199 143 -250 q 42 -74 42 -149 l 42 0 q 76 99 42 58 q 168 149 110 139 l 168 157 q 130 186 144 165 q 115 233 115 207 q 130 279 115 260 q 168 306 144 299 l 168 315 q 106 365 129 326 q 83 454 83 403 l 83 546 q 134 672 83 621 q 260 722 185 722 l 518 722 l 579 824 l 757 824 l 757 740 l 685 694 l 685 685 q 758 626 729 669 q 788 528 788 583 l 788 435 q 737 310 788 361 q 611 260 686 260 l 322 260 q 298 250 308 260 q 288 225 288 240 q 298 200 288 210 q 322 190 308 190 l 653 190 q 778 140 728 190 q 829 14 829 89 l 829 -74 q 778 -199 829 -149 q 653 -250 728 -250 l 218 -250 m 531 424 q 583 476 583 424 l 583 504 q 531 558 583 558 l 340 558 q 288 504 288 558 l 288 476 q 340 424 288 424 l 531 424 m 572 -90 q 612 -77 599 -90 q 625 -42 625 -64 l 625 -18 q 612 17 625 4 q 572 31 599 31 l 299 31 q 259 17 272 31 q 246 -18 246 4 l 246 -42 q 259 -77 246 -64 q 299 -90 272 -90 l 572 -90 z "},"ħ":{"ha":913,"x_min":-18,"x_max":833,"o":"m 639 597 q 778 542 722 597 q 833 403 833 486 l 833 0 l 629 0 l 629 347 q 613 398 629 382 q 563 414 597 414 l 410 414 q 336 388 363 414 q 310 315 310 363 l 310 0 l 107 0 l 107 665 l -18 665 l -18 836 l 107 836 l 107 958 l 310 958 l 310 836 l 544 836 l 544 665 l 310 665 l 310 511 l 317 511 q 374 571 332 544 q 476 597 417 597 l 639 597 z "},"ĥ":{"ha":919,"x_min":100,"x_max":826,"o":"m 100 0 l 100 958 l 303 958 l 303 636 l 310 636 q 367 696 325 669 q 469 722 410 722 l 632 722 q 771 667 715 722 q 826 528 826 611 l 826 0 l 622 0 l 622 472 q 606 523 622 507 q 556 539 590 539 l 403 539 q 329 513 356 539 q 303 440 303 488 l 303 0 l 100 0 m 375 1069 l 178 1069 l 351 1288 l 574 1288 l 747 1069 l 550 1069 l 465 1176 l 460 1176 l 375 1069 z "},"ȟ":{"ha":919,"x_min":100,"x_max":826,"o":"m 100 0 l 100 958 l 303 958 l 303 636 l 310 636 q 367 696 325 669 q 469 722 410 722 l 632 722 q 771 667 715 722 q 826 528 826 611 l 826 0 l 622 0 l 622 472 q 606 523 622 507 q 556 539 590 539 l 403 539 q 329 513 356 539 q 303 440 303 488 l 303 0 l 100 0 m 574 1056 l 351 1056 l 178 1274 l 375 1274 l 460 1167 l 465 1167 l 550 1274 l 747 1274 l 574 1056 z "},"ḧ":{"ha":919,"x_min":100,"x_max":826,"o":"m 100 0 l 100 958 l 303 958 l 303 636 l 310 636 q 367 696 325 669 q 469 722 410 722 l 632 722 q 771 667 715 722 q 826 528 826 611 l 826 0 l 622 0 l 622 472 q 606 523 622 507 q 556 539 590 539 l 403 539 q 329 513 356 539 q 303 440 303 488 l 303 0 l 100 0 m 397 1065 l 199 1065 l 199 1260 l 397 1260 l 397 1065 m 726 1065 l 528 1065 l 528 1260 l 726 1260 l 726 1065 z "},"ḥ":{"ha":919,"x_min":100,"x_max":826,"o":"m 100 0 l 100 958 l 303 958 l 303 636 l 310 636 q 367 696 325 669 q 469 722 410 722 l 632 722 q 771 667 715 722 q 826 528 826 611 l 826 0 l 622 0 l 622 472 q 606 523 622 507 q 556 539 590 539 l 403 539 q 329 513 356 539 q 303 440 303 488 l 303 0 l 100 0 m 569 -308 l 356 -308 l 356 -104 l 569 -104 l 569 -308 z "},"ı":{"ha":403,"x_min":100,"x_max":303,"o":"m 303 0 l 100 0 l 100 708 l 303 708 l 303 0 z "},"í":{"ha":403,"x_min":85,"x_max":446,"o":"m 303 0 l 100 0 l 100 708 l 303 708 l 303 0 m 279 819 l 85 819 l 196 1038 l 446 1038 l 279 819 z "},"ĭ":{"ha":403,"x_min":-69,"x_max":472,"o":"m 303 0 l 100 0 l 100 708 l 303 708 l 303 0 m 51 819 q -35 854 0 819 q -69 940 -69 889 l -69 1038 l 104 1038 l 104 993 q 143 954 104 954 l 260 954 q 299 993 299 954 l 299 1038 l 472 1038 l 472 940 q 438 854 472 889 q 351 819 403 819 l 51 819 z "},"î":{"ha":403,"x_min":-83,"x_max":486,"o":"m 303 0 l 100 0 l 100 708 l 303 708 l 303 0 m 114 819 l -83 819 l 90 1038 l 313 1038 l 486 819 l 289 819 l 204 926 l 199 926 l 114 819 z "},"ï":{"ha":403,"x_min":-62,"x_max":465,"o":"m 303 0 l 100 0 l 100 708 l 303 708 l 303 0 m 136 829 l -62 829 l -62 1024 l 136 1024 l 136 829 m 465 829 l 267 829 l 267 1024 l 465 1024 l 465 829 z "},"ì":{"ha":403,"x_min":-42,"x_max":319,"o":"m 303 0 l 100 0 l 100 708 l 303 708 l 303 0 m 319 819 l 125 819 l -42 1038 l 208 1038 l 319 819 z "},"ī":{"ha":403,"x_min":-56,"x_max":458,"o":"m 303 0 l 100 0 l 100 708 l 303 708 l 303 0 m 458 851 l -56 851 l -56 1004 l 458 1004 l 458 851 z "},"į":{"ha":403,"x_min":0,"x_max":304,"o":"m 100 829 l 100 1024 l 304 1024 l 304 829 l 100 829 m 100 0 l 100 708 l 303 708 l 303 0 q 189 -86 228 -49 q 150 -157 150 -124 q 190 -197 150 -197 l 303 -197 l 303 -319 l 146 -319 q 38 -285 76 -319 q 0 -192 0 -250 q 46 -87 0 -137 q 154 0 92 -36 l 100 0 z "},"ĩ":{"ha":403,"x_min":-46,"x_max":450,"o":"m 303 0 l 100 0 l 100 708 l 303 708 l 303 0 m 346 813 q 263 826 300 813 q 185 863 226 839 q 143 884 158 878 q 114 890 128 890 q 96 871 96 890 l 96 819 l -46 819 l -46 942 q -19 1013 -46 988 q 58 1039 8 1039 q 142 1025 104 1039 q 219 988 179 1011 q 261 966 246 972 q 290 960 276 960 q 308 979 308 960 l 308 1032 l 450 1032 l 450 911 q 423 839 450 865 q 346 813 396 813 z "},"ĳ":{"ha":806,"x_min":100,"x_max":714,"o":"m 303 0 l 100 0 l 100 708 l 303 708 l 303 0 m 304 829 l 100 829 l 100 1024 l 304 1024 l 304 829 m 326 -236 l 326 -56 l 442 -56 q 510 11 510 -56 l 510 708 l 713 708 l 713 -42 q 657 -181 713 -125 q 518 -236 601 -236 l 326 -236 m 714 829 l 510 829 l 510 1024 l 714 1024 l 714 829 z "},"":{"ha":806,"x_min":85,"x_max":856,"o":"m 303 0 l 100 0 l 100 708 l 303 708 l 303 0 m 279 819 l 85 819 l 196 1038 l 446 1038 l 279 819 m 326 -236 l 326 -56 l 442 -56 q 510 11 510 -56 l 510 708 l 713 708 l 713 -42 q 657 -181 713 -125 q 518 -236 601 -236 l 326 -236 m 689 819 l 494 819 l 606 1038 l 856 1038 l 689 819 z "},"ȷ":{"ha":403,"x_min":-76,"x_max":310,"o":"m -76 -236 l -76 -56 l 39 -56 q 107 11 107 -56 l 107 708 l 310 708 l 310 -42 q 254 -181 310 -125 q 115 -236 199 -236 l -76 -236 z "},"ĵ":{"ha":403,"x_min":-76,"x_max":493,"o":"m -76 -236 l -76 -56 l 39 -56 q 107 11 107 -56 l 107 708 l 310 708 l 310 -42 q 254 -181 310 -125 q 115 -236 199 -236 l -76 -236 m 121 819 l -76 819 l 97 1038 l 319 1038 l 493 819 l 296 819 l 211 926 l 206 926 l 121 819 z "},"ķ":{"ha":872,"x_min":100,"x_max":831,"o":"m 303 0 l 100 0 l 100 958 l 303 958 l 303 447 l 461 447 l 636 708 l 817 708 l 817 611 l 636 364 l 831 97 l 831 0 l 643 0 l 461 271 l 303 271 l 303 0 m 475 -393 l 365 -393 l 365 -87 l 560 -87 l 560 -236 l 475 -393 z "},"ḱ":{"ha":872,"x_min":100,"x_max":831,"o":"m 303 0 l 100 0 l 100 958 l 303 958 l 303 447 l 461 447 l 636 708 l 817 708 l 817 611 l 636 364 l 831 97 l 831 0 l 643 0 l 461 271 l 303 271 l 303 0 m 549 1056 l 354 1056 l 465 1274 l 715 1274 l 549 1056 z "},"ĺ":{"ha":403,"x_min":85,"x_max":446,"o":"m 303 0 l 100 0 l 100 958 l 303 958 l 303 0 m 279 1069 l 85 1069 l 196 1288 l 446 1288 l 279 1069 z "},"ľ":{"ha":403,"x_min":100,"x_max":604,"o":"m 303 0 l 100 0 l 100 958 l 303 958 l 303 0 m 519 746 l 410 746 l 410 1024 l 604 1024 l 604 913 l 519 746 z "},"ļ":{"ha":403,"x_min":100,"x_max":303,"o":"m 303 0 l 100 0 l 100 958 l 303 958 l 303 0 m 214 -393 l 104 -393 l 104 -87 l 299 -87 l 299 -236 l 214 -393 z "},"ŀ":{"ha":588,"x_min":100,"x_max":603,"o":"m 303 0 l 100 0 l 100 958 l 303 958 l 303 0 m 603 378 l 389 378 l 389 582 l 603 582 l 603 378 z "},"ł":{"ha":432,"x_min":17,"x_max":417,"o":"m 317 633 l 417 694 l 417 511 l 317 450 l 317 0 l 114 0 l 114 325 l 17 265 l 17 449 l 114 508 l 114 958 l 317 958 l 317 633 z "},"ḷ":{"ha":403,"x_min":94,"x_max":308,"o":"m 303 0 l 100 0 l 100 958 l 303 958 l 303 0 m 308 -308 l 94 -308 l 94 -104 l 308 -104 l 308 -308 z "},"ǉ":{"ha":806,"x_min":100,"x_max":714,"o":"m 303 0 l 100 0 l 100 958 l 303 958 l 303 0 m 326 -236 l 326 -56 l 442 -56 q 510 11 510 -56 l 510 708 l 713 708 l 713 -42 q 657 -181 713 -125 q 518 -236 601 -236 l 326 -236 m 714 829 l 510 829 l 510 1024 l 714 1024 l 714 829 z "},"ḿ":{"ha":1338,"x_min":93,"x_max":1246,"o":"m 93 0 l 93 708 l 240 708 l 274 628 l 281 628 q 342 693 297 664 q 444 722 386 722 l 556 722 q 658 693 614 722 q 719 628 703 664 l 726 628 q 789 693 744 664 q 892 722 833 722 l 1051 722 q 1190 667 1135 722 q 1246 528 1246 611 l 1246 0 l 1042 0 l 1042 472 q 975 539 1042 539 l 843 539 q 771 468 771 539 l 771 0 l 567 0 l 567 472 q 551 523 567 507 q 500 539 535 539 l 396 539 q 322 513 349 539 q 296 440 296 488 l 296 0 l 93 0 m 782 819 l 588 819 l 699 1038 l 949 1038 l 782 819 z "},"ń":{"ha":913,"x_min":93,"x_max":819,"o":"m 93 0 l 93 708 l 240 708 l 274 628 l 281 628 q 342 693 297 664 q 444 722 386 722 l 625 722 q 764 667 708 722 q 819 528 819 611 l 819 0 l 615 0 l 615 472 q 599 523 615 507 q 549 539 583 539 l 396 539 q 322 513 349 539 q 296 440 296 488 l 296 0 l 93 0 m 533 819 l 339 819 l 450 1038 l 700 1038 l 533 819 z "},"ň":{"ha":913,"x_min":93,"x_max":819,"o":"m 93 0 l 93 708 l 240 708 l 274 628 l 281 628 q 342 693 297 664 q 444 722 386 722 l 625 722 q 764 667 708 722 q 819 528 819 611 l 819 0 l 615 0 l 615 472 q 599 523 615 507 q 549 539 583 539 l 396 539 q 322 513 349 539 q 296 440 296 488 l 296 0 l 93 0 m 567 819 l 344 819 l 171 1038 l 368 1038 l 453 931 l 458 931 l 543 1038 l 740 1038 l 567 819 z "},"ņ":{"ha":913,"x_min":93,"x_max":819,"o":"m 93 0 l 93 708 l 240 708 l 274 628 l 281 628 q 342 693 297 664 q 444 722 386 722 l 625 722 q 764 667 708 722 q 819 528 819 611 l 819 0 l 615 0 l 615 472 q 599 523 615 507 q 549 539 583 539 l 396 539 q 322 513 349 539 q 296 440 296 488 l 296 0 l 93 0 m 468 -393 l 358 -393 l 358 -87 l 553 -87 l 553 -236 l 468 -393 z "},"ŋ":{"ha":913,"x_min":93,"x_max":819,"o":"m 433 -236 l 433 -76 l 549 -76 q 615 -10 615 -76 l 615 469 q 549 538 615 538 l 396 538 q 322 511 349 538 q 296 438 296 485 l 296 0 l 93 0 l 93 708 l 240 708 l 274 628 l 281 628 q 342 693 297 664 q 444 722 386 722 l 625 722 q 764 667 708 722 q 819 528 819 611 l 819 -42 q 764 -181 819 -125 q 625 -236 708 -236 l 433 -236 z "},"ñ":{"ha":913,"x_min":93,"x_max":819,"o":"m 93 0 l 93 708 l 240 708 l 274 628 l 281 628 q 342 693 297 664 q 444 722 386 722 l 625 722 q 764 667 708 722 q 819 528 819 611 l 819 0 l 615 0 l 615 472 q 599 523 615 507 q 549 539 583 539 l 396 539 q 322 513 349 539 q 296 440 296 488 l 296 0 l 93 0 m 600 813 q 517 826 554 813 q 439 863 481 839 q 397 884 413 878 q 368 890 382 890 q 350 871 350 890 l 350 819 l 208 819 l 208 942 q 235 1013 208 988 q 313 1039 263 1039 q 396 1025 358 1039 q 474 988 433 1011 q 515 966 500 972 q 544 960 531 960 q 563 979 563 960 l 563 1032 l 704 1032 l 704 911 q 677 839 704 865 q 600 813 650 813 z "},"ǌ":{"ha":1315,"x_min":93,"x_max":1224,"o":"m 93 0 l 93 708 l 240 708 l 274 628 l 281 628 q 342 693 297 664 q 444 722 386 722 l 625 722 q 764 667 708 722 q 819 528 819 611 l 819 0 l 615 0 l 615 472 q 599 523 615 507 q 549 539 583 539 l 396 539 q 322 513 349 539 q 296 440 296 488 l 296 0 l 93 0 m 836 -236 l 836 -56 l 951 -56 q 1019 11 1019 -56 l 1019 708 l 1222 708 l 1222 -42 q 1167 -181 1222 -125 q 1028 -236 1111 -236 l 836 -236 m 1224 829 l 1019 829 l 1019 1024 l 1224 1024 l 1224 829 z "},"ó":{"ha":913,"x_min":79,"x_max":833,"o":"m 274 -14 q 135 42 190 -14 q 79 181 79 97 l 79 528 q 135 667 79 611 q 274 722 190 722 l 639 722 q 778 667 722 722 q 833 528 833 611 l 833 181 q 778 42 833 97 q 639 -14 722 -14 l 274 -14 m 563 164 q 629 232 629 164 l 629 476 q 563 544 629 544 l 350 544 q 282 476 282 544 l 282 232 q 350 164 282 164 l 563 164 m 533 819 l 339 819 l 450 1038 l 700 1038 l 533 819 z "},"ŏ":{"ha":913,"x_min":79,"x_max":833,"o":"m 274 -14 q 135 42 190 -14 q 79 181 79 97 l 79 528 q 135 667 79 611 q 274 722 190 722 l 639 722 q 778 667 722 722 q 833 528 833 611 l 833 181 q 778 42 833 97 q 639 -14 722 -14 l 274 -14 m 563 164 q 629 232 629 164 l 629 476 q 563 544 629 544 l 350 544 q 282 476 282 544 l 282 232 q 350 164 282 164 l 563 164 m 306 819 q 219 854 254 819 q 185 940 185 889 l 185 1038 l 358 1038 l 358 993 q 397 954 358 954 l 514 954 q 553 993 553 954 l 553 1038 l 726 1038 l 726 940 q 692 854 726 889 q 606 819 657 819 l 306 819 z "},"ô":{"ha":913,"x_min":79,"x_max":833,"o":"m 274 -14 q 135 42 190 -14 q 79 181 79 97 l 79 528 q 135 667 79 611 q 274 722 190 722 l 639 722 q 778 667 722 722 q 833 528 833 611 l 833 181 q 778 42 833 97 q 639 -14 722 -14 l 274 -14 m 563 164 q 629 232 629 164 l 629 476 q 563 544 629 544 l 350 544 q 282 476 282 544 l 282 232 q 350 164 282 164 l 563 164 m 368 819 l 171 819 l 344 1038 l 567 1038 l 740 819 l 543 819 l 458 926 l 453 926 l 368 819 z "},"ö":{"ha":913,"x_min":79,"x_max":833,"o":"m 274 -14 q 135 42 190 -14 q 79 181 79 97 l 79 528 q 135 667 79 611 q 274 722 190 722 l 639 722 q 778 667 722 722 q 833 528 833 611 l 833 181 q 778 42 833 97 q 639 -14 722 -14 l 274 -14 m 563 164 q 629 232 629 164 l 629 476 q 563 544 629 544 l 350 544 q 282 476 282 544 l 282 232 q 350 164 282 164 l 563 164 m 390 829 l 192 829 l 192 1024 l 390 1024 l 390 829 m 719 829 l 521 829 l 521 1024 l 719 1024 l 719 829 z "},"ò":{"ha":913,"x_min":79,"x_max":833,"o":"m 274 -14 q 135 42 190 -14 q 79 181 79 97 l 79 528 q 135 667 79 611 q 274 722 190 722 l 639 722 q 778 667 722 722 q 833 528 833 611 l 833 181 q 778 42 833 97 q 639 -14 722 -14 l 274 -14 m 563 164 q 629 232 629 164 l 629 476 q 563 544 629 544 l 350 544 q 282 476 282 544 l 282 232 q 350 164 282 164 l 563 164 m 574 819 l 379 819 l 213 1038 l 463 1038 l 574 819 z "},"ő":{"ha":913,"x_min":79,"x_max":833,"o":"m 274 -14 q 135 42 190 -14 q 79 181 79 97 l 79 528 q 135 667 79 611 q 274 722 190 722 l 639 722 q 778 667 722 722 q 833 528 833 611 l 833 181 q 778 42 833 97 q 639 -14 722 -14 l 274 -14 m 563 164 q 629 232 629 164 l 629 476 q 563 544 629 544 l 350 544 q 282 476 282 544 l 282 232 q 350 164 282 164 l 563 164 m 374 819 l 207 819 l 318 1038 l 522 1038 l 374 819 m 668 819 l 501 819 l 613 1038 l 815 1038 l 668 819 z "},"ō":{"ha":913,"x_min":79,"x_max":833,"o":"m 274 -14 q 135 42 190 -14 q 79 181 79 97 l 79 528 q 135 667 79 611 q 274 722 190 722 l 639 722 q 778 667 722 722 q 833 528 833 611 l 833 181 q 778 42 833 97 q 639 -14 722 -14 l 274 -14 m 563 164 q 629 232 629 164 l 629 476 q 563 544 629 544 l 350 544 q 282 476 282 544 l 282 232 q 350 164 282 164 l 563 164 m 713 851 l 199 851 l 199 1004 l 713 1004 l 713 851 z "},"ø":{"ha":913,"x_min":79,"x_max":833,"o":"m 639 722 q 778 667 722 722 q 833 528 833 611 l 833 181 q 778 42 833 97 q 639 -14 722 -14 l 274 -14 q 135 42 190 -14 q 79 181 79 97 l 79 528 q 135 667 79 611 q 274 722 190 722 l 639 722 m 282 232 q 283 211 282 217 l 568 544 l 563 544 l 350 544 q 282 476 282 544 l 282 232 m 629 476 q 628 497 629 490 l 344 164 l 350 164 l 563 164 q 629 232 629 164 l 629 476 z "},"ǿ":{"ha":913,"x_min":79,"x_max":833,"o":"m 639 722 q 778 667 722 722 q 833 528 833 611 l 833 181 q 778 42 833 97 q 639 -14 722 -14 l 274 -14 q 135 42 190 -14 q 79 181 79 97 l 79 528 q 135 667 79 611 q 274 722 190 722 l 639 722 m 282 232 q 283 211 282 217 l 568 544 l 563 544 l 350 544 q 282 476 282 544 l 282 232 m 629 476 q 628 497 629 490 l 344 164 l 350 164 l 563 164 q 629 232 629 164 l 629 476 m 533 819 l 339 819 l 450 1038 l 700 1038 l 533 819 z "},"õ":{"ha":913,"x_min":79,"x_max":833,"o":"m 274 -14 q 135 42 190 -14 q 79 181 79 97 l 79 528 q 135 667 79 611 q 274 722 190 722 l 639 722 q 778 667 722 722 q 833 528 833 611 l 833 181 q 778 42 833 97 q 639 -14 722 -14 l 274 -14 m 563 164 q 629 232 629 164 l 629 476 q 563 544 629 544 l 350 544 q 282 476 282 544 l 282 232 q 350 164 282 164 l 563 164 m 600 813 q 517 826 554 813 q 439 863 481 839 q 397 884 413 878 q 368 890 382 890 q 350 871 350 890 l 350 819 l 208 819 l 208 942 q 235 1013 208 988 q 313 1039 263 1039 q 396 1025 358 1039 q 474 988 433 1011 q 515 966 500 972 q 544 960 531 960 q 563 979 563 960 l 563 1032 l 704 1032 l 704 911 q 677 839 704 865 q 600 813 650 813 z "},"œ":{"ha":1393,"x_min":79,"x_max":1315,"o":"m 274 -14 q 135 42 190 -14 q 79 181 79 97 l 79 528 q 135 667 79 611 q 274 722 190 722 l 565 722 q 649 700 613 722 q 704 650 686 678 l 711 650 q 767 700 728 678 q 857 722 807 722 l 1121 722 q 1260 667 1204 722 q 1315 528 1315 611 l 1315 278 l 806 278 l 806 233 q 872 167 806 167 l 1285 167 l 1285 0 l 850 0 q 769 21 806 0 q 715 67 732 42 l 708 67 q 651 11 692 36 q 558 -14 610 -14 l 274 -14 m 806 426 l 1111 426 l 1111 489 q 1044 556 1111 556 l 872 556 q 806 489 806 556 l 806 426 m 535 164 q 601 232 601 164 l 601 476 q 535 544 601 544 l 350 544 q 282 476 282 544 l 282 232 q 350 164 282 164 l 535 164 z "},"ṕ":{"ha":917,"x_min":93,"x_max":838,"o":"m 93 -236 l 93 708 l 240 708 l 274 628 l 281 628 q 342 693 297 664 q 444 722 386 722 l 643 722 q 782 667 726 722 q 838 528 838 611 l 838 194 q 782 56 838 111 q 643 0 726 0 l 296 0 l 296 -236 l 93 -236 m 567 181 q 635 247 635 181 l 635 475 q 567 542 635 542 l 396 542 q 322 515 349 542 q 296 443 296 489 l 296 181 l 567 181 m 556 819 l 361 819 l 472 1038 l 722 1038 l 556 819 z "},"þ":{"ha":924,"x_min":100,"x_max":844,"o":"m 100 -236 l 100 958 l 303 958 l 303 708 l 650 708 q 789 653 733 708 q 844 514 844 597 l 844 194 q 789 56 844 111 q 650 0 733 0 l 303 0 l 303 -236 l 100 -236 m 574 181 q 642 247 642 181 l 642 461 q 574 528 642 528 l 303 528 l 303 181 l 574 181 z "},"ŕ":{"ha":653,"x_min":93,"x_max":622,"o":"m 93 0 l 93 708 l 240 708 l 274 628 l 281 628 q 342 693 297 664 q 444 722 386 722 l 622 722 l 622 531 l 386 531 q 319 508 343 531 q 296 440 296 485 l 296 0 l 93 0 m 440 819 l 246 819 l 357 1038 l 607 1038 l 440 819 z "},"ř":{"ha":653,"x_min":79,"x_max":649,"o":"m 93 0 l 93 708 l 240 708 l 274 628 l 281 628 q 342 693 297 664 q 444 722 386 722 l 622 722 l 622 531 l 386 531 q 319 508 343 531 q 296 440 296 485 l 296 0 l 93 0 m 475 819 l 253 819 l 79 1038 l 276 1038 l 361 931 l 367 931 l 451 1038 l 649 1038 l 475 819 z "},"ŗ":{"ha":653,"x_min":93,"x_max":622,"o":"m 93 0 l 93 708 l 240 708 l 274 628 l 281 628 q 342 693 297 664 q 444 722 386 722 l 622 722 l 622 531 l 386 531 q 319 508 343 531 q 296 440 296 485 l 296 0 l 93 0 m 206 -393 l 96 -393 l 96 -87 l 290 -87 l 290 -236 l 206 -393 z "},"ś":{"ha":801,"x_min":65,"x_max":747,"o":"m 65 0 l 65 171 l 490 171 q 526 181 514 171 q 539 207 539 190 l 539 218 q 526 240 539 229 q 492 256 514 251 l 222 308 q 108 367 150 322 q 65 475 65 411 l 65 532 q 116 658 65 607 q 240 708 167 708 l 719 708 l 719 594 l 664 538 l 322 538 q 286 528 299 538 q 274 504 274 519 l 274 492 q 285 469 274 481 q 321 453 297 457 l 590 400 q 705 341 663 386 q 747 233 747 296 l 747 176 q 697 51 747 101 q 572 0 646 0 l 65 0 m 482 819 l 288 819 l 399 1038 l 649 1038 l 482 819 z "},"š":{"ha":801,"x_min":65,"x_max":747,"o":"m 65 0 l 65 171 l 490 171 q 526 181 514 171 q 539 207 539 190 l 539 218 q 526 240 539 229 q 492 256 514 251 l 222 308 q 108 367 150 322 q 65 475 65 411 l 65 532 q 116 658 65 607 q 240 708 167 708 l 719 708 l 719 594 l 664 538 l 322 538 q 286 528 299 538 q 274 504 274 519 l 274 492 q 285 469 274 481 q 321 453 297 457 l 590 400 q 705 341 663 386 q 747 233 747 296 l 747 176 q 697 51 747 101 q 572 0 646 0 l 65 0 m 517 819 l 294 819 l 121 1038 l 318 1038 l 403 931 l 408 931 l 493 1038 l 690 1038 l 517 819 z "},"ş":{"ha":801,"x_min":65,"x_max":747,"o":"m 590 400 q 705 341 663 386 q 747 233 747 296 l 747 176 q 697 51 747 101 q 572 0 646 0 l 426 0 l 413 -56 l 463 -56 q 549 -87 518 -56 q 581 -174 581 -119 l 581 -215 q 549 -301 581 -269 q 463 -333 518 -333 l 243 -333 l 243 -225 l 414 -225 q 436 -218 428 -225 q 444 -200 444 -211 l 444 -189 q 436 -171 444 -178 q 414 -164 428 -164 l 301 -164 l 257 -122 l 286 0 l 65 0 l 65 171 l 490 171 q 526 181 514 171 q 539 207 539 190 l 539 218 q 526 240 539 229 q 492 256 514 251 l 222 308 q 108 367 150 322 q 65 475 65 411 l 65 532 q 116 658 65 607 q 240 708 167 708 l 719 708 l 719 594 l 664 538 l 322 538 q 286 528 299 538 q 274 504 274 519 l 274 492 q 285 469 274 481 q 321 453 297 457 l 590 400 z "},"ŝ":{"ha":801,"x_min":65,"x_max":747,"o":"m 65 0 l 65 171 l 490 171 q 526 181 514 171 q 539 207 539 190 l 539 218 q 526 240 539 229 q 492 256 514 251 l 222 308 q 108 367 150 322 q 65 475 65 411 l 65 532 q 116 658 65 607 q 240 708 167 708 l 719 708 l 719 594 l 664 538 l 322 538 q 286 528 299 538 q 274 504 274 519 l 274 492 q 285 469 274 481 q 321 453 297 457 l 590 400 q 705 341 663 386 q 747 233 747 296 l 747 176 q 697 51 747 101 q 572 0 646 0 l 65 0 m 318 819 l 121 819 l 294 1038 l 517 1038 l 690 819 l 493 819 l 408 926 l 403 926 l 318 819 z "},"ș":{"ha":801,"x_min":65,"x_max":747,"o":"m 65 0 l 65 171 l 490 171 q 526 181 514 171 q 539 207 539 190 l 539 218 q 526 240 539 229 q 492 256 514 251 l 222 308 q 108 367 150 322 q 65 475 65 411 l 65 532 q 116 658 65 607 q 240 708 167 708 l 719 708 l 719 594 l 664 538 l 322 538 q 286 528 299 538 q 274 504 274 519 l 274 492 q 285 469 274 481 q 321 453 297 457 l 590 400 q 705 341 663 386 q 747 233 747 296 l 747 176 q 697 51 747 101 q 572 0 646 0 l 65 0 m 389 -393 l 279 -393 l 279 -87 l 474 -87 l 474 -236 l 389 -393 z "},"ß":{"ha":963,"x_min":100,"x_max":910,"o":"m 100 782 q 125 878 100 835 q 194 947 150 922 q 289 972 238 972 l 590 972 q 687 947 643 972 q 756 878 731 922 q 781 782 781 835 l 781 719 q 760 632 781 664 q 706 571 740 600 q 674 540 685 553 q 664 510 664 526 q 683 478 664 492 q 746 443 701 464 q 828 397 796 418 q 885 340 861 376 q 910 254 910 304 l 910 181 q 858 52 910 104 q 729 0 806 0 l 442 0 l 442 171 l 657 171 q 692 181 679 171 q 706 206 706 192 l 706 224 q 684 261 706 244 q 618 301 663 278 q 508 375 547 339 q 469 469 469 411 l 469 542 q 486 600 469 576 q 533 651 503 624 q 569 688 557 672 q 581 724 581 704 l 581 747 q 565 787 581 772 q 524 801 550 801 l 371 801 q 303 733 303 801 l 303 0 l 100 0 l 100 782 z "},"ŧ":{"ha":664,"x_min":35,"x_max":601,"o":"m 601 181 l 601 0 l 347 0 q 208 56 264 0 q 153 194 153 111 l 153 315 l 38 315 l 38 458 l 153 458 l 153 532 l 35 532 l 35 708 l 163 708 l 232 903 l 357 903 l 357 708 l 583 708 l 583 590 l 528 532 l 357 532 l 357 458 l 543 458 l 543 315 l 357 315 l 357 247 q 424 181 357 181 l 601 181 z "},"ť":{"ha":664,"x_min":35,"x_max":657,"o":"m 347 0 q 208 56 264 0 q 153 194 153 111 l 153 532 l 35 532 l 35 708 l 163 708 l 232 903 l 357 903 l 357 708 l 583 708 l 583 590 l 528 532 l 357 532 l 357 247 q 424 181 357 181 l 601 181 l 601 0 l 347 0 m 572 760 l 463 760 l 463 1038 l 657 1038 l 657 926 l 572 760 z "},"ţ":{"ha":664,"x_min":35,"x_max":601,"o":"m 601 0 l 431 0 l 417 -56 l 467 -56 q 553 -87 522 -56 q 585 -174 585 -119 l 585 -215 q 553 -301 585 -269 q 467 -333 522 -333 l 247 -333 l 247 -225 l 418 -225 q 440 -218 432 -225 q 449 -200 449 -211 l 449 -189 q 440 -171 449 -178 q 418 -164 432 -164 l 306 -164 l 261 -122 l 293 7 q 192 75 231 24 q 153 194 153 126 l 153 532 l 35 532 l 35 708 l 163 708 l 232 903 l 357 903 l 357 708 l 583 708 l 583 590 l 528 532 l 357 532 l 357 247 q 424 181 357 181 l 601 181 l 601 0 z "},"ț":{"ha":664,"x_min":35,"x_max":601,"o":"m 347 0 q 208 56 264 0 q 153 194 153 111 l 153 532 l 35 532 l 35 708 l 163 708 l 232 903 l 357 903 l 357 708 l 583 708 l 583 590 l 528 532 l 357 532 l 357 247 q 424 181 357 181 l 601 181 l 601 0 l 347 0 m 393 -393 l 283 -393 l 283 -87 l 478 -87 l 478 -236 l 393 -393 z "},"ú":{"ha":913,"x_min":93,"x_max":819,"o":"m 288 -14 q 149 42 204 -14 q 93 181 93 97 l 93 708 l 296 708 l 296 233 q 364 167 296 167 l 517 167 q 590 193 564 167 q 615 267 615 219 l 615 708 l 819 708 l 819 0 l 671 0 l 639 81 l 632 81 q 565 13 610 39 q 468 -14 521 -14 l 288 -14 m 533 819 l 339 819 l 450 1038 l 700 1038 l 533 819 z "},"ʉ":{"ha":940,"x_min":11,"x_max":928,"o":"m 928 517 l 928 346 l 833 346 l 833 0 l 685 0 l 653 81 l 646 81 q 579 13 624 39 q 482 -14 535 -14 l 301 -14 q 163 42 218 -14 q 107 181 107 97 l 107 346 l 11 346 l 11 517 l 107 517 l 107 708 l 310 708 l 310 517 l 629 517 l 629 708 l 833 708 l 833 517 l 928 517 m 629 346 l 310 346 l 310 233 q 378 167 310 167 l 531 167 q 603 193 578 167 q 629 267 629 219 l 629 346 z "},"ŭ":{"ha":913,"x_min":93,"x_max":819,"o":"m 288 -14 q 149 42 204 -14 q 93 181 93 97 l 93 708 l 296 708 l 296 233 q 364 167 296 167 l 517 167 q 590 193 564 167 q 615 267 615 219 l 615 708 l 819 708 l 819 0 l 671 0 l 639 81 l 632 81 q 565 13 610 39 q 468 -14 521 -14 l 288 -14 m 306 819 q 219 854 254 819 q 185 940 185 889 l 185 1038 l 358 1038 l 358 993 q 397 954 358 954 l 514 954 q 553 993 553 954 l 553 1038 l 726 1038 l 726 940 q 692 854 726 889 q 606 819 657 819 l 306 819 z "},"û":{"ha":913,"x_min":93,"x_max":819,"o":"m 288 -14 q 149 42 204 -14 q 93 181 93 97 l 93 708 l 296 708 l 296 233 q 364 167 296 167 l 517 167 q 590 193 564 167 q 615 267 615 219 l 615 708 l 819 708 l 819 0 l 671 0 l 639 81 l 632 81 q 565 13 610 39 q 468 -14 521 -14 l 288 -14 m 368 819 l 171 819 l 344 1038 l 567 1038 l 740 819 l 543 819 l 458 926 l 453 926 l 368 819 z "},"ü":{"ha":913,"x_min":93,"x_max":819,"o":"m 288 -14 q 149 42 204 -14 q 93 181 93 97 l 93 708 l 296 708 l 296 233 q 364 167 296 167 l 517 167 q 590 193 564 167 q 615 267 615 219 l 615 708 l 819 708 l 819 0 l 671 0 l 639 81 l 632 81 q 565 13 610 39 q 468 -14 521 -14 l 288 -14 m 390 829 l 192 829 l 192 1024 l 390 1024 l 390 829 m 719 829 l 521 829 l 521 1024 l 719 1024 l 719 829 z "},"ù":{"ha":913,"x_min":93,"x_max":819,"o":"m 288 -14 q 149 42 204 -14 q 93 181 93 97 l 93 708 l 296 708 l 296 233 q 364 167 296 167 l 517 167 q 590 193 564 167 q 615 267 615 219 l 615 708 l 819 708 l 819 0 l 671 0 l 639 81 l 632 81 q 565 13 610 39 q 468 -14 521 -14 l 288 -14 m 574 819 l 379 819 l 213 1038 l 463 1038 l 574 819 z "},"ű":{"ha":913,"x_min":93,"x_max":819,"o":"m 288 -14 q 149 42 204 -14 q 93 181 93 97 l 93 708 l 296 708 l 296 233 q 364 167 296 167 l 517 167 q 590 193 564 167 q 615 267 615 219 l 615 708 l 819 708 l 819 0 l 671 0 l 639 81 l 632 81 q 565 13 610 39 q 468 -14 521 -14 l 288 -14 m 374 819 l 207 819 l 318 1038 l 522 1038 l 374 819 m 668 819 l 501 819 l 613 1038 l 815 1038 l 668 819 z "},"ū":{"ha":913,"x_min":93,"x_max":819,"o":"m 288 -14 q 149 42 204 -14 q 93 181 93 97 l 93 708 l 296 708 l 296 233 q 364 167 296 167 l 517 167 q 590 193 564 167 q 615 267 615 219 l 615 708 l 819 708 l 819 0 l 671 0 l 639 81 l 632 81 q 565 13 610 39 q 468 -14 521 -14 l 288 -14 m 713 851 l 199 851 l 199 1004 l 713 1004 l 713 851 z "},"ų":{"ha":913,"x_min":93,"x_max":819,"o":"m 819 0 q 708 -84 749 -44 q 667 -157 667 -124 q 707 -197 667 -197 l 819 -197 l 819 -319 l 663 -319 q 555 -285 593 -319 q 517 -192 517 -250 q 563 -87 517 -137 q 671 0 608 -36 l 639 81 l 632 81 q 565 13 610 39 q 468 -14 521 -14 l 288 -14 q 149 42 204 -14 q 93 181 93 97 l 93 708 l 296 708 l 296 233 q 364 167 296 167 l 517 167 q 590 193 564 167 q 615 267 615 219 l 615 708 l 819 708 l 819 0 z "},"ů":{"ha":913,"x_min":93,"x_max":819,"o":"m 288 -14 q 149 42 204 -14 q 93 181 93 97 l 93 708 l 296 708 l 296 233 q 364 167 296 167 l 517 167 q 590 193 564 167 q 615 267 615 219 l 615 708 l 819 708 l 819 0 l 671 0 l 639 81 l 632 81 q 565 13 610 39 q 468 -14 521 -14 l 288 -14 m 399 778 q 308 816 346 778 q 271 906 271 854 l 271 951 q 308 1042 271 1004 q 399 1079 346 1079 l 514 1079 q 603 1042 565 1079 q 642 951 642 1004 l 642 906 q 603 816 642 854 q 514 778 565 778 l 399 778 m 482 886 q 503 894 494 886 q 511 917 511 903 l 511 940 q 503 961 511 953 q 482 969 494 969 l 431 969 q 408 961 417 969 q 400 940 400 953 l 400 917 q 408 894 400 903 q 431 886 417 886 l 482 886 z "},"ũ":{"ha":913,"x_min":93,"x_max":819,"o":"m 288 -14 q 149 42 204 -14 q 93 181 93 97 l 93 708 l 296 708 l 296 233 q 364 167 296 167 l 517 167 q 590 193 564 167 q 615 267 615 219 l 615 708 l 819 708 l 819 0 l 671 0 l 639 81 l 632 81 q 565 13 610 39 q 468 -14 521 -14 l 288 -14 m 600 813 q 517 826 554 813 q 439 863 481 839 q 397 884 413 878 q 368 890 382 890 q 350 871 350 890 l 350 819 l 208 819 l 208 942 q 235 1013 208 988 q 313 1039 263 1039 q 396 1025 358 1039 q 474 988 433 1011 q 515 966 500 972 q 544 960 531 960 q 563 979 563 960 l 563 1032 l 704 1032 l 704 911 q 677 839 704 865 q 600 813 650 813 z "},"ǔ":{"ha":913,"x_min":93,"x_max":819,"o":"m 288 -14 q 149 42 204 -14 q 93 181 93 97 l 93 708 l 296 708 l 296 233 q 364 167 296 167 l 517 167 q 590 193 564 167 q 615 267 615 219 l 615 708 l 819 708 l 819 0 l 671 0 l 639 81 l 632 81 q 565 13 610 39 q 468 -14 521 -14 l 288 -14 m 567 819 l 344 819 l 171 1038 l 368 1038 l 453 931 l 458 931 l 543 1038 l 740 1038 l 567 819 z "},"ẃ":{"ha":1190,"x_min":39,"x_max":1150,"o":"m 449 0 l 225 0 l 39 611 l 39 708 l 250 708 l 350 253 l 358 253 l 503 708 l 688 708 l 831 253 l 840 253 l 940 708 l 1150 708 l 1150 611 l 965 0 l 740 0 l 600 444 l 590 444 l 449 0 m 672 819 l 478 819 l 589 1038 l 839 1038 l 672 819 z "},"ŵ":{"ha":1190,"x_min":39,"x_max":1150,"o":"m 449 0 l 225 0 l 39 611 l 39 708 l 250 708 l 350 253 l 358 253 l 503 708 l 688 708 l 831 253 l 840 253 l 940 708 l 1150 708 l 1150 611 l 965 0 l 740 0 l 600 444 l 590 444 l 449 0 m 508 819 l 311 819 l 485 1038 l 707 1038 l 881 819 l 683 819 l 599 926 l 593 926 l 508 819 z "},"ẅ":{"ha":1190,"x_min":39,"x_max":1150,"o":"m 449 0 l 225 0 l 39 611 l 39 708 l 250 708 l 350 253 l 358 253 l 503 708 l 688 708 l 831 253 l 840 253 l 940 708 l 1150 708 l 1150 611 l 965 0 l 740 0 l 600 444 l 590 444 l 449 0 m 531 829 l 332 829 l 332 1024 l 531 1024 l 531 829 m 860 829 l 661 829 l 661 1024 l 860 1024 l 860 829 z "},"ẁ":{"ha":1190,"x_min":39,"x_max":1150,"o":"m 449 0 l 225 0 l 39 611 l 39 708 l 250 708 l 350 253 l 358 253 l 503 708 l 688 708 l 831 253 l 840 253 l 940 708 l 1150 708 l 1150 611 l 965 0 l 740 0 l 600 444 l 590 444 l 449 0 m 713 819 l 518 819 l 351 1038 l 601 1038 l 713 819 z "},"ẍ":{"ha":833,"x_min":42,"x_max":792,"o":"m 232 0 l 42 0 l 42 97 l 261 354 l 56 611 l 56 708 l 250 708 l 413 469 l 421 469 l 583 708 l 778 708 l 778 611 l 572 368 l 792 97 l 792 0 l 601 0 l 421 239 l 413 239 l 232 0 m 351 829 l 153 829 l 153 1024 l 351 1024 l 351 829 m 681 829 l 482 829 l 482 1024 l 681 1024 l 681 829 z "},"ý":{"ha":815,"x_min":32,"x_max":782,"o":"m 592 708 l 782 708 l 782 613 l 536 -24 q 435 -182 496 -128 q 275 -236 374 -236 l 100 -236 l 100 -53 l 225 -53 q 274 -37 253 -53 q 304 13 296 -21 l 306 17 l 32 613 l 32 708 l 226 708 l 424 236 l 433 236 l 592 708 m 489 819 l 294 819 l 406 1038 l 656 1038 l 489 819 z "},"ŷ":{"ha":815,"x_min":32,"x_max":782,"o":"m 592 708 l 782 708 l 782 613 l 536 -24 q 435 -182 496 -128 q 275 -236 374 -236 l 100 -236 l 100 -53 l 225 -53 q 274 -37 253 -53 q 304 13 296 -21 l 306 17 l 32 613 l 32 708 l 226 708 l 424 236 l 433 236 l 592 708 m 324 819 l 126 819 l 300 1038 l 522 1038 l 696 819 l 499 819 l 414 926 l 408 926 l 324 819 z "},"ÿ":{"ha":815,"x_min":32,"x_max":782,"o":"m 592 708 l 782 708 l 782 613 l 536 -24 q 435 -182 496 -128 q 275 -236 374 -236 l 100 -236 l 100 -53 l 225 -53 q 274 -37 253 -53 q 304 13 296 -21 l 306 17 l 32 613 l 32 708 l 226 708 l 424 236 l 433 236 l 592 708 m 346 829 l 147 829 l 147 1024 l 346 1024 l 346 829 m 675 829 l 476 829 l 476 1024 l 675 1024 l 675 829 z "},"ỳ":{"ha":815,"x_min":32,"x_max":782,"o":"m 592 708 l 782 708 l 782 613 l 536 -24 q 435 -182 496 -128 q 275 -236 374 -236 l 100 -236 l 100 -53 l 225 -53 q 274 -37 253 -53 q 304 13 296 -21 l 306 17 l 32 613 l 32 708 l 226 708 l 424 236 l 433 236 l 592 708 m 529 819 l 335 819 l 168 1038 l 418 1038 l 529 819 z "},"ȳ":{"ha":815,"x_min":32,"x_max":782,"o":"m 592 708 l 782 708 l 782 613 l 536 -24 q 435 -182 496 -128 q 275 -236 374 -236 l 100 -236 l 100 -53 l 225 -53 q 274 -37 253 -53 q 304 13 296 -21 l 306 17 l 32 613 l 32 708 l 226 708 l 424 236 l 433 236 l 592 708 m 668 851 l 154 851 l 154 1004 l 668 1004 l 668 851 z "},"ỹ":{"ha":815,"x_min":32,"x_max":782,"o":"m 592 708 l 782 708 l 782 613 l 536 -24 q 435 -182 496 -128 q 275 -236 374 -236 l 100 -236 l 100 -53 l 225 -53 q 274 -37 253 -53 q 304 13 296 -21 l 306 17 l 32 613 l 32 708 l 226 708 l 424 236 l 433 236 l 592 708 m 556 813 q 473 826 510 813 q 394 863 436 839 q 353 884 368 878 q 324 890 338 890 q 306 871 306 890 l 306 819 l 164 819 l 164 942 q 191 1013 164 988 q 268 1039 218 1039 q 351 1025 314 1039 q 429 988 389 1011 q 471 966 456 972 q 500 960 486 960 q 518 979 518 960 l 518 1032 l 660 1032 l 660 911 q 633 839 660 865 q 556 813 606 813 z "},"ź":{"ha":778,"x_min":51,"x_max":722,"o":"m 722 0 l 51 0 l 51 163 l 426 524 l 426 532 l 111 532 l 56 590 l 56 708 l 722 708 l 722 546 l 347 185 l 347 176 l 722 176 l 722 0 m 467 819 l 272 819 l 383 1038 l 633 1038 l 467 819 z "},"ž":{"ha":778,"x_min":51,"x_max":722,"o":"m 722 0 l 51 0 l 51 163 l 426 524 l 426 532 l 111 532 l 56 590 l 56 708 l 722 708 l 722 546 l 347 185 l 347 176 l 722 176 l 722 0 m 501 819 l 279 819 l 106 1038 l 303 1038 l 388 931 l 393 931 l 478 1038 l 675 1038 l 501 819 z "},"ż":{"ha":778,"x_min":51,"x_max":722,"o":"m 722 0 l 51 0 l 51 163 l 426 524 l 426 532 l 111 532 l 56 590 l 56 708 l 722 708 l 722 546 l 347 185 l 347 176 l 722 176 l 722 0 m 492 829 l 288 829 l 288 1024 l 492 1024 l 492 829 z "},"ﬁ":{"ha":983,"x_min":100,"x_max":885,"o":"m 100 778 q 156 917 100 861 q 294 972 211 972 l 864 972 l 864 796 l 371 796 q 303 729 303 796 l 303 639 l 885 639 l 885 0 l 681 0 l 681 463 l 303 463 l 303 0 l 100 0 l 100 778 z "},"ﬂ":{"ha":983,"x_min":100,"x_max":885,"o":"m 100 778 q 156 917 100 861 q 294 972 211 972 l 885 972 l 885 0 l 681 0 l 681 796 l 371 796 q 303 729 303 796 l 303 639 l 558 639 l 558 532 l 518 463 l 303 463 l 303 0 l 100 0 l 100 778 z "},"А":{"ha":1083,"x_min":24,"x_max":1060,"o":"m 400 972 l 683 972 l 1060 108 l 1060 0 l 854 0 l 781 188 l 303 188 l 229 0 l 24 0 l 24 108 l 400 972 m 536 778 l 376 372 l 707 372 l 547 778 l 536 778 z "},"Б":{"ha":1100,"x_min":115,"x_max":1031,"o":"m 115 0 l 115 972 l 961 972 l 961 847 l 892 778 l 333 778 l 333 597 l 803 597 q 968 535 906 597 q 1031 371 1031 474 l 1031 226 q 968 62 1031 124 q 803 0 906 0 l 115 0 m 736 185 q 813 261 813 185 l 813 340 q 736 417 813 417 l 333 417 l 333 185 l 736 185 z "},"В":{"ha":1118,"x_min":115,"x_max":1042,"o":"m 115 0 l 115 972 l 788 972 q 952 910 890 972 q 1014 746 1014 849 l 1014 704 q 976 572 1014 621 q 889 514 938 524 l 889 504 q 994 444 947 494 q 1042 306 1042 393 l 1042 226 q 980 63 1042 125 q 815 0 918 0 l 115 0 m 715 590 q 792 667 792 590 l 792 711 q 715 788 792 788 l 333 788 l 333 590 l 715 590 m 743 185 q 819 261 819 185 l 819 329 q 743 406 819 406 l 333 406 l 333 185 l 743 185 z "},"Г":{"ha":931,"x_min":115,"x_max":903,"o":"m 333 0 l 115 0 l 115 972 l 903 972 l 903 847 l 833 778 l 333 778 l 333 0 z "},"Д":{"ha":1169,"x_min":3,"x_max":1139,"o":"m 3 -181 l 3 194 l 76 194 q 128 248 104 213 q 160 338 153 283 l 243 972 l 1028 972 l 1028 194 l 1139 194 l 1139 -181 l 921 -181 l 921 0 l 219 0 l 219 -181 l 3 -181 m 315 194 l 810 194 l 810 778 l 432 778 l 376 338 q 351 250 369 285 q 315 204 333 215 l 315 194 z "},"Е":{"ha":1007,"x_min":115,"x_max":944,"o":"m 944 0 l 115 0 l 115 972 l 944 972 l 944 851 l 875 782 l 333 782 l 333 583 l 796 583 l 796 399 l 333 399 l 333 190 l 944 190 l 944 0 z "},"Ё":{"ha":1007,"x_min":115,"x_max":944,"o":"m 944 0 l 115 0 l 115 972 l 944 972 l 944 851 l 875 782 l 333 782 l 333 583 l 796 583 l 796 399 l 333 399 l 333 190 l 944 190 l 944 0 m 468 1079 l 269 1079 l 269 1274 l 468 1274 l 468 1079 m 797 1079 l 599 1079 l 599 1274 l 797 1274 l 797 1079 z "},"Ж":{"ha":1660,"x_min":49,"x_max":1611,"o":"m 243 0 l 49 0 l 49 108 l 336 510 l 65 864 l 65 972 l 257 972 l 524 593 l 721 593 l 721 972 l 939 972 l 939 593 l 1136 593 l 1404 972 l 1596 972 l 1596 864 l 1325 510 l 1611 108 l 1611 0 l 1417 0 l 1140 393 l 939 393 l 939 0 l 721 0 l 721 393 l 521 393 l 243 0 z "},"З":{"ha":1017,"x_min":56,"x_max":940,"o":"m 56 0 l 56 190 l 642 190 q 718 267 718 190 l 718 326 q 642 403 718 403 l 264 403 l 264 588 l 628 588 q 704 664 704 588 l 704 706 q 628 782 704 782 l 129 782 l 60 851 l 60 972 l 699 972 q 864 910 801 972 q 926 746 926 849 l 926 704 q 884 573 926 622 q 790 514 842 524 l 790 504 q 894 444 847 494 q 940 306 940 393 l 940 226 q 878 62 940 124 q 713 0 815 0 l 56 0 z "},"И":{"ha":1192,"x_min":115,"x_max":1076,"o":"m 336 0 l 115 0 l 115 972 l 333 972 l 333 486 l 315 301 l 325 301 l 857 972 l 1076 972 l 1076 0 l 858 0 l 858 486 l 876 671 l 868 671 l 336 0 z "},"Й":{"ha":1192,"x_min":115,"x_max":1076,"o":"m 336 0 l 115 0 l 115 972 l 333 972 l 333 486 l 315 301 l 325 301 l 857 972 l 1076 972 l 1076 0 l 858 0 l 858 486 l 876 671 l 868 671 l 336 0 m 431 1069 q 344 1104 379 1069 q 310 1190 310 1139 l 310 1301 l 483 1301 l 483 1243 q 522 1204 483 1204 l 671 1204 q 710 1243 710 1204 l 710 1301 l 883 1301 l 883 1190 q 849 1104 883 1139 q 764 1069 814 1069 l 431 1069 z "},"К":{"ha":1111,"x_min":115,"x_max":1063,"o":"m 333 0 l 115 0 l 115 972 l 333 972 l 333 593 l 588 593 l 854 972 l 1046 972 l 1046 864 l 775 510 l 1063 108 l 1063 0 l 868 0 l 590 393 l 333 393 l 333 0 z "},"Л":{"ha":1176,"x_min":7,"x_max":1060,"o":"m 7 -14 l 7 181 l 106 181 q 154 200 138 181 q 176 261 171 219 l 268 972 l 1060 972 l 1060 0 l 843 0 l 843 778 l 461 778 l 392 213 q 315 47 378 107 q 156 -14 253 -14 l 7 -14 z "},"М":{"ha":1393,"x_min":65,"x_max":1329,"o":"m 282 0 l 65 0 l 65 108 l 171 972 l 414 972 l 692 403 l 701 403 l 979 972 l 1222 972 l 1329 108 l 1329 0 l 1111 0 l 1049 656 l 1040 656 l 788 139 l 607 139 l 354 656 l 344 656 l 282 0 z "},"Н":{"ha":1176,"x_min":115,"x_max":1060,"o":"m 333 0 l 115 0 l 115 972 l 333 972 l 333 593 l 843 593 l 843 972 l 1060 972 l 1060 0 l 843 0 l 843 393 l 333 393 l 333 0 z "},"О":{"ha":1157,"x_min":97,"x_max":1060,"o":"m 324 -14 q 160 49 222 -14 q 97 213 97 111 l 97 760 q 160 924 97 863 q 324 986 222 986 l 833 986 q 998 924 936 986 q 1060 760 1060 863 l 1060 213 q 998 49 1060 111 q 833 -14 936 -14 l 324 -14 m 767 178 q 843 254 843 178 l 843 718 q 767 794 843 794 l 392 794 q 315 718 315 794 l 315 254 q 392 178 315 178 l 767 178 z "},"П":{"ha":1163,"x_min":115,"x_max":1046,"o":"m 333 0 l 115 0 l 115 972 l 1046 972 l 1046 0 l 829 0 l 829 778 l 333 778 l 333 0 z "},"Р":{"ha":1111,"x_min":115,"x_max":1028,"o":"m 115 0 l 115 972 l 801 972 q 966 910 904 972 q 1028 746 1028 849 l 1028 518 q 966 354 1028 417 q 801 292 904 292 l 333 292 l 333 0 l 115 0 m 733 482 q 810 558 810 482 l 810 706 q 733 782 810 782 l 333 782 l 333 482 l 733 482 z "},"С":{"ha":1025,"x_min":97,"x_max":963,"o":"m 324 0 q 160 63 222 0 q 97 226 97 125 l 97 746 q 160 910 97 849 q 324 972 222 972 l 963 972 l 963 847 l 893 778 l 392 778 q 315 701 315 778 l 315 271 q 392 194 315 194 l 963 194 l 963 0 l 324 0 z "},"Т":{"ha":1000,"x_min":28,"x_max":972,"o":"m 608 0 l 392 0 l 392 778 l 28 778 l 28 972 l 972 972 l 972 847 l 903 778 l 608 778 l 608 0 z "},"У":{"ha":1042,"x_min":39,"x_max":1017,"o":"m 813 972 l 1017 972 l 1017 864 l 690 233 q 603 95 646 147 q 499 15 560 43 q 347 -14 438 -14 l 164 -14 l 164 176 l 319 176 q 371 186 353 176 q 403 218 389 196 l 422 247 l 39 864 l 39 972 l 249 972 l 547 451 l 561 451 l 813 972 z "},"Ф":{"ha":1454,"x_min":83,"x_max":1371,"o":"m 618 -32 l 618 69 l 310 69 q 146 132 208 69 q 83 296 83 194 l 83 690 q 146 855 83 793 q 310 917 208 917 l 618 917 l 618 1018 l 836 1018 l 836 917 l 1143 917 q 1308 855 1246 917 q 1371 690 1371 793 l 1371 296 q 1308 131 1371 193 q 1143 69 1246 69 l 836 69 l 836 -32 l 618 -32 m 618 257 l 618 729 l 378 729 q 301 653 301 729 l 301 333 q 378 257 301 257 l 618 257 m 1076 257 q 1153 333 1153 257 l 1153 653 q 1076 729 1153 729 l 836 729 l 836 257 l 1076 257 z "},"Х":{"ha":1069,"x_min":46,"x_max":1024,"o":"m 250 0 l 46 0 l 46 108 l 365 483 l 72 864 l 72 972 l 275 972 l 528 628 l 542 628 l 794 972 l 997 972 l 997 864 l 704 493 l 1024 108 l 1024 0 l 819 0 l 542 350 l 528 350 l 250 0 z "},"Ц":{"ha":1183,"x_min":115,"x_max":1153,"o":"m 1153 -181 l 935 -181 l 935 0 l 115 0 l 115 972 l 333 972 l 333 194 l 824 194 l 824 972 l 1042 972 l 1042 194 l 1153 194 l 1153 -181 z "},"Ч":{"ha":1115,"x_min":83,"x_max":1000,"o":"m 782 0 l 782 319 l 310 319 q 146 382 208 319 q 83 546 83 444 l 83 972 l 301 972 l 301 590 q 378 514 301 514 l 782 514 l 782 972 l 1000 972 l 1000 0 l 782 0 z "},"Ш":{"ha":1635,"x_min":115,"x_max":1518,"o":"m 1518 0 l 115 0 l 115 972 l 333 972 l 333 194 l 708 194 l 708 972 l 926 972 l 926 194 l 1301 194 l 1301 972 l 1518 972 l 1518 0 z "},"Щ":{"ha":1660,"x_min":115,"x_max":1629,"o":"m 1629 -181 l 1413 -181 l 1413 0 l 115 0 l 115 972 l 333 972 l 333 194 l 708 194 l 708 972 l 926 972 l 926 194 l 1301 194 l 1301 972 l 1518 972 l 1518 194 l 1629 194 l 1629 -181 z "},"Ъ":{"ha":1218,"x_min":14,"x_max":1136,"o":"m 233 0 l 233 782 l 14 782 l 14 972 l 451 972 l 451 653 l 910 653 q 1074 591 1013 653 q 1136 426 1136 529 l 1136 226 q 1074 63 1136 125 q 910 0 1013 0 l 233 0 m 843 190 q 919 267 919 190 l 919 386 q 843 463 919 463 l 451 463 l 451 190 l 843 190 z "},"Ы":{"ha":1504,"x_min":115,"x_max":1389,"o":"m 115 0 l 115 972 l 333 972 l 333 653 l 792 653 q 956 591 894 653 q 1018 426 1018 529 l 1018 226 q 956 63 1018 125 q 792 0 894 0 l 115 0 m 1389 0 l 1171 0 l 1171 972 l 1389 972 l 1389 0 m 725 190 q 801 267 801 190 l 801 386 q 725 463 801 463 l 333 463 l 333 190 l 725 190 z "},"Ь":{"ha":1118,"x_min":115,"x_max":1038,"o":"m 115 0 l 115 972 l 333 972 l 333 653 l 810 653 q 975 591 913 653 q 1038 426 1038 529 l 1038 226 q 975 62 1038 124 q 810 0 913 0 l 115 0 m 743 190 q 819 267 819 190 l 819 386 q 743 463 819 463 l 333 463 l 333 190 l 743 190 z "},"Э":{"ha":1018,"x_min":56,"x_max":921,"o":"m 56 0 l 56 190 l 628 190 q 704 267 704 190 l 704 399 l 261 399 l 261 583 l 704 583 l 704 706 q 628 782 704 782 l 125 782 l 56 851 l 56 972 l 694 972 q 859 910 797 972 q 921 746 921 849 l 921 226 q 859 63 921 125 q 694 0 797 0 l 56 0 z "},"Ю":{"ha":1574,"x_min":115,"x_max":1476,"o":"m 794 -14 q 629 48 692 -14 q 567 213 567 110 l 567 389 l 333 389 l 333 0 l 115 0 l 115 972 l 333 972 l 333 588 l 567 588 l 567 760 q 629 924 567 863 q 794 986 692 986 l 1250 986 q 1415 924 1353 986 q 1476 760 1476 863 l 1476 213 q 1415 49 1476 111 q 1250 -14 1353 -14 l 794 -14 m 1183 178 q 1260 254 1260 178 l 1260 718 q 1183 794 1260 794 l 861 794 q 785 718 785 794 l 785 254 q 861 178 785 178 l 1183 178 z "},"Я":{"ha":1118,"x_min":72,"x_max":1003,"o":"m 72 0 l 72 108 l 288 361 q 199 388 243 364 q 126 460 156 413 q 97 575 97 507 l 97 746 q 160 910 97 849 q 324 972 222 972 l 1003 972 l 1003 0 l 785 0 l 785 347 l 544 347 l 267 0 l 72 0 m 785 538 l 785 782 l 392 782 q 315 706 315 782 l 315 614 q 392 538 315 538 l 785 538 z "},"Ѓ":{"ha":931,"x_min":115,"x_max":903,"o":"m 333 0 l 115 0 l 115 972 l 903 972 l 903 847 l 833 778 l 333 778 l 333 0 m 581 1069 l 386 1069 l 497 1288 l 747 1288 l 581 1069 z "},"Ґ":{"ha":931,"x_min":115,"x_max":903,"o":"m 333 0 l 115 0 l 115 972 l 701 972 l 725 1093 l 903 1093 l 903 778 l 333 778 l 333 0 z "},"Ќ":{"ha":1111,"x_min":115,"x_max":1063,"o":"m 333 0 l 115 0 l 115 972 l 333 972 l 333 593 l 588 593 l 854 972 l 1046 972 l 1046 864 l 775 510 l 1063 108 l 1063 0 l 868 0 l 590 393 l 333 393 l 333 0 m 649 1069 l 454 1069 l 565 1288 l 815 1288 l 649 1069 z "},"Є":{"ha":1025,"x_min":97,"x_max":963,"o":"m 324 0 q 160 63 222 0 q 97 226 97 125 l 97 746 q 160 910 97 849 q 324 972 222 972 l 963 972 l 963 851 l 893 782 l 392 782 q 315 706 315 782 l 315 583 l 757 583 l 757 399 l 315 399 l 315 267 q 392 190 315 190 l 963 190 l 963 0 l 324 0 z "},"Ѕ":{"ha":1049,"x_min":76,"x_max":983,"o":"m 76 0 l 76 192 l 685 192 q 761 268 761 192 l 761 288 q 743 339 761 319 q 690 364 725 358 l 294 424 q 133 497 189 439 q 76 649 76 556 l 76 746 q 139 910 76 849 q 303 972 201 972 l 956 972 l 956 850 l 886 781 l 375 781 q 299 704 299 781 l 299 689 q 317 638 299 658 q 369 613 336 618 l 767 553 q 928 481 872 538 q 983 329 983 424 l 983 226 q 922 63 983 125 q 757 0 860 0 l 76 0 z "},"І":{"ha":449,"x_min":115,"x_max":333,"o":"m 333 0 l 115 0 l 115 972 l 333 972 l 333 0 z "},"Ї":{"ha":449,"x_min":-39,"x_max":489,"o":"m 333 0 l 115 0 l 115 972 l 333 972 l 333 0 m 160 1079 l -39 1079 l -39 1274 l 160 1274 l 160 1079 m 489 1079 l 290 1079 l 290 1274 l 489 1274 l 489 1079 z "},"Ј":{"ha":799,"x_min":35,"x_max":690,"o":"m 35 -14 l 35 181 l 396 181 q 472 257 472 181 l 472 972 l 690 972 l 690 213 q 628 48 690 110 q 463 -14 565 -14 l 35 -14 z "},"Љ":{"ha":1757,"x_min":7,"x_max":1676,"o":"m 7 -14 l 7 181 l 106 181 q 151 195 132 181 q 176 261 169 210 l 268 972 l 1018 972 l 1018 621 l 1449 621 q 1614 558 1551 621 q 1676 393 1676 496 l 1676 226 q 1614 62 1676 124 q 1449 0 1551 0 l 801 0 l 801 778 l 461 778 l 392 213 q 315 47 378 107 q 156 -14 253 -14 l 7 -14 m 1382 190 q 1458 267 1458 190 l 1458 354 q 1382 431 1458 431 l 1018 431 l 1018 190 l 1382 190 z "},"Њ":{"ha":1757,"x_min":115,"x_max":1676,"o":"m 115 0 l 115 972 l 333 972 l 333 621 l 801 621 l 801 972 l 1018 972 l 1018 621 l 1449 621 q 1614 558 1551 621 q 1676 393 1676 496 l 1676 226 q 1614 62 1676 124 q 1449 0 1551 0 l 801 0 l 801 431 l 333 431 l 333 0 l 115 0 m 1382 190 q 1458 267 1458 190 l 1458 354 q 1382 431 1458 431 l 1018 431 l 1018 190 l 1382 190 z "},"Ћ":{"ha":1285,"x_min":14,"x_max":1192,"o":"m 275 0 l 275 782 l 14 782 l 14 972 l 879 972 l 879 851 l 810 782 l 493 782 l 493 611 l 965 611 q 1130 549 1068 611 q 1192 385 1192 488 l 1192 0 l 975 0 l 975 344 q 899 421 975 421 l 493 421 l 493 0 l 275 0 z "},"Ђ":{"ha":1285,"x_min":14,"x_max":1192,"o":"m 764 -28 l 764 163 l 899 163 q 975 239 975 163 l 975 344 q 899 421 975 421 l 493 421 l 493 0 l 275 0 l 275 782 l 14 782 l 14 972 l 879 972 l 879 851 l 810 782 l 493 782 l 493 611 l 965 611 q 1130 549 1068 611 q 1192 385 1192 488 l 1192 199 q 1130 35 1192 97 q 965 -28 1068 -28 l 764 -28 z "},"Ў":{"ha":1042,"x_min":39,"x_max":1017,"o":"m 813 972 l 1017 972 l 1017 864 l 690 233 q 603 95 646 147 q 499 15 560 43 q 347 -14 438 -14 l 164 -14 l 164 176 l 319 176 q 371 186 353 176 q 403 218 389 196 l 422 247 l 39 864 l 39 972 l 249 972 l 547 451 l 561 451 l 813 972 m 364 1069 q 278 1104 313 1069 q 243 1190 243 1139 l 243 1301 l 417 1301 l 417 1243 q 456 1204 417 1204 l 604 1204 q 643 1243 643 1204 l 643 1301 l 817 1301 l 817 1190 q 782 1104 817 1139 q 697 1069 747 1069 l 364 1069 z "},"Џ":{"ha":1157,"x_min":115,"x_max":1042,"o":"m 688 -181 l 469 -181 l 469 0 l 115 0 l 115 972 l 333 972 l 333 194 l 824 194 l 824 972 l 1042 972 l 1042 0 l 688 0 l 688 -181 z "},"а":{"ha":864,"x_min":63,"x_max":771,"o":"m 257 -14 q 118 42 174 -14 q 63 181 63 97 l 63 236 q 118 375 63 319 q 257 431 174 431 l 567 431 l 567 475 q 500 542 567 542 l 122 542 l 122 708 l 576 708 q 715 653 660 708 q 771 514 771 597 l 771 0 l 622 0 l 590 81 l 583 81 q 522 15 567 44 q 419 -14 478 -14 l 257 -14 m 468 153 q 541 179 515 153 q 567 253 567 206 l 567 288 l 324 288 q 280 274 293 288 q 267 229 267 260 l 267 211 q 280 167 267 181 q 324 153 293 153 l 468 153 z "},"б":{"ha":907,"x_min":93,"x_max":829,"o":"m 288 -14 q 149 42 204 -14 q 93 181 93 97 l 93 671 q 151 842 93 775 q 311 922 210 908 l 778 989 l 803 808 l 367 749 q 316 719 336 744 q 296 658 296 694 l 296 539 l 303 539 q 360 599 318 572 q 463 625 403 625 l 635 625 q 774 569 718 625 q 829 431 829 514 l 829 181 q 774 42 829 97 q 635 -14 718 -14 l 288 -14 m 558 163 q 625 229 625 163 l 625 378 q 558 444 625 444 l 396 444 q 322 418 349 444 q 296 344 296 392 l 296 229 q 364 163 296 163 l 558 163 z "},"в":{"ha":878,"x_min":93,"x_max":817,"o":"m 93 0 l 93 708 l 628 708 q 755 659 707 708 q 803 531 803 610 l 803 496 q 776 409 803 444 q 718 365 750 374 l 718 357 q 786 303 756 342 q 817 213 817 264 l 817 178 q 768 49 817 97 q 642 0 719 0 l 93 0 m 539 428 q 581 442 565 428 q 597 476 597 456 l 597 507 q 581 542 597 528 q 539 556 565 556 l 296 556 l 296 428 l 539 428 m 553 153 q 595 167 579 153 q 611 201 611 181 l 611 232 q 595 267 611 253 q 553 281 579 281 l 296 281 l 296 153 l 553 153 z "},"г":{"ha":718,"x_min":93,"x_max":697,"o":"m 296 0 l 93 0 l 93 708 l 697 708 l 697 582 l 642 525 l 296 525 l 296 0 z "},"д":{"ha":926,"x_min":0,"x_max":900,"o":"m 0 -153 l 0 176 l 56 176 q 99 218 76 186 q 128 301 121 250 l 176 708 l 801 708 l 801 176 l 900 176 l 900 -153 l 697 -153 l 697 0 l 204 0 l 204 -153 l 0 -153 m 281 176 l 597 176 l 597 532 l 361 532 l 336 301 q 314 225 331 256 q 281 185 297 194 l 281 176 z "},"е":{"ha":893,"x_min":79,"x_max":815,"o":"m 274 0 q 135 56 190 0 q 79 194 79 111 l 79 528 q 135 667 79 611 q 274 722 190 722 l 621 722 q 760 667 704 722 q 815 528 815 611 l 815 278 l 282 278 l 282 233 q 350 167 282 167 l 785 167 l 785 0 l 274 0 m 282 426 l 611 426 l 611 489 q 544 556 611 556 l 350 556 q 282 489 282 556 l 282 426 z "},"ё":{"ha":893,"x_min":79,"x_max":815,"o":"m 274 0 q 135 56 190 0 q 79 194 79 111 l 79 528 q 135 667 79 611 q 274 722 190 722 l 621 722 q 760 667 704 722 q 815 528 815 611 l 815 278 l 282 278 l 282 233 q 350 167 282 167 l 785 167 l 785 0 l 274 0 m 282 426 l 611 426 l 611 489 q 544 556 611 556 l 350 556 q 282 489 282 556 l 282 426 m 383 829 l 185 829 l 185 1024 l 383 1024 l 383 829 m 713 829 l 514 829 l 514 1024 l 713 1024 l 713 829 z "},"ж":{"ha":1268,"x_min":42,"x_max":1226,"o":"m 229 0 l 42 0 l 42 97 l 233 358 l 56 611 l 56 708 l 236 708 l 410 447 l 532 447 l 532 708 l 736 708 l 736 447 l 858 447 l 1032 708 l 1213 708 l 1213 611 l 1035 364 l 1226 97 l 1226 0 l 1039 0 l 858 271 l 736 271 l 736 0 l 532 0 l 532 271 l 410 271 l 229 0 z "},"з":{"ha":794,"x_min":49,"x_max":733,"o":"m 49 0 l 49 167 l 475 167 q 513 181 497 167 q 528 215 528 196 l 528 229 q 513 263 528 249 q 475 278 497 278 l 215 278 l 215 435 l 461 435 q 499 449 483 435 q 514 483 514 464 l 514 493 q 499 527 514 513 q 461 542 483 542 l 118 542 l 63 600 l 63 708 l 544 708 q 672 659 624 708 q 719 531 719 610 l 719 496 q 693 409 719 444 q 635 365 667 374 l 635 357 q 703 303 672 342 q 733 213 733 264 l 733 178 q 685 49 733 97 q 558 0 636 0 l 49 0 z "},"и":{"ha":944,"x_min":93,"x_max":851,"o":"m 296 0 l 93 0 l 93 708 l 296 708 l 296 417 l 278 264 l 288 264 l 649 708 l 851 708 l 851 0 l 649 0 l 649 292 l 667 444 l 657 444 l 296 0 z "},"й":{"ha":944,"x_min":93,"x_max":851,"o":"m 296 0 l 93 0 l 93 708 l 296 708 l 296 417 l 278 264 l 288 264 l 649 708 l 851 708 l 851 0 l 649 0 l 649 292 l 667 444 l 657 444 l 296 0 m 322 819 q 236 854 271 819 q 201 940 201 889 l 201 1038 l 375 1038 l 375 993 q 414 954 375 954 l 531 954 q 569 993 569 954 l 569 1038 l 743 1038 l 743 940 q 708 854 743 889 q 622 819 674 819 l 322 819 z "},"к":{"ha":865,"x_min":93,"x_max":824,"o":"m 296 0 l 93 0 l 93 708 l 296 708 l 296 447 l 454 447 l 629 708 l 810 708 l 810 611 l 629 364 l 824 97 l 824 0 l 636 0 l 454 271 l 296 271 l 296 0 z "},"л":{"ha":926,"x_min":7,"x_max":833,"o":"m 7 -14 l 7 169 l 79 169 q 125 185 108 169 q 147 244 142 201 l 204 708 l 833 708 l 833 0 l 629 0 l 629 525 l 389 525 l 350 194 q 285 40 338 93 q 142 -14 232 -14 l 7 -14 z "},"м":{"ha":1107,"x_min":58,"x_max":1049,"o":"m 261 0 l 58 0 l 58 97 l 143 708 l 371 708 l 549 324 l 558 324 l 736 708 l 963 708 l 1049 97 l 1049 0 l 844 0 l 806 444 l 799 444 l 639 97 l 468 97 l 308 444 l 301 444 l 261 0 z "},"н":{"ha":917,"x_min":93,"x_max":824,"o":"m 296 0 l 93 0 l 93 708 l 296 708 l 296 449 l 621 449 l 621 708 l 824 708 l 824 0 l 621 0 l 621 268 l 296 268 l 296 0 z "},"о":{"ha":913,"x_min":79,"x_max":833,"o":"m 274 -14 q 135 42 190 -14 q 79 181 79 97 l 79 528 q 135 667 79 611 q 274 722 190 722 l 639 722 q 778 667 722 722 q 833 528 833 611 l 833 181 q 778 42 833 97 q 639 -14 722 -14 l 274 -14 m 563 164 q 629 232 629 164 l 629 476 q 563 544 629 544 l 350 544 q 282 476 282 544 l 282 232 q 350 164 282 164 l 563 164 z "},"п":{"ha":917,"x_min":93,"x_max":824,"o":"m 296 0 l 93 0 l 93 708 l 824 708 l 824 0 l 621 0 l 621 525 l 296 525 l 296 0 z "},"р":{"ha":917,"x_min":93,"x_max":838,"o":"m 93 -236 l 93 708 l 240 708 l 274 628 l 281 628 q 342 693 297 664 q 444 722 386 722 l 643 722 q 782 667 726 722 q 838 528 838 611 l 838 194 q 782 56 838 111 q 643 0 726 0 l 296 0 l 296 -236 l 93 -236 m 567 181 q 635 247 635 181 l 635 475 q 567 542 635 542 l 396 542 q 322 515 349 542 q 296 443 296 489 l 296 181 l 567 181 z "},"с":{"ha":788,"x_min":79,"x_max":732,"o":"m 274 0 q 135 56 190 0 q 79 194 79 111 l 79 514 q 135 653 79 597 q 274 708 190 708 l 732 708 l 732 590 l 671 528 l 350 528 q 282 461 282 528 l 282 247 q 350 181 282 181 l 732 181 l 732 0 l 274 0 z "},"т":{"ha":764,"x_min":28,"x_max":736,"o":"m 483 0 l 281 0 l 281 525 l 28 525 l 28 708 l 736 708 l 736 583 l 681 525 l 483 525 l 483 0 z "},"у":{"ha":815,"x_min":32,"x_max":782,"o":"m 592 708 l 782 708 l 782 613 l 536 -24 q 435 -182 496 -128 q 275 -236 374 -236 l 100 -236 l 100 -53 l 225 -53 q 274 -37 253 -53 q 304 13 296 -21 l 306 17 l 32 613 l 32 708 l 226 708 l 424 236 l 433 236 l 592 708 z "},"ф":{"ha":1185,"x_min":79,"x_max":1107,"o":"m 490 -236 l 490 0 l 274 0 q 135 56 190 0 q 79 194 79 111 l 79 514 q 135 653 79 597 q 274 708 190 708 l 490 708 l 490 958 l 694 958 l 694 708 l 913 708 q 1051 653 996 708 q 1107 514 1107 597 l 1107 194 q 1051 56 1107 111 q 913 0 996 0 l 694 0 l 694 -236 l 490 -236 m 493 176 l 493 532 l 350 532 q 282 465 282 532 l 282 243 q 350 176 282 176 l 493 176 m 836 176 q 903 243 903 176 l 903 465 q 836 532 903 532 l 692 532 l 692 176 l 836 176 z "},"х":{"ha":833,"x_min":42,"x_max":792,"o":"m 232 0 l 42 0 l 42 97 l 261 354 l 56 611 l 56 708 l 250 708 l 413 469 l 421 469 l 583 708 l 778 708 l 778 611 l 572 368 l 792 97 l 792 0 l 601 0 l 421 239 l 413 239 l 232 0 z "},"ц":{"ha":935,"x_min":93,"x_max":910,"o":"m 910 -153 l 706 -153 l 706 0 l 93 0 l 93 708 l 296 708 l 296 181 l 607 181 l 607 708 l 810 708 l 810 181 l 910 181 l 910 -153 z "},"ч":{"ha":861,"x_min":65,"x_max":768,"o":"m 565 0 l 565 222 l 260 222 q 121 278 176 222 q 65 417 65 333 l 65 708 l 268 708 l 268 469 q 336 403 268 403 l 565 403 l 565 708 l 768 708 l 768 0 l 565 0 z "},"ш":{"ha":1264,"x_min":93,"x_max":1171,"o":"m 1171 0 l 93 0 l 93 708 l 296 708 l 296 181 l 531 181 l 531 708 l 733 708 l 733 181 l 968 181 l 968 708 l 1171 708 l 1171 0 z "},"щ":{"ha":1296,"x_min":93,"x_max":1271,"o":"m 1271 -153 l 1067 -153 l 1067 0 l 93 0 l 93 708 l 296 708 l 296 181 l 531 181 l 531 708 l 733 708 l 733 181 l 968 181 l 968 708 l 1171 708 l 1171 181 l 1271 181 l 1271 -153 z "},"ъ":{"ha":949,"x_min":14,"x_max":889,"o":"m 208 0 l 208 531 l 14 531 l 14 708 l 413 708 l 413 486 l 708 486 q 838 435 786 486 q 889 306 889 383 l 889 181 q 838 51 889 103 q 708 0 786 0 l 208 0 m 628 160 q 669 175 654 160 q 685 218 685 190 l 685 268 q 669 311 685 296 q 628 326 654 326 l 413 326 l 413 160 l 628 160 z "},"ы":{"ha":1181,"x_min":93,"x_max":1088,"o":"m 93 0 l 93 708 l 296 708 l 296 486 l 588 486 q 717 435 665 486 q 768 306 768 383 l 768 181 q 717 51 768 103 q 588 0 665 0 l 93 0 m 1088 0 l 885 0 l 885 708 l 1088 708 l 1088 0 m 507 160 q 550 176 535 160 q 565 218 565 192 l 565 268 q 550 311 565 296 q 507 326 535 326 l 296 326 l 296 160 l 507 160 z "},"ь":{"ha":847,"x_min":93,"x_max":788,"o":"m 93 0 l 93 708 l 296 708 l 296 486 l 607 486 q 736 435 685 486 q 788 306 788 383 l 788 181 q 736 51 788 103 q 607 0 685 0 l 93 0 m 525 160 q 568 176 553 160 q 583 218 583 192 l 583 268 q 568 311 583 296 q 525 326 553 326 l 296 326 l 296 160 l 525 160 z "},"э":{"ha":782,"x_min":49,"x_max":704,"o":"m 49 0 l 49 167 l 433 167 q 500 233 500 167 l 500 278 l 218 278 l 218 440 l 500 440 l 500 475 q 433 542 500 542 l 108 542 l 49 604 l 49 708 l 510 708 q 649 653 593 708 q 704 514 704 597 l 704 194 q 649 56 704 111 q 510 0 593 0 l 49 0 z "},"ю":{"ha":1254,"x_min":93,"x_max":1176,"o":"m 649 -14 q 510 42 565 -14 q 454 181 454 97 l 454 268 l 296 268 l 296 0 l 93 0 l 93 708 l 296 708 l 296 449 l 454 449 l 454 528 q 510 667 454 611 q 649 722 565 722 l 982 722 q 1121 667 1065 722 q 1176 528 1176 611 l 1176 181 q 1121 42 1176 97 q 982 -14 1065 -14 l 649 -14 m 906 164 q 972 232 972 164 l 972 476 q 906 544 972 544 l 725 544 q 657 476 657 544 l 657 232 q 725 164 657 164 l 906 164 z "},"я":{"ha":892,"x_min":63,"x_max":799,"o":"m 799 708 l 799 0 l 594 0 l 594 222 l 406 222 l 253 0 l 63 0 l 63 97 l 190 251 q 115 316 143 272 q 86 417 86 360 l 86 528 q 138 657 86 606 q 267 708 189 708 l 799 708 m 594 385 l 594 546 l 347 546 q 304 531 319 546 q 289 489 289 515 l 289 442 q 304 400 289 415 q 347 385 319 385 l 594 385 z "},"ѓ":{"ha":718,"x_min":93,"x_max":697,"o":"m 296 0 l 93 0 l 93 708 l 697 708 l 697 582 l 642 525 l 296 525 l 296 0 m 472 819 l 278 819 l 389 1038 l 639 1038 l 472 819 z "},"ґ":{"ha":715,"x_min":93,"x_max":697,"o":"m 296 0 l 93 0 l 93 708 l 510 708 l 531 806 l 697 806 l 697 525 l 296 525 l 296 0 z "},"ќ":{"ha":865,"x_min":93,"x_max":824,"o":"m 296 0 l 93 0 l 93 708 l 296 708 l 296 447 l 454 447 l 629 708 l 810 708 l 810 611 l 629 364 l 824 97 l 824 0 l 636 0 l 454 271 l 296 271 l 296 0 m 540 819 l 346 819 l 457 1038 l 707 1038 l 540 819 z "},"є":{"ha":789,"x_min":79,"x_max":733,"o":"m 274 0 q 135 56 190 0 q 79 194 79 111 l 79 514 q 135 653 79 597 q 274 708 190 708 l 733 708 l 733 604 l 674 542 l 350 542 q 282 475 282 542 l 282 440 l 569 440 l 569 278 l 282 278 l 282 233 q 350 167 282 167 l 733 167 l 733 0 l 274 0 z "},"ѕ":{"ha":801,"x_min":65,"x_max":747,"o":"m 65 0 l 65 171 l 490 171 q 526 181 514 171 q 539 207 539 190 l 539 218 q 526 240 539 229 q 492 256 514 251 l 222 308 q 108 367 150 322 q 65 475 65 411 l 65 532 q 116 658 65 607 q 240 708 167 708 l 719 708 l 719 594 l 664 538 l 322 538 q 286 528 299 538 q 274 504 274 519 l 274 492 q 285 469 274 481 q 321 453 297 457 l 590 400 q 705 341 663 386 q 747 233 747 296 l 747 176 q 697 51 747 101 q 572 0 646 0 l 65 0 z "},"і":{"ha":403,"x_min":100,"x_max":304,"o":"m 303 0 l 100 0 l 100 708 l 303 708 l 303 0 m 304 829 l 100 829 l 100 1024 l 304 1024 l 304 829 z "},"ї":{"ha":403,"x_min":-53,"x_max":457,"o":"m 303 0 l 100 0 l 100 708 l 303 708 l 303 0 m 142 829 l -53 829 l -53 1024 l 142 1024 l 142 829 m 457 829 l 263 829 l 263 1024 l 457 1024 l 457 829 z "},"ј":{"ha":403,"x_min":-76,"x_max":311,"o":"m -76 -236 l -76 -56 l 39 -56 q 107 11 107 -56 l 107 708 l 310 708 l 310 -42 q 254 -181 310 -125 q 115 -236 199 -236 l -76 -236 m 311 829 l 107 829 l 107 1024 l 311 1024 l 311 829 z "},"љ":{"ha":1315,"x_min":7,"x_max":1268,"o":"m 7 -14 l 7 169 l 79 169 q 125 185 108 169 q 147 244 142 201 l 204 708 l 806 708 l 806 472 l 1088 472 q 1217 421 1165 472 q 1268 292 1268 369 l 1268 181 q 1217 51 1268 103 q 1088 0 1165 0 l 601 0 l 601 525 l 389 525 l 350 194 q 285 40 338 93 q 142 -14 232 -14 l 7 -14 m 1007 160 q 1050 176 1035 160 q 1065 218 1065 192 l 1065 254 q 1050 297 1065 282 q 1007 313 1035 313 l 806 313 l 806 160 l 1007 160 z "},"њ":{"ha":1310,"x_min":93,"x_max":1264,"o":"m 93 0 l 93 708 l 296 708 l 296 472 l 593 472 l 593 708 l 796 708 l 796 472 l 1083 472 q 1213 421 1161 472 q 1264 292 1264 369 l 1264 181 q 1213 51 1264 103 q 1083 0 1161 0 l 593 0 l 593 296 l 296 296 l 296 0 l 93 0 m 1003 160 q 1044 175 1029 160 q 1060 218 1060 190 l 1060 250 q 1044 293 1060 278 q 1003 308 1029 308 l 796 308 l 796 160 l 1003 160 z "},"ћ":{"ha":913,"x_min":-18,"x_max":833,"o":"m 639 597 q 778 542 722 597 q 833 403 833 486 l 833 0 l 629 0 l 629 347 q 613 398 629 382 q 563 414 597 414 l 410 414 q 336 388 363 414 q 310 315 310 363 l 310 0 l 107 0 l 107 665 l -18 665 l -18 836 l 107 836 l 107 958 l 310 958 l 310 836 l 544 836 l 544 665 l 310 665 l 310 511 l 317 511 q 374 571 332 544 q 476 597 417 597 l 639 597 z "},"ђ":{"ha":913,"x_min":-18,"x_max":833,"o":"m 639 597 q 778 542 722 597 q 833 403 833 486 l 833 88 q 778 -51 833 4 q 639 -107 722 -107 l 465 -107 l 465 74 l 563 74 q 629 142 629 74 l 629 347 q 613 398 629 382 q 563 414 597 414 l 410 414 q 336 388 363 414 q 310 315 310 363 l 310 0 l 107 0 l 107 665 l -18 665 l -18 836 l 107 836 l 107 958 l 310 958 l 310 836 l 544 836 l 544 665 l 310 665 l 310 511 l 317 511 q 374 571 332 544 q 476 597 417 597 l 639 597 z "},"ў":{"ha":815,"x_min":32,"x_max":782,"o":"m 592 708 l 782 708 l 782 613 l 536 -24 q 435 -182 496 -128 q 275 -236 374 -236 l 100 -236 l 100 -53 l 225 -53 q 274 -37 253 -53 q 304 13 296 -21 l 306 17 l 32 613 l 32 708 l 226 708 l 424 236 l 433 236 l 592 708 m 261 819 q 175 854 210 819 q 140 940 140 889 l 140 1038 l 314 1038 l 314 993 q 353 954 314 954 l 469 954 q 508 993 508 954 l 508 1038 l 682 1038 l 682 940 q 647 854 682 889 q 561 819 613 819 l 261 819 z "},"џ":{"ha":913,"x_min":93,"x_max":819,"o":"m 558 -153 l 354 -153 l 354 0 l 93 0 l 93 708 l 296 708 l 296 176 l 615 176 l 615 708 l 819 708 l 819 0 l 558 0 l 558 -153 z "},"Ӑ":{"ha":1083,"x_min":24,"x_max":1060,"o":"m 400 972 l 683 972 l 1060 108 l 1060 0 l 854 0 l 781 188 l 303 188 l 229 0 l 24 0 l 24 108 l 400 972 m 536 778 l 376 372 l 707 372 l 547 778 l 536 778 m 375 1069 q 289 1104 324 1069 q 254 1190 254 1139 l 254 1301 l 428 1301 l 428 1243 q 467 1204 428 1204 l 615 1204 q 654 1243 654 1204 l 654 1301 l 828 1301 l 828 1190 q 793 1104 828 1139 q 708 1069 758 1069 l 375 1069 z "},"Ғ":{"ha":944,"x_min":11,"x_max":917,"o":"m 129 532 l 129 972 l 917 972 l 917 847 l 847 778 l 347 778 l 347 532 l 707 532 l 707 361 l 347 361 l 347 0 l 129 0 l 129 361 l 11 361 l 11 532 l 129 532 z "},"":{"ha":963,"x_min":115,"x_max":935,"o":"m 333 0 l 115 0 l 115 972 l 935 972 l 935 847 l 865 778 l 333 778 l 333 542 l 778 542 l 778 347 l 333 347 l 333 0 z "},"Ѐ":{"ha":1007,"x_min":115,"x_max":944,"o":"m 944 0 l 115 0 l 115 972 l 944 972 l 944 851 l 875 782 l 333 782 l 333 583 l 796 583 l 796 399 l 333 399 l 333 190 l 944 190 l 944 0 m 658 1069 l 464 1069 l 297 1288 l 547 1288 l 658 1069 z "},"Ӗ":{"ha":1007,"x_min":115,"x_max":944,"o":"m 944 0 l 115 0 l 115 972 l 944 972 l 944 851 l 875 782 l 333 782 l 333 583 l 796 583 l 796 399 l 333 399 l 333 190 l 944 190 l 944 0 m 367 1069 q 281 1104 315 1069 q 246 1190 246 1139 l 246 1301 l 419 1301 l 419 1243 q 458 1204 419 1204 l 607 1204 q 646 1243 646 1204 l 646 1301 l 819 1301 l 819 1190 q 785 1104 819 1139 q 700 1069 750 1069 l 367 1069 z "},"Җ":{"ha":1693,"x_min":49,"x_max":1694,"o":"m 1694 -181 l 1476 -181 l 1476 0 l 1417 0 l 1140 393 l 939 393 l 939 0 l 721 0 l 721 393 l 521 393 l 243 0 l 49 0 l 49 108 l 336 510 l 65 864 l 65 972 l 257 972 l 524 593 l 721 593 l 721 972 l 939 972 l 939 593 l 1136 593 l 1404 972 l 1596 972 l 1596 864 l 1325 510 l 1554 194 l 1694 194 l 1694 -181 z "},"Ҙ":{"ha":1017,"x_min":56,"x_max":940,"o":"m 790 504 q 894 444 847 494 q 940 306 940 393 l 940 226 q 878 62 940 124 q 713 0 815 0 l 583 0 l 583 -204 l 365 -204 l 365 0 l 56 0 l 56 190 l 642 190 q 718 267 718 190 l 718 326 q 642 403 718 403 l 264 403 l 264 588 l 628 588 q 704 664 704 588 l 704 706 q 628 782 704 782 l 129 782 l 60 851 l 60 972 l 699 972 q 864 910 801 972 q 926 746 926 849 l 926 704 q 884 573 926 622 q 790 514 842 524 l 790 504 z "},"":{"ha":1017,"x_min":56,"x_max":940,"o":"m 790 504 q 894 444 847 494 q 940 306 940 393 l 940 226 q 878 62 940 124 q 713 0 815 0 l 551 0 l 551 -292 l 339 -292 l 339 -164 l 432 0 l 56 0 l 56 190 l 642 190 q 718 267 718 190 l 718 326 q 642 403 718 403 l 264 403 l 264 588 l 628 588 q 704 664 704 588 l 704 706 q 628 782 704 782 l 129 782 l 60 851 l 60 972 l 699 972 q 864 910 801 972 q 926 746 926 849 l 926 704 q 884 573 926 622 q 790 514 842 524 l 790 504 z "},"Ѝ":{"ha":1192,"x_min":115,"x_max":1076,"o":"m 336 0 l 115 0 l 115 972 l 333 972 l 333 486 l 315 301 l 325 301 l 857 972 l 1076 972 l 1076 0 l 858 0 l 858 486 l 876 671 l 868 671 l 336 0 m 722 1069 l 528 1069 l 361 1288 l 611 1288 l 722 1069 z "},"Ӣ":{"ha":1192,"x_min":115,"x_max":1076,"o":"m 336 0 l 115 0 l 115 972 l 333 972 l 333 486 l 315 301 l 325 301 l 857 972 l 1076 972 l 1076 0 l 858 0 l 858 486 l 876 671 l 868 671 l 336 0 m 854 1101 l 340 1101 l 340 1254 l 854 1254 l 854 1101 z "},"Ӏ":{"ha":449,"x_min":115,"x_max":333,"o":"m 333 0 l 115 0 l 115 972 l 333 972 l 333 0 z "},"Қ":{"ha":1143,"x_min":115,"x_max":1146,"o":"m 1146 -181 l 928 -181 l 928 0 l 868 0 l 590 393 l 333 393 l 333 0 l 115 0 l 115 972 l 333 972 l 333 593 l 588 593 l 854 972 l 1046 972 l 1046 864 l 775 510 l 1004 194 l 1146 194 l 1146 -181 z "},"Ҡ":{"ha":1229,"x_min":14,"x_max":1181,"o":"m 451 0 l 233 0 l 233 782 l 14 782 l 14 972 l 451 972 l 451 593 l 706 593 l 972 972 l 1164 972 l 1164 864 l 893 510 l 1181 108 l 1181 0 l 986 0 l 708 393 l 451 393 l 451 0 z "},"Ң":{"ha":1215,"x_min":115,"x_max":1185,"o":"m 1185 -181 l 968 -181 l 968 0 l 843 0 l 843 393 l 333 393 l 333 0 l 115 0 l 115 972 l 333 972 l 333 593 l 843 593 l 843 972 l 1060 972 l 1060 194 l 1185 194 l 1185 -181 z "},"":{"ha":1157,"x_min":97,"x_max":1060,"o":"m 324 -14 q 160 49 222 -14 q 97 213 97 111 l 97 760 q 160 924 97 863 q 324 986 222 986 l 833 986 q 998 924 936 986 q 1060 760 1060 863 l 1060 213 q 998 49 1060 111 q 833 -14 936 -14 l 324 -14 m 767 178 q 843 254 843 178 l 843 718 q 767 794 843 794 l 392 794 q 315 718 315 794 l 315 254 q 392 178 315 178 l 767 178 m 413 1069 q 326 1104 361 1069 q 292 1190 292 1139 l 292 1301 l 465 1301 l 465 1243 q 504 1204 465 1204 l 653 1204 q 692 1243 692 1204 l 692 1301 l 865 1301 l 865 1190 q 831 1104 865 1139 q 746 1069 796 1069 l 413 1069 z "},"Ө":{"ha":1157,"x_min":97,"x_max":1060,"o":"m 833 986 q 998 924 936 986 q 1060 760 1060 863 l 1060 213 q 998 49 1060 111 q 833 -14 936 -14 l 324 -14 q 160 49 222 -14 q 97 213 97 111 l 97 760 q 160 924 97 863 q 324 986 222 986 l 833 986 m 392 794 q 315 718 315 794 l 315 572 l 843 572 l 843 718 q 767 794 843 794 l 392 794 m 767 178 q 843 254 843 178 l 843 401 l 315 401 l 315 254 q 392 178 315 178 l 767 178 z "},"Ә":{"ha":1157,"x_min":97,"x_max":1060,"o":"m 324 -14 q 160 49 222 -14 q 97 213 97 111 l 97 572 l 843 572 l 843 706 q 767 782 843 782 l 260 782 l 190 851 l 190 972 l 833 972 q 998 910 936 972 q 1060 746 1060 849 l 1060 213 q 998 49 1060 111 q 833 -14 936 -14 l 324 -14 m 767 178 q 843 254 843 178 l 843 399 l 315 399 l 315 254 q 392 178 315 178 l 767 178 z "},"Ҫ":{"ha":1025,"x_min":97,"x_max":963,"o":"m 392 778 q 315 701 315 778 l 315 271 q 392 194 315 194 l 963 194 l 963 0 l 683 0 l 683 -204 l 465 -204 l 465 0 l 324 0 q 160 63 222 0 q 97 226 97 125 l 97 746 q 160 910 97 849 q 324 972 222 972 l 963 972 l 963 847 l 893 778 l 392 778 z "},"":{"ha":1025,"x_min":97,"x_max":963,"o":"m 392 778 q 315 701 315 778 l 315 271 q 392 194 315 194 l 963 194 l 963 0 l 650 0 l 650 -292 l 438 -292 l 438 -164 l 531 0 l 324 0 q 160 63 222 0 q 97 226 97 125 l 97 746 q 160 910 97 849 q 324 972 222 972 l 963 972 l 963 847 l 893 778 l 392 778 z "},"":{"ha":1025,"x_min":97,"x_max":963,"o":"m 392 778 q 315 701 315 778 l 315 271 q 392 194 315 194 l 963 194 l 963 0 l 624 0 l 610 -56 l 660 -56 q 747 -87 715 -56 q 778 -174 778 -119 l 778 -215 q 747 -301 778 -269 q 660 -333 715 -333 l 440 -333 l 440 -225 l 611 -225 q 633 -218 625 -225 q 642 -200 642 -211 l 642 -189 q 633 -171 642 -178 q 611 -164 625 -164 l 499 -164 l 454 -122 l 483 0 l 324 0 q 160 63 222 0 q 97 226 97 125 l 97 746 q 160 910 97 849 q 324 972 222 972 l 963 972 l 963 847 l 893 778 l 392 778 z "},"Ӯ":{"ha":1042,"x_min":39,"x_max":1017,"o":"m 813 972 l 1017 972 l 1017 864 l 690 233 q 603 95 646 147 q 499 15 560 43 q 347 -14 438 -14 l 164 -14 l 164 176 l 319 176 q 371 186 353 176 q 403 218 389 196 l 422 247 l 39 864 l 39 972 l 249 972 l 547 451 l 561 451 l 813 972 m 788 1101 l 274 1101 l 274 1254 l 788 1254 l 788 1101 z "},"Ӳ":{"ha":1042,"x_min":39,"x_max":1017,"o":"m 813 972 l 1017 972 l 1017 864 l 690 233 q 603 95 646 147 q 499 15 560 43 q 347 -14 438 -14 l 164 -14 l 164 176 l 319 176 q 371 186 353 176 q 403 218 389 196 l 422 247 l 39 864 l 39 972 l 249 972 l 547 451 l 561 451 l 813 972 m 449 1069 l 282 1069 l 393 1288 l 597 1288 l 449 1069 m 743 1069 l 576 1069 l 688 1288 l 890 1288 l 743 1069 z "},"Ү":{"ha":1024,"x_min":32,"x_max":990,"o":"m 621 0 l 403 0 l 403 306 l 32 864 l 32 972 l 233 972 l 507 528 l 521 528 l 789 972 l 990 972 l 990 864 l 621 306 l 621 0 z "},"Ұ":{"ha":1024,"x_min":32,"x_max":990,"o":"m 789 972 l 990 972 l 990 864 l 681 396 l 901 396 l 901 229 l 621 229 l 621 0 l 403 0 l 403 229 l 124 229 l 124 396 l 343 396 l 32 864 l 32 972 l 233 972 l 507 528 l 521 528 l 789 972 z "},"Ҳ":{"ha":1093,"x_min":46,"x_max":1097,"o":"m 1097 -181 l 879 -181 l 879 0 l 819 0 l 542 350 l 528 350 l 250 0 l 46 0 l 46 108 l 365 483 l 72 864 l 72 972 l 275 972 l 528 628 l 542 628 l 794 972 l 997 972 l 997 864 l 704 493 l 953 194 l 1097 194 l 1097 -181 z "},"Ҷ":{"ha":1156,"x_min":83,"x_max":1125,"o":"m 907 -181 l 907 0 l 782 0 l 782 319 l 310 319 q 146 382 208 319 q 83 546 83 444 l 83 972 l 301 972 l 301 590 q 378 514 301 514 l 782 514 l 782 972 l 1000 972 l 1000 194 l 1125 194 l 1125 -181 l 907 -181 z "},"":{"ha":1504,"x_min":115,"x_max":1389,"o":"m 115 0 l 115 972 l 333 972 l 333 653 l 792 653 q 956 591 894 653 q 1018 426 1018 529 l 1018 226 q 956 63 1018 125 q 792 0 894 0 l 115 0 m 1389 0 l 1171 0 l 1171 972 l 1389 972 l 1389 0 m 725 190 q 801 267 801 190 l 801 386 q 725 463 801 463 l 333 463 l 333 190 l 725 190 m 586 1069 q 500 1104 535 1069 q 465 1190 465 1139 l 465 1301 l 639 1301 l 639 1243 q 678 1204 639 1204 l 826 1204 q 865 1243 865 1204 l 865 1301 l 1039 1301 l 1039 1190 q 1004 1104 1039 1139 q 919 1069 969 1069 l 586 1069 z "},"":{"ha":1018,"x_min":56,"x_max":921,"o":"m 56 0 l 56 190 l 628 190 q 704 267 704 190 l 704 399 l 261 399 l 261 583 l 704 583 l 704 706 q 628 782 704 782 l 125 782 l 56 851 l 56 972 l 694 972 q 859 910 797 972 q 921 746 921 849 l 921 226 q 859 63 921 125 q 694 0 797 0 l 56 0 m 319 1069 q 233 1104 268 1069 q 199 1190 199 1139 l 199 1301 l 372 1301 l 372 1243 q 411 1204 372 1204 l 560 1204 q 599 1243 599 1204 l 599 1301 l 772 1301 l 772 1190 q 738 1104 772 1139 q 653 1069 703 1069 l 319 1069 z "},"Һ":{"ha":1115,"x_min":115,"x_max":1032,"o":"m 115 0 l 115 972 l 333 972 l 333 653 l 806 653 q 970 591 908 653 q 1032 426 1032 529 l 1032 0 l 815 0 l 815 382 q 739 458 815 458 l 333 458 l 333 0 l 115 0 z "},"ӑ":{"ha":864,"x_min":63,"x_max":771,"o":"m 257 -14 q 118 42 174 -14 q 63 181 63 97 l 63 236 q 118 375 63 319 q 257 431 174 431 l 567 431 l 567 475 q 500 542 567 542 l 122 542 l 122 708 l 576 708 q 715 653 660 708 q 771 514 771 597 l 771 0 l 622 0 l 590 81 l 583 81 q 522 15 567 44 q 419 -14 478 -14 l 257 -14 m 468 153 q 541 179 515 153 q 567 253 567 206 l 567 288 l 324 288 q 280 274 293 288 q 267 229 267 260 l 267 211 q 280 167 267 181 q 324 153 293 153 l 468 153 m 285 819 q 199 854 233 819 q 164 940 164 889 l 164 1038 l 338 1038 l 338 993 q 376 954 338 954 l 493 954 q 532 993 532 954 l 532 1038 l 706 1038 l 706 940 q 671 854 706 889 q 585 819 636 819 l 285 819 z "},"ғ":{"ha":732,"x_min":11,"x_max":711,"o":"m 107 388 l 107 708 l 711 708 l 711 582 l 656 525 l 310 525 l 310 388 l 583 388 l 583 226 l 310 226 l 310 0 l 107 0 l 107 226 l 11 226 l 11 388 l 107 388 z "},"":{"ha":718,"x_min":93,"x_max":697,"o":"m 93 0 l 93 708 l 697 708 l 697 582 l 642 525 l 296 525 l 296 388 l 569 388 l 569 225 l 296 225 l 296 0 l 93 0 z "},"ѐ":{"ha":893,"x_min":79,"x_max":815,"o":"m 274 0 q 135 56 190 0 q 79 194 79 111 l 79 528 q 135 667 79 611 q 274 722 190 722 l 621 722 q 760 667 704 722 q 815 528 815 611 l 815 278 l 282 278 l 282 233 q 350 167 282 167 l 785 167 l 785 0 l 274 0 m 282 426 l 611 426 l 611 489 q 544 556 611 556 l 350 556 q 282 489 282 556 l 282 426 m 567 819 l 372 819 l 206 1038 l 456 1038 l 567 819 z "},"ӗ":{"ha":893,"x_min":79,"x_max":815,"o":"m 274 0 q 135 56 190 0 q 79 194 79 111 l 79 528 q 135 667 79 611 q 274 722 190 722 l 621 722 q 760 667 704 722 q 815 528 815 611 l 815 278 l 282 278 l 282 233 q 350 167 282 167 l 785 167 l 785 0 l 274 0 m 282 426 l 611 426 l 611 489 q 544 556 611 556 l 350 556 q 282 489 282 556 l 282 426 m 299 819 q 213 854 247 819 q 178 940 178 889 l 178 1038 l 351 1038 l 351 993 q 390 954 351 954 l 507 954 q 546 993 546 954 l 546 1038 l 719 1038 l 719 940 q 685 854 719 889 q 599 819 650 819 l 299 819 z "},"җ":{"ha":1299,"x_min":42,"x_max":1282,"o":"m 1282 -153 l 1079 -153 l 1079 0 l 1039 0 l 858 271 l 736 271 l 736 0 l 532 0 l 532 271 l 410 271 l 229 0 l 42 0 l 42 97 l 233 358 l 56 611 l 56 708 l 236 708 l 410 447 l 532 447 l 532 708 l 736 708 l 736 447 l 858 447 l 1032 708 l 1213 708 l 1213 611 l 1035 364 l 1168 181 l 1282 181 l 1282 -153 z "},"ҙ":{"ha":794,"x_min":49,"x_max":733,"o":"m 635 357 q 703 303 672 342 q 733 213 733 264 l 733 178 q 685 49 733 97 q 558 0 636 0 l 476 0 l 476 -185 l 272 -185 l 272 0 l 49 0 l 49 167 l 475 167 q 513 181 497 167 q 528 215 528 196 l 528 229 q 513 263 528 249 q 475 278 497 278 l 215 278 l 215 435 l 461 435 q 499 449 483 435 q 514 483 514 464 l 514 493 q 499 527 514 513 q 461 542 483 542 l 118 542 l 63 600 l 63 708 l 544 708 q 672 659 624 708 q 719 531 719 610 l 719 496 q 693 409 719 444 q 635 365 667 374 l 635 357 z "},"":{"ha":794,"x_min":49,"x_max":733,"o":"m 635 357 q 703 303 672 342 q 733 213 733 264 l 733 178 q 685 49 733 97 q 558 0 636 0 l 446 0 l 446 -260 l 242 -260 l 242 -140 l 333 0 l 49 0 l 49 167 l 475 167 q 513 181 497 167 q 528 215 528 196 l 528 229 q 513 263 528 249 q 475 278 497 278 l 215 278 l 215 435 l 461 435 q 499 449 483 435 q 514 483 514 464 l 514 493 q 499 527 514 513 q 461 542 483 542 l 118 542 l 63 600 l 63 708 l 544 708 q 672 659 624 708 q 719 531 719 610 l 719 496 q 693 409 719 444 q 635 365 667 374 l 635 357 z "},"ѝ":{"ha":944,"x_min":93,"x_max":851,"o":"m 296 0 l 93 0 l 93 708 l 296 708 l 296 417 l 278 264 l 288 264 l 649 708 l 851 708 l 851 0 l 649 0 l 649 292 l 667 444 l 657 444 l 296 0 m 590 819 l 396 819 l 229 1038 l 479 1038 l 590 819 z "},"ӣ":{"ha":944,"x_min":93,"x_max":851,"o":"m 296 0 l 93 0 l 93 708 l 296 708 l 296 417 l 278 264 l 288 264 l 649 708 l 851 708 l 851 0 l 649 0 l 649 292 l 667 444 l 657 444 l 296 0 m 729 851 l 215 851 l 215 1004 l 729 1004 l 729 851 z "},"ӏ":{"ha":403,"x_min":100,"x_max":303,"o":"m 303 0 l 100 0 l 100 972 l 303 972 l 303 0 z "},"қ":{"ha":896,"x_min":93,"x_max":879,"o":"m 879 -153 l 676 -153 l 676 0 l 636 0 l 454 271 l 296 271 l 296 0 l 93 0 l 93 708 l 296 708 l 296 447 l 454 447 l 629 708 l 810 708 l 810 611 l 629 364 l 764 181 l 879 181 l 879 -153 z "},"ҡ":{"ha":982,"x_min":14,"x_max":940,"o":"m 413 0 l 208 0 l 208 531 l 14 531 l 14 708 l 413 708 l 413 447 l 569 447 l 746 708 l 926 708 l 926 611 l 746 364 l 940 97 l 940 0 l 753 0 l 569 271 l 413 271 l 413 0 z "},"ң":{"ha":949,"x_min":93,"x_max":924,"o":"m 924 -153 l 719 -153 l 719 0 l 621 0 l 621 268 l 296 268 l 296 0 l 93 0 l 93 708 l 296 708 l 296 449 l 621 449 l 621 708 l 824 708 l 824 181 l 924 181 l 924 -153 z "},"":{"ha":913,"x_min":79,"x_max":833,"o":"m 274 -14 q 135 42 190 -14 q 79 181 79 97 l 79 528 q 135 667 79 611 q 274 722 190 722 l 639 722 q 778 667 722 722 q 833 528 833 611 l 833 181 q 778 42 833 97 q 639 -14 722 -14 l 274 -14 m 563 164 q 629 232 629 164 l 629 476 q 563 544 629 544 l 350 544 q 282 476 282 544 l 282 232 q 350 164 282 164 l 563 164 m 306 819 q 219 854 254 819 q 185 940 185 889 l 185 1038 l 358 1038 l 358 993 q 397 954 358 954 l 514 954 q 553 993 553 954 l 553 1038 l 726 1038 l 726 940 q 692 854 726 889 q 606 819 657 819 l 306 819 z "},"ө":{"ha":913,"x_min":79,"x_max":833,"o":"m 639 722 q 778 667 722 722 q 833 528 833 611 l 833 181 q 778 42 833 97 q 639 -14 722 -14 l 274 -14 q 135 42 190 -14 q 79 181 79 97 l 79 528 q 135 667 79 611 q 274 722 190 722 l 639 722 m 350 551 q 282 483 282 551 l 282 429 l 629 429 l 629 483 q 563 551 629 551 l 350 551 m 563 157 q 629 225 629 157 l 629 281 l 282 281 l 282 225 q 350 157 282 157 l 563 157 z "},"ә":{"ha":886,"x_min":72,"x_max":808,"o":"m 267 -14 q 128 42 183 -14 q 72 181 72 97 l 72 424 l 604 424 l 604 475 q 538 542 604 542 l 163 542 l 101 604 l 101 708 l 614 708 q 753 653 697 708 q 808 514 808 597 l 808 181 q 753 42 808 97 q 614 -14 697 -14 l 267 -14 m 538 150 q 604 218 604 150 l 604 275 l 275 275 l 275 218 q 343 150 275 150 l 538 150 z "},"ҫ":{"ha":788,"x_min":79,"x_max":732,"o":"m 350 528 q 282 461 282 528 l 282 247 q 350 181 282 181 l 732 181 l 732 0 l 544 0 l 544 -185 l 340 -185 l 340 0 l 274 0 q 135 56 190 0 q 79 194 79 111 l 79 514 q 135 653 79 597 q 274 708 190 708 l 732 708 l 732 590 l 671 528 l 350 528 z "},"":{"ha":788,"x_min":79,"x_max":732,"o":"m 350 528 q 282 461 282 528 l 282 247 q 350 181 282 181 l 732 181 l 732 0 l 514 0 l 514 -260 l 310 -260 l 310 -140 l 401 0 l 274 0 q 135 56 190 0 q 79 194 79 111 l 79 514 q 135 653 79 597 q 274 708 190 708 l 732 708 l 732 590 l 671 528 l 350 528 z "},"":{"ha":788,"x_min":79,"x_max":732,"o":"m 350 528 q 282 461 282 528 l 282 247 q 350 181 282 181 l 732 181 l 732 0 l 492 0 l 478 -56 l 528 -56 q 615 -87 583 -56 q 646 -174 646 -119 l 646 -215 q 615 -301 646 -269 q 528 -333 583 -333 l 308 -333 l 308 -225 l 479 -225 q 501 -218 493 -225 q 510 -200 510 -211 l 510 -189 q 501 -171 510 -178 q 479 -164 493 -164 l 367 -164 l 322 -122 l 351 0 l 274 0 q 135 56 190 0 q 79 194 79 111 l 79 514 q 135 653 79 597 q 274 708 190 708 l 732 708 l 732 590 l 671 528 l 350 528 z "},"ӯ":{"ha":815,"x_min":32,"x_max":782,"o":"m 592 708 l 782 708 l 782 613 l 536 -24 q 435 -182 496 -128 q 275 -236 374 -236 l 100 -236 l 100 -53 l 225 -53 q 274 -37 253 -53 q 304 13 296 -21 l 306 17 l 32 613 l 32 708 l 226 708 l 424 236 l 433 236 l 592 708 m 668 851 l 154 851 l 154 1004 l 668 1004 l 668 851 z "},"ӳ":{"ha":815,"x_min":32,"x_max":782,"o":"m 592 708 l 782 708 l 782 613 l 536 -24 q 435 -182 496 -128 q 275 -236 374 -236 l 100 -236 l 100 -53 l 225 -53 q 274 -37 253 -53 q 304 13 296 -21 l 306 17 l 32 613 l 32 708 l 226 708 l 424 236 l 433 236 l 592 708 m 329 819 l 163 819 l 274 1038 l 478 1038 l 329 819 m 624 819 l 457 819 l 568 1038 l 771 1038 l 624 819 z "},"ү":{"ha":824,"x_min":32,"x_max":792,"o":"m 514 -236 l 310 -236 l 310 0 l 32 611 l 32 708 l 225 708 l 407 217 l 417 217 l 600 708 l 792 708 l 792 611 l 514 0 l 514 -236 z "},"ұ":{"ha":824,"x_min":32,"x_max":792,"o":"m 600 708 l 792 708 l 792 611 l 589 164 l 746 164 l 746 0 l 514 0 l 514 -236 l 310 -236 l 310 0 l 79 0 l 79 164 l 235 164 l 32 611 l 32 708 l 225 708 l 407 217 l 417 217 l 600 708 z "},"ҳ":{"ha":854,"x_min":42,"x_max":844,"o":"m 844 -153 l 642 -153 l 642 0 l 601 0 l 421 239 l 413 239 l 232 0 l 42 0 l 42 97 l 261 354 l 56 611 l 56 708 l 250 708 l 413 469 l 421 469 l 583 708 l 778 708 l 778 611 l 572 368 l 725 181 l 844 181 l 844 -153 z "},"ҷ":{"ha":893,"x_min":65,"x_max":868,"o":"m 664 -153 l 664 0 l 565 0 l 565 222 l 260 222 q 121 278 176 222 q 65 417 65 333 l 65 708 l 268 708 l 268 469 q 336 403 268 403 l 565 403 l 565 708 l 768 708 l 768 181 l 868 181 l 868 -153 l 664 -153 z "},"":{"ha":1181,"x_min":93,"x_max":1088,"o":"m 93 0 l 93 708 l 296 708 l 296 486 l 588 486 q 717 435 665 486 q 768 306 768 383 l 768 181 q 717 51 768 103 q 588 0 665 0 l 93 0 m 1088 0 l 885 0 l 885 708 l 1088 708 l 1088 0 m 507 160 q 550 176 535 160 q 565 218 565 192 l 565 268 q 550 311 565 296 q 507 326 535 326 l 296 326 l 296 160 l 507 160 m 440 819 q 354 854 389 819 q 319 940 319 889 l 319 1038 l 493 1038 l 493 993 q 532 954 493 954 l 649 954 q 688 993 688 954 l 688 1038 l 861 1038 l 861 940 q 826 854 861 889 q 740 819 792 819 l 440 819 z "},"":{"ha":782,"x_min":49,"x_max":704,"o":"m 49 0 l 49 167 l 433 167 q 500 233 500 167 l 500 278 l 218 278 l 218 440 l 500 440 l 500 475 q 433 542 500 542 l 108 542 l 49 604 l 49 708 l 510 708 q 649 653 593 708 q 704 514 704 597 l 704 194 q 649 56 704 111 q 510 0 593 0 l 49 0 m 226 819 q 140 854 175 819 q 106 940 106 889 l 106 1038 l 279 1038 l 279 993 q 318 954 279 954 l 435 954 q 474 993 474 954 l 474 1038 l 647 1038 l 647 940 q 613 854 647 889 q 526 819 578 819 l 226 819 z "},"һ":{"ha":919,"x_min":100,"x_max":826,"o":"m 100 0 l 100 958 l 303 958 l 303 636 l 310 636 q 367 696 325 669 q 469 722 410 722 l 632 722 q 771 667 715 722 q 826 528 826 611 l 826 0 l 622 0 l 622 472 q 606 523 622 507 q 556 539 590 539 l 403 539 q 329 513 356 539 q 303 440 303 488 l 303 0 l 100 0 z "},"":{"ha":1038,"x_min":93,"x_max":944,"o":"m 319 -14 q 156 49 218 -14 q 93 213 93 111 l 93 496 q 156 660 93 599 q 319 722 218 722 l 718 722 q 883 660 821 722 q 944 496 944 599 l 944 213 q 883 49 944 111 q 718 -14 821 -14 l 319 -14 m 650 176 q 726 253 726 176 l 726 456 q 650 532 726 532 l 386 532 q 310 456 310 532 l 310 253 q 386 176 310 176 l 650 176 z "},"":{"ha":836,"x_min":86,"x_max":803,"o":"m 803 0 l 86 0 l 86 185 l 343 185 l 343 461 l 115 461 l 115 636 l 343 636 l 343 713 l 560 713 l 560 185 l 803 185 l 803 0 z "},"":{"ha":924,"x_min":60,"x_max":847,"o":"m 60 0 l 60 163 l 538 364 q 611 444 611 394 l 611 456 q 592 501 611 483 q 539 518 572 518 l 139 518 l 74 583 l 74 708 l 621 708 q 785 647 724 708 q 847 482 847 585 l 847 451 q 804 321 847 372 q 667 235 761 269 l 525 181 l 525 171 l 847 171 l 847 0 l 60 0 z "},"":{"ha":924,"x_min":46,"x_max":858,"o":"m 46 -236 l 46 -46 l 560 -46 q 636 31 636 -46 l 636 67 q 560 143 636 143 l 250 143 l 250 310 l 511 507 l 511 517 l 111 517 l 46 581 l 46 708 l 822 708 l 822 538 l 535 324 l 535 315 l 632 315 q 797 253 735 315 q 858 88 858 190 l 858 -10 q 797 -174 858 -112 q 632 -236 735 -236 l 46 -236 z "},"":{"ha":969,"x_min":35,"x_max":956,"o":"m 808 -236 l 590 -236 l 590 0 l 35 0 l 35 181 l 489 708 l 685 708 l 685 615 l 303 183 l 303 176 l 597 176 l 597 371 l 808 371 l 808 176 l 956 176 l 956 0 l 808 0 l 808 -236 z "},"":{"ha":956,"x_min":86,"x_max":892,"o":"m 86 -236 l 86 -46 l 593 -46 q 650 -26 631 -46 q 669 29 669 -7 l 669 94 q 593 171 669 171 l 100 171 l 100 708 l 864 708 l 864 583 l 799 518 l 317 518 l 317 357 l 664 357 q 829 294 767 357 q 892 129 892 232 l 892 -10 q 829 -174 892 -112 q 664 -236 767 -236 l 86 -236 z "},"":{"ha":1018,"x_min":86,"x_max":933,"o":"m 313 -14 q 149 49 211 -14 q 86 213 86 111 l 86 393 q 112 508 86 457 q 204 625 138 558 l 551 972 l 733 972 l 733 864 l 456 604 l 456 597 l 543 597 l 706 597 q 871 535 808 597 q 933 371 933 474 l 933 213 q 871 48 933 110 q 706 -14 808 -14 l 313 -14 m 639 176 q 715 253 715 176 l 715 340 q 639 417 715 417 l 379 417 q 303 340 303 417 l 303 253 q 379 176 303 176 l 639 176 z "},"":{"ha":857,"x_min":28,"x_max":824,"o":"m 428 -236 l 236 -236 l 236 -129 l 574 504 l 574 514 l 28 514 l 28 708 l 824 708 l 824 524 l 428 -236 z "},"":{"ha":1039,"x_min":86,"x_max":954,"o":"m 313 -14 q 149 49 211 -14 q 86 213 86 111 l 86 306 q 127 437 86 388 q 219 497 168 486 l 219 508 q 140 565 175 519 q 104 685 104 611 l 104 760 q 167 924 104 863 q 331 986 229 986 l 708 986 q 873 924 811 986 q 935 760 935 863 l 935 685 q 900 565 935 611 q 821 508 865 519 l 821 497 q 913 436 872 486 q 954 306 954 386 l 954 213 q 892 48 954 110 q 726 -14 829 -14 l 313 -14 m 636 588 q 713 664 713 588 l 713 725 q 636 801 713 801 l 403 801 q 326 725 326 801 l 326 664 q 403 588 326 588 l 636 588 m 656 171 q 732 247 732 171 l 732 331 q 656 407 732 407 l 385 407 q 308 331 308 407 l 308 247 q 385 171 308 171 l 656 171 z "},"":{"ha":1018,"x_min":86,"x_max":933,"o":"m 294 -236 l 294 -129 l 551 104 l 551 111 l 478 111 l 313 111 q 149 174 211 111 q 86 338 86 236 l 86 496 q 149 660 86 599 q 313 722 211 722 l 706 722 q 871 660 808 722 q 933 496 933 599 l 933 319 q 909 203 933 251 q 815 88 885 154 l 476 -236 l 294 -236 m 639 292 q 715 368 715 292 l 715 456 q 639 532 715 532 l 379 532 q 303 456 303 532 l 303 368 q 379 292 303 292 l 639 292 z "},"ª":{"ha":586,"x_min":46,"x_max":525,"o":"m 174 500 q 82 535 118 500 q 46 622 46 569 l 46 669 q 82 757 46 722 q 174 792 118 792 l 368 792 l 368 817 q 329 857 368 857 l 97 857 l 97 972 l 385 972 q 484 932 443 972 q 525 836 525 892 l 525 500 l 410 500 l 393 549 l 386 549 q 356 515 381 531 q 294 500 332 500 l 174 500 m 315 611 q 371 661 371 611 l 371 690 l 239 690 q 215 681 225 690 q 204 656 204 671 l 204 646 q 215 621 204 631 q 239 611 225 611 l 315 611 z "},"º":{"ha":594,"x_min":56,"x_max":539,"o":"m 201 500 q 97 542 139 500 q 56 646 56 583 l 56 826 q 97 931 56 889 q 201 972 139 972 l 393 972 q 497 931 456 972 q 539 826 539 889 l 539 646 q 497 542 539 583 q 393 500 456 500 l 201 500 m 338 629 q 370 642 358 629 q 382 674 382 654 l 382 799 q 370 831 382 818 q 338 843 358 843 l 257 843 q 225 831 238 843 q 213 799 213 818 l 213 674 q 225 642 213 654 q 257 629 238 629 l 338 629 z "},"⁰":{"ha":567,"x_min":46,"x_max":521,"o":"m 190 618 q 88 659 129 618 q 46 761 46 700 l 46 975 q 88 1077 46 1036 q 190 1118 129 1118 l 378 1118 q 480 1077 439 1118 q 521 975 521 1036 l 521 761 q 480 660 521 701 q 378 618 439 618 l 190 618 m 322 747 q 353 760 342 747 q 365 792 365 772 l 365 944 q 353 976 365 964 q 322 989 342 989 l 246 989 q 213 976 225 989 q 201 944 201 964 l 201 792 q 213 760 201 772 q 246 747 225 747 l 322 747 z "},"¹":{"ha":479,"x_min":46,"x_max":447,"o":"m 447 625 l 46 625 l 46 747 l 176 747 l 176 951 l 60 951 l 60 1069 l 176 1069 l 176 1111 l 333 1111 l 333 747 l 447 747 l 447 625 z "},"²":{"ha":524,"x_min":32,"x_max":483,"o":"m 32 625 l 32 739 l 283 910 q 315 935 307 926 q 324 957 324 944 l 324 961 q 315 982 324 974 q 290 990 307 990 l 86 990 l 39 1038 l 39 1111 l 343 1111 q 444 1071 404 1111 q 483 969 483 1031 l 483 963 q 460 888 483 922 q 396 829 436 854 l 278 753 l 278 746 l 483 746 l 483 625 l 32 625 z "},"³":{"ha":525,"x_min":32,"x_max":486,"o":"m 32 625 l 32 740 l 296 740 q 325 749 314 740 q 336 772 336 758 l 336 781 q 325 806 336 796 q 296 815 314 815 l 139 815 l 139 906 l 257 989 l 257 996 l 74 996 l 32 1038 l 32 1111 l 463 1111 l 463 1014 l 336 924 l 336 917 l 350 917 q 449 879 411 917 q 486 781 486 842 l 486 761 q 449 663 486 701 q 350 625 411 625 l 32 625 z "},"⁴":{"ha":558,"x_min":25,"x_max":532,"o":"m 463 625 l 306 625 l 306 718 l 25 718 l 25 829 l 236 1111 l 365 1111 l 365 1053 l 203 843 l 203 836 l 317 836 l 317 928 l 463 928 l 463 836 l 532 836 l 532 718 l 463 718 l 463 625 z "},"⁵":{"ha":531,"x_min":46,"x_max":490,"o":"m 46 625 l 46 740 l 296 740 q 326 751 315 740 q 336 775 336 761 l 336 792 q 326 816 336 806 q 296 826 315 826 l 53 826 l 53 1111 l 476 1111 l 476 1038 l 435 996 l 208 996 l 208 938 l 354 938 q 453 900 415 938 q 490 801 490 863 l 490 761 q 453 663 490 701 q 354 625 415 625 l 46 625 z "},"⁶":{"ha":549,"x_min":39,"x_max":510,"o":"m 176 618 q 77 656 115 618 q 39 754 39 693 l 39 806 q 49 860 39 836 q 86 914 60 885 l 260 1111 l 385 1111 l 385 1053 l 281 938 l 281 931 l 319 931 l 374 931 q 472 893 433 931 q 510 796 510 856 l 510 754 q 472 656 510 693 q 372 618 433 618 l 176 618 m 315 732 q 354 769 354 732 l 354 785 q 315 822 354 822 l 233 822 q 194 785 194 822 l 194 769 q 233 732 194 732 l 315 732 z "},"⁷":{"ha":496,"x_min":25,"x_max":469,"o":"m 261 625 l 121 625 l 121 681 l 290 986 l 290 993 l 25 993 l 25 1111 l 469 1111 l 469 1007 l 261 625 z "},"⁸":{"ha":569,"x_min":46,"x_max":524,"o":"m 181 618 q 83 655 119 618 q 46 753 46 692 l 46 771 q 67 835 46 808 q 117 872 89 863 l 117 879 q 78 911 96 886 q 60 972 60 936 l 60 989 q 97 1082 60 1046 q 194 1118 135 1118 l 375 1118 q 472 1082 435 1118 q 510 989 510 1046 l 510 972 q 492 911 510 936 q 453 879 474 886 l 453 872 q 502 836 481 863 q 524 771 524 810 l 524 753 q 487 655 524 692 q 389 618 450 618 l 181 618 m 319 921 q 358 956 358 921 l 358 972 q 319 1007 358 1007 l 250 1007 q 211 972 211 1007 l 211 956 q 250 921 211 921 l 319 921 m 329 729 q 368 764 368 729 l 368 783 q 329 817 368 817 l 240 817 q 201 783 201 817 l 201 764 q 240 729 201 729 l 329 729 z "},"⁹":{"ha":549,"x_min":39,"x_max":510,"o":"m 164 625 l 164 683 l 268 799 l 268 806 l 229 806 l 175 806 q 77 843 115 806 q 39 940 39 881 l 39 982 q 77 1081 39 1043 q 176 1118 115 1118 l 372 1118 q 472 1081 433 1118 q 510 982 510 1043 l 510 931 q 499 876 510 900 q 463 822 489 851 l 289 625 l 164 625 m 315 914 q 354 951 354 914 l 354 967 q 315 1004 354 1004 l 233 1004 q 194 967 194 1004 l 194 951 q 233 914 194 914 l 315 914 z "},"₀":{"ha":567,"x_min":46,"x_max":521,"o":"m 190 -146 q 88 -105 129 -146 q 46 -3 46 -64 l 46 211 q 88 313 46 272 q 190 354 129 354 l 378 354 q 480 313 439 354 q 521 211 521 272 l 521 -3 q 480 -104 521 -62 q 378 -146 439 -146 l 190 -146 m 322 -17 q 353 -4 342 -17 q 365 28 365 8 l 365 181 q 353 213 365 200 q 322 225 342 225 l 246 225 q 213 213 225 225 q 201 181 201 200 l 201 28 q 213 -4 201 8 q 246 -17 225 -17 l 322 -17 z "},"₁":{"ha":479,"x_min":46,"x_max":447,"o":"m 447 -139 l 46 -139 l 46 -17 l 176 -17 l 176 188 l 60 188 l 60 306 l 176 306 l 176 347 l 333 347 l 333 -17 l 447 -17 l 447 -139 z "},"₂":{"ha":524,"x_min":32,"x_max":483,"o":"m 32 -139 l 32 -25 l 283 146 q 315 172 307 163 q 324 193 324 181 l 324 197 q 315 218 324 210 q 290 226 307 226 l 86 226 l 39 274 l 39 347 l 343 347 q 444 307 404 347 q 483 206 483 267 l 483 199 q 460 124 483 158 q 396 65 436 90 l 278 -11 l 278 -18 l 483 -18 l 483 -139 l 32 -139 z "},"₃":{"ha":525,"x_min":32,"x_max":486,"o":"m 32 -139 l 32 -24 l 296 -24 q 325 -15 314 -24 q 336 8 336 -6 l 336 17 q 325 42 336 32 q 296 51 314 51 l 139 51 l 139 142 l 257 225 l 257 232 l 74 232 l 32 274 l 32 347 l 463 347 l 463 250 l 336 160 l 336 153 l 350 153 q 449 115 411 153 q 486 17 486 78 l 486 -3 q 449 -101 486 -62 q 350 -139 411 -139 l 32 -139 z "},"₄":{"ha":558,"x_min":25,"x_max":532,"o":"m 463 -139 l 306 -139 l 306 -46 l 25 -46 l 25 65 l 236 347 l 365 347 l 365 289 l 203 79 l 203 72 l 317 72 l 317 164 l 463 164 l 463 72 l 532 72 l 532 -46 l 463 -46 l 463 -139 z "},"₅":{"ha":531,"x_min":46,"x_max":490,"o":"m 46 -139 l 46 -24 l 296 -24 q 326 -13 315 -24 q 336 11 336 -3 l 336 28 q 326 52 336 42 q 296 63 315 63 l 53 63 l 53 347 l 476 347 l 476 274 l 435 232 l 208 232 l 208 174 l 354 174 q 453 136 415 174 q 490 38 490 99 l 490 -3 q 453 -101 490 -62 q 354 -139 415 -139 l 46 -139 z "},"₆":{"ha":549,"x_min":39,"x_max":510,"o":"m 176 -146 q 77 -108 115 -146 q 39 -10 39 -71 l 39 42 q 49 97 39 72 q 86 150 60 121 l 260 347 l 385 347 l 385 289 l 281 174 l 281 167 l 319 167 l 374 167 q 472 129 433 167 q 510 32 510 92 l 510 -10 q 472 -108 510 -71 q 372 -146 433 -146 l 176 -146 m 315 -32 q 354 6 354 -32 l 354 21 q 315 58 354 58 l 233 58 q 194 21 194 58 l 194 6 q 233 -32 194 -32 l 315 -32 z "},"₇":{"ha":496,"x_min":25,"x_max":469,"o":"m 261 -139 l 121 -139 l 121 -83 l 290 222 l 290 229 l 25 229 l 25 347 l 469 347 l 469 243 l 261 -139 z "},"₈":{"ha":569,"x_min":46,"x_max":524,"o":"m 181 -146 q 83 -109 119 -146 q 46 -11 46 -72 l 46 7 q 67 72 46 44 q 117 108 89 99 l 117 115 q 78 147 96 122 q 60 208 60 172 l 60 225 q 97 318 60 282 q 194 354 135 354 l 375 354 q 472 318 435 354 q 510 225 510 282 l 510 208 q 492 147 510 172 q 453 115 474 122 l 453 108 q 502 72 481 99 q 524 7 524 46 l 524 -11 q 487 -109 524 -72 q 389 -146 450 -146 l 181 -146 m 319 157 q 358 192 358 157 l 358 208 q 319 243 358 243 l 250 243 q 211 208 211 243 l 211 192 q 250 157 211 157 l 319 157 m 329 -35 q 368 0 368 -35 l 368 19 q 329 53 368 53 l 240 53 q 201 19 201 53 l 201 0 q 240 -35 201 -35 l 329 -35 z "},"₉":{"ha":549,"x_min":39,"x_max":510,"o":"m 164 -139 l 164 -81 l 268 35 l 268 42 l 229 42 l 175 42 q 77 79 115 42 q 39 176 39 117 l 39 218 q 77 317 39 279 q 176 354 115 354 l 372 354 q 472 317 433 354 q 510 218 510 279 l 510 167 q 499 112 510 136 q 463 58 489 88 l 289 -139 l 164 -139 m 315 150 q 354 188 354 150 l 354 203 q 315 240 354 240 l 233 240 q 194 203 194 240 l 194 188 q 233 150 194 150 l 315 150 z "},"⓿":{"ha":1583,"x_min":97,"x_max":1486,"o":"m 306 -135 q 151 -81 204 -135 q 97 74 97 -26 l 97 899 q 151 1053 97 999 q 306 1107 204 1107 l 1278 1107 q 1433 1053 1379 1107 q 1486 899 1486 999 l 1486 74 q 1433 -81 1486 -26 q 1278 -135 1379 -135 l 306 -135 m 885 236 q 988 277 946 236 q 1029 379 1029 318 l 1029 593 q 988 695 1029 654 q 885 736 946 736 l 697 736 q 596 695 638 736 q 554 593 554 654 l 554 379 q 596 278 554 319 q 697 236 638 236 l 885 236 m 753 365 q 722 378 733 365 q 710 410 710 390 l 710 563 q 722 594 710 582 q 753 607 733 607 l 829 607 q 862 594 850 607 q 874 563 874 582 l 874 410 q 862 378 874 390 q 829 365 850 365 l 753 365 z "},"❶":{"ha":1583,"x_min":97,"x_max":1486,"o":"m 306 -135 q 151 -81 204 -135 q 97 74 97 -26 l 97 899 q 151 1053 97 999 q 306 1107 204 1107 l 1278 1107 q 1433 1053 1379 1107 q 1486 899 1486 999 l 1486 74 q 1433 -81 1486 -26 q 1278 -135 1379 -135 l 306 -135 m 588 365 l 588 243 l 989 243 l 989 365 l 875 365 l 875 729 l 718 729 l 718 688 l 601 688 l 601 569 l 718 569 l 718 365 l 588 365 z "},"❷":{"ha":1583,"x_min":97,"x_max":1486,"o":"m 306 -135 q 151 -81 204 -135 q 97 74 97 -26 l 97 899 q 151 1053 97 999 q 306 1107 204 1107 l 1278 1107 q 1433 1053 1379 1107 q 1486 899 1486 999 l 1486 74 q 1433 -81 1486 -26 q 1278 -135 1379 -135 l 306 -135 m 551 243 l 1003 243 l 1003 364 l 796 364 l 796 371 l 915 447 q 979 506 956 472 q 1003 581 1003 540 l 1003 588 q 963 689 1003 649 q 861 729 922 729 l 558 729 l 558 656 l 604 608 l 808 608 q 834 600 825 608 q 843 579 843 592 l 843 575 q 835 553 843 563 q 801 528 826 544 l 551 357 l 551 243 z "},"❸":{"ha":1583,"x_min":97,"x_max":1486,"o":"m 306 -135 q 151 -81 204 -135 q 97 74 97 -26 l 97 899 q 151 1053 97 999 q 306 1107 204 1107 l 1278 1107 q 1433 1053 1379 1107 q 1486 899 1486 999 l 1486 74 q 1433 -81 1486 -26 q 1278 -135 1379 -135 l 306 -135 m 871 243 q 969 281 932 243 q 1007 379 1007 319 l 1007 399 q 969 497 1007 460 q 871 535 932 535 l 857 535 l 857 542 l 985 632 l 985 729 l 554 729 l 554 656 l 596 614 l 778 614 l 778 607 l 660 524 l 660 433 l 818 433 q 846 424 835 433 q 857 399 857 414 l 857 390 q 846 367 857 376 q 818 358 835 358 l 554 358 l 554 243 l 871 243 z "},"❹":{"ha":1583,"x_min":97,"x_max":1486,"o":"m 306 -135 q 151 -81 204 -135 q 97 74 97 -26 l 97 899 q 151 1053 97 999 q 306 1107 204 1107 l 1278 1107 q 1433 1053 1379 1107 q 1486 899 1486 999 l 1486 74 q 1433 -81 1486 -26 q 1278 -135 1379 -135 l 306 -135 m 801 336 l 801 243 l 958 243 l 958 336 l 1028 336 l 1028 454 l 958 454 l 958 546 l 813 546 l 813 454 l 699 454 l 699 461 l 861 671 l 861 729 l 732 729 l 521 447 l 521 336 l 801 336 z "},"❺":{"ha":1583,"x_min":97,"x_max":1486,"o":"m 306 -135 q 151 -81 204 -135 q 97 74 97 -26 l 97 899 q 151 1053 97 999 q 306 1107 204 1107 l 1278 1107 q 1433 1053 1379 1107 q 1486 899 1486 999 l 1486 74 q 1433 -81 1486 -26 q 1278 -135 1379 -135 l 306 -135 m 871 243 q 969 281 932 243 q 1007 379 1007 319 l 1007 419 q 969 518 1007 481 q 871 556 932 556 l 725 556 l 725 614 l 951 614 l 993 656 l 993 729 l 569 729 l 569 444 l 813 444 q 842 435 832 444 q 851 410 851 425 l 851 393 q 842 369 851 379 q 813 358 832 358 l 563 358 l 563 243 l 871 243 z "},"❻":{"ha":1583,"x_min":97,"x_max":1486,"o":"m 306 -135 q 151 -81 204 -135 q 97 74 97 -26 l 97 899 q 151 1053 97 999 q 306 1107 204 1107 l 1278 1107 q 1433 1053 1379 1107 q 1486 899 1486 999 l 1486 74 q 1433 -81 1486 -26 q 1278 -135 1379 -135 l 306 -135 m 889 236 q 988 274 950 236 q 1025 372 1025 313 l 1025 414 q 988 511 1025 474 q 890 549 950 549 l 836 549 l 796 549 l 796 556 l 900 671 l 900 729 l 775 729 l 601 532 q 567 481 578 506 q 556 424 556 456 l 556 372 q 594 274 556 313 q 692 236 632 236 l 889 236 m 750 350 q 711 388 711 350 l 711 403 q 750 440 711 440 l 831 440 q 871 403 871 440 l 871 388 q 831 350 871 350 l 750 350 z "},"❼":{"ha":1583,"x_min":97,"x_max":1486,"o":"m 306 -135 q 151 -81 204 -135 q 97 74 97 -26 l 97 899 q 151 1053 97 999 q 306 1107 204 1107 l 1278 1107 q 1433 1053 1379 1107 q 1486 899 1486 999 l 1486 74 q 1433 -81 1486 -26 q 1278 -135 1379 -135 l 306 -135 m 656 299 l 656 243 l 796 243 l 1004 625 l 1004 729 l 560 729 l 560 611 l 825 611 l 825 604 l 656 299 z "},"❽":{"ha":1583,"x_min":97,"x_max":1486,"o":"m 306 -135 q 151 -81 204 -135 q 97 74 97 -26 l 97 899 q 151 1053 97 999 q 306 1107 204 1107 l 1278 1107 q 1433 1053 1379 1107 q 1486 899 1486 999 l 1486 74 q 1433 -81 1486 -26 q 1278 -135 1379 -135 l 306 -135 m 897 236 q 994 273 958 236 q 1031 371 1031 310 l 1031 389 q 1009 453 1031 426 q 961 490 988 481 l 961 497 q 999 530 982 504 q 1017 590 1017 556 l 1017 607 q 980 700 1017 664 q 883 736 943 736 l 703 736 q 605 701 642 736 q 568 607 568 665 l 568 590 q 586 529 568 554 q 625 497 604 504 l 625 490 q 576 453 597 481 q 554 389 554 426 l 554 371 q 591 273 554 310 q 689 236 628 236 l 897 236 m 758 539 q 718 574 718 539 l 718 590 q 758 625 718 625 l 828 625 q 867 590 867 625 l 867 574 q 828 539 867 539 l 758 539 m 749 347 q 710 382 710 347 l 710 401 q 749 435 710 435 l 836 435 q 876 401 876 435 l 876 382 q 836 347 876 347 l 749 347 z "},"❾":{"ha":1583,"x_min":97,"x_max":1486,"o":"m 306 -135 q 151 -81 204 -135 q 97 74 97 -26 l 97 899 q 151 1053 97 999 q 306 1107 204 1107 l 1278 1107 q 1433 1053 1379 1107 q 1486 899 1486 999 l 1486 74 q 1433 -81 1486 -26 q 1278 -135 1379 -135 l 306 -135 m 674 243 l 799 243 l 972 440 q 1007 491 996 467 q 1018 549 1018 515 l 1018 600 q 981 699 1018 661 q 882 736 943 736 l 685 736 q 587 699 625 736 q 549 600 549 661 l 549 558 q 587 461 549 499 q 685 424 625 424 l 738 424 l 778 424 l 778 417 l 674 301 l 674 243 m 743 532 q 704 569 704 532 l 704 585 q 743 622 704 622 l 824 622 q 864 585 864 622 l 864 569 q 824 532 864 532 l 743 532 z "},"⓪":{"ha":1583,"x_min":97,"x_max":1486,"o":"m 306 -135 q 151 -81 204 -135 q 97 74 97 -26 l 97 899 q 151 1053 97 999 q 306 1107 204 1107 l 1278 1107 q 1433 1053 1379 1107 q 1486 899 1486 999 l 1486 74 q 1433 -81 1486 -26 q 1278 -135 1379 -135 l 306 -135 m 1253 24 q 1311 42 1293 24 q 1329 103 1329 60 l 1329 869 q 1311 931 1329 913 q 1253 949 1293 949 l 331 949 q 272 931 290 949 q 254 869 254 913 l 254 103 q 272 42 254 60 q 331 24 290 24 l 1253 24 m 697 236 q 596 278 638 236 q 554 379 554 319 l 554 593 q 596 695 554 654 q 697 736 638 736 l 885 736 q 988 695 946 736 q 1029 593 1029 654 l 1029 379 q 988 277 1029 318 q 885 236 946 236 l 697 236 m 829 365 q 862 378 850 365 q 874 410 874 390 l 874 563 q 862 594 874 582 q 829 607 850 607 l 753 607 q 722 594 733 607 q 710 563 710 582 l 710 410 q 722 378 710 390 q 753 365 733 365 l 829 365 z "},"①":{"ha":1583,"x_min":97,"x_max":1486,"o":"m 306 -135 q 151 -81 204 -135 q 97 74 97 -26 l 97 899 q 151 1053 97 999 q 306 1107 204 1107 l 1278 1107 q 1433 1053 1379 1107 q 1486 899 1486 999 l 1486 74 q 1433 -81 1486 -26 q 1278 -135 1379 -135 l 306 -135 m 1253 24 q 1311 42 1293 24 q 1329 103 1329 60 l 1329 869 q 1311 931 1329 913 q 1253 949 1293 949 l 331 949 q 272 931 290 949 q 254 869 254 913 l 254 103 q 272 42 254 60 q 331 24 290 24 l 1253 24 m 989 243 l 588 243 l 588 365 l 718 365 l 718 569 l 601 569 l 601 688 l 718 688 l 718 729 l 875 729 l 875 365 l 989 365 l 989 243 z "},"②":{"ha":1583,"x_min":97,"x_max":1486,"o":"m 306 -135 q 151 -81 204 -135 q 97 74 97 -26 l 97 899 q 151 1053 97 999 q 306 1107 204 1107 l 1278 1107 q 1433 1053 1379 1107 q 1486 899 1486 999 l 1486 74 q 1433 -81 1486 -26 q 1278 -135 1379 -135 l 306 -135 m 1253 24 q 1311 42 1293 24 q 1329 103 1329 60 l 1329 869 q 1311 931 1329 913 q 1253 949 1293 949 l 331 949 q 272 931 290 949 q 254 869 254 913 l 254 103 q 272 42 254 60 q 331 24 290 24 l 1253 24 m 551 243 l 551 357 l 801 528 q 835 553 826 544 q 843 575 843 563 l 843 579 q 834 600 843 592 q 808 608 825 608 l 604 608 l 558 656 l 558 729 l 861 729 q 963 689 922 729 q 1003 588 1003 649 l 1003 581 q 979 506 1003 540 q 915 447 956 472 l 796 371 l 796 364 l 1003 364 l 1003 243 l 551 243 z "},"③":{"ha":1583,"x_min":97,"x_max":1486,"o":"m 306 -135 q 151 -81 204 -135 q 97 74 97 -26 l 97 899 q 151 1053 97 999 q 306 1107 204 1107 l 1278 1107 q 1433 1053 1379 1107 q 1486 899 1486 999 l 1486 74 q 1433 -81 1486 -26 q 1278 -135 1379 -135 l 306 -135 m 1253 24 q 1311 42 1293 24 q 1329 103 1329 60 l 1329 869 q 1311 931 1329 913 q 1253 949 1293 949 l 331 949 q 272 931 290 949 q 254 869 254 913 l 254 103 q 272 42 254 60 q 331 24 290 24 l 1253 24 m 554 243 l 554 358 l 818 358 q 846 367 835 358 q 857 390 857 376 l 857 399 q 846 424 857 414 q 818 433 835 433 l 660 433 l 660 524 l 778 607 l 778 614 l 596 614 l 554 656 l 554 729 l 985 729 l 985 632 l 857 542 l 857 535 l 871 535 q 969 497 932 535 q 1007 399 1007 460 l 1007 379 q 969 281 1007 319 q 871 243 932 243 l 554 243 z "},"④":{"ha":1583,"x_min":97,"x_max":1486,"o":"m 306 -135 q 151 -81 204 -135 q 97 74 97 -26 l 97 899 q 151 1053 97 999 q 306 1107 204 1107 l 1278 1107 q 1433 1053 1379 1107 q 1486 899 1486 999 l 1486 74 q 1433 -81 1486 -26 q 1278 -135 1379 -135 l 306 -135 m 1253 24 q 1311 42 1293 24 q 1329 103 1329 60 l 1329 869 q 1311 931 1329 913 q 1253 949 1293 949 l 331 949 q 272 931 290 949 q 254 869 254 913 l 254 103 q 272 42 254 60 q 331 24 290 24 l 1253 24 m 958 243 l 801 243 l 801 336 l 521 336 l 521 447 l 732 729 l 861 729 l 861 671 l 699 461 l 699 454 l 813 454 l 813 546 l 958 546 l 958 454 l 1028 454 l 1028 336 l 958 336 l 958 243 z "},"⑤":{"ha":1583,"x_min":97,"x_max":1486,"o":"m 306 -135 q 151 -81 204 -135 q 97 74 97 -26 l 97 899 q 151 1053 97 999 q 306 1107 204 1107 l 1278 1107 q 1433 1053 1379 1107 q 1486 899 1486 999 l 1486 74 q 1433 -81 1486 -26 q 1278 -135 1379 -135 l 306 -135 m 1253 24 q 1311 42 1293 24 q 1329 103 1329 60 l 1329 869 q 1311 931 1329 913 q 1253 949 1293 949 l 331 949 q 272 931 290 949 q 254 869 254 913 l 254 103 q 272 42 254 60 q 331 24 290 24 l 1253 24 m 563 243 l 563 358 l 813 358 q 842 369 832 358 q 851 393 851 379 l 851 410 q 842 435 851 425 q 813 444 832 444 l 569 444 l 569 729 l 993 729 l 993 656 l 951 614 l 725 614 l 725 556 l 871 556 q 969 518 932 556 q 1007 419 1007 481 l 1007 379 q 969 281 1007 319 q 871 243 932 243 l 563 243 z "},"⑥":{"ha":1583,"x_min":97,"x_max":1486,"o":"m 306 -135 q 151 -81 204 -135 q 97 74 97 -26 l 97 899 q 151 1053 97 999 q 306 1107 204 1107 l 1278 1107 q 1433 1053 1379 1107 q 1486 899 1486 999 l 1486 74 q 1433 -81 1486 -26 q 1278 -135 1379 -135 l 306 -135 m 1253 24 q 1311 42 1293 24 q 1329 103 1329 60 l 1329 869 q 1311 931 1329 913 q 1253 949 1293 949 l 331 949 q 272 931 290 949 q 254 869 254 913 l 254 103 q 272 42 254 60 q 331 24 290 24 l 1253 24 m 692 236 q 594 274 632 236 q 556 372 556 313 l 556 424 q 567 481 556 456 q 601 532 578 506 l 775 729 l 900 729 l 900 671 l 796 556 l 796 549 l 836 549 l 890 549 q 988 511 950 549 q 1025 414 1025 474 l 1025 372 q 988 274 1025 313 q 889 236 950 236 l 692 236 m 831 350 q 871 388 871 350 l 871 403 q 831 440 871 440 l 750 440 q 711 403 711 440 l 711 388 q 750 350 711 350 l 831 350 z "},"⑦":{"ha":1583,"x_min":97,"x_max":1486,"o":"m 306 -135 q 151 -81 204 -135 q 97 74 97 -26 l 97 899 q 151 1053 97 999 q 306 1107 204 1107 l 1278 1107 q 1433 1053 1379 1107 q 1486 899 1486 999 l 1486 74 q 1433 -81 1486 -26 q 1278 -135 1379 -135 l 306 -135 m 1253 24 q 1311 42 1293 24 q 1329 103 1329 60 l 1329 869 q 1311 931 1329 913 q 1253 949 1293 949 l 331 949 q 272 931 290 949 q 254 869 254 913 l 254 103 q 272 42 254 60 q 331 24 290 24 l 1253 24 m 796 243 l 656 243 l 656 299 l 825 604 l 825 611 l 560 611 l 560 729 l 1004 729 l 1004 625 l 796 243 z "},"⑧":{"ha":1583,"x_min":97,"x_max":1486,"o":"m 306 -135 q 151 -81 204 -135 q 97 74 97 -26 l 97 899 q 151 1053 97 999 q 306 1107 204 1107 l 1278 1107 q 1433 1053 1379 1107 q 1486 899 1486 999 l 1486 74 q 1433 -81 1486 -26 q 1278 -135 1379 -135 l 306 -135 m 1253 24 q 1311 42 1293 24 q 1329 103 1329 60 l 1329 869 q 1311 931 1329 913 q 1253 949 1293 949 l 331 949 q 272 931 290 949 q 254 869 254 913 l 254 103 q 272 42 254 60 q 331 24 290 24 l 1253 24 m 689 236 q 591 273 628 236 q 554 371 554 310 l 554 389 q 576 453 554 426 q 625 490 597 481 l 625 497 q 586 529 604 504 q 568 590 568 554 l 568 607 q 605 701 568 665 q 703 736 642 736 l 883 736 q 980 700 943 736 q 1017 607 1017 664 l 1017 590 q 999 530 1017 556 q 961 497 982 504 l 961 490 q 1009 453 988 481 q 1031 389 1031 426 l 1031 371 q 994 273 1031 310 q 897 236 958 236 l 689 236 m 828 539 q 867 574 867 539 l 867 590 q 828 625 867 625 l 758 625 q 718 590 718 625 l 718 574 q 758 539 718 539 l 828 539 m 836 347 q 876 382 876 347 l 876 401 q 836 435 876 435 l 749 435 q 710 401 710 435 l 710 382 q 749 347 710 347 l 836 347 z "},"⑨":{"ha":1583,"x_min":97,"x_max":1486,"o":"m 306 -135 q 151 -81 204 -135 q 97 74 97 -26 l 97 899 q 151 1053 97 999 q 306 1107 204 1107 l 1278 1107 q 1433 1053 1379 1107 q 1486 899 1486 999 l 1486 74 q 1433 -81 1486 -26 q 1278 -135 1379 -135 l 306 -135 m 1253 24 q 1311 42 1293 24 q 1329 103 1329 60 l 1329 869 q 1311 931 1329 913 q 1253 949 1293 949 l 331 949 q 272 931 290 949 q 254 869 254 913 l 254 103 q 272 42 254 60 q 331 24 290 24 l 1253 24 m 674 243 l 674 301 l 778 417 l 778 424 l 738 424 l 685 424 q 587 461 625 424 q 549 558 549 499 l 549 600 q 587 699 549 661 q 685 736 625 736 l 882 736 q 981 699 943 736 q 1018 600 1018 661 l 1018 549 q 1007 491 1018 515 q 972 440 996 467 l 799 243 l 674 243 m 824 532 q 864 569 864 532 l 864 585 q 824 622 864 622 l 743 622 q 704 585 704 622 l 704 569 q 743 532 704 532 l 824 532 z "}}}
